<svg xmlns="http://www.w3.org/2000/svg" xmlns:svg="http://www.w3.org/2000/svg" xmlns:xlink="http://www.w3.org/1999/xlink" id="svg1" width="1024" height="1024" version="1.1" viewBox="0 0 270.933 270.933" xml:space="preserve"><defs id="defs1"><linearGradient id="linearGradient1"><stop style="stop-color:#ffa400;stop-opacity:1" id="stop1" offset="0"/><stop style="stop-color:#ff00be;stop-opacity:1" id="stop2" offset="1"/></linearGradient><linearGradient id="linearGradient2" x1="240.467" x2="-30.467" y1="13.033" y2="283.967" gradientUnits="userSpaceOnUse" xlink:href="#linearGradient1"/></defs><g id="layer1" transform="translate(30.46666,-13.03334)"><rect style="fill:url(#linearGradient2);fill-opacity:1;stroke-width:2" id="rect1" width="270.933" height="270.933" x="-30.467" y="13.033"/><path style="display:inline;fill:#000;stroke-width:1.00663" id="path1" d="m 85.97205,284.56887 c -0.878913,-0.12332 -3.755354,-0.47901 -6.392092,-0.79041 -9.111156,-1.07604 -16.755577,-2.56235 -25.435201,-4.94542 -10.005605,-2.74714 -17.232673,-5.42271 -25.516227,-9.44655 -7.852708,-3.81455 -14.485154,-7.84902 -20.5601041,-12.50655 -3.5561788,-2.72645 -10.838127,-10.12807 -13.8832174,-14.11136 -3.7374508,-4.88899 -7.9817605,-11.40496 -9.5721945,-14.69547 -0.552723,-1.14355 -0.568609,-1.29607 -0.19418,-1.86436 1.050704,-1.59472 13.5801847,-8.22753 25.647121,-13.57698 l 2.663372,-1.18071 2.086856,-3.85044 c 9.761121,-18.01017 22.76541,-35.96366 32.111169,-44.33209 3.780667,-3.38532 7.760306,-6.61134 9.146299,-7.41429 l 0.996712,-0.57743 0.002,-2.69666 c 0.0028,-3.7402 -0.14656,-4.36128 -1.049144,-4.36128 -1.231305,0 -3.222263,-0.82882 -4.100306,-1.70694 -0.598878,-0.59892 -1.831854,-3.10114 -4.281617,-8.68916 -1.892293,-4.3164 -3.605455,-8.38732 -3.807026,-9.04651 -1.026388,-3.35652 -1.782491,-14.64232 -1.155952,-17.25402 0.374282,-1.56019 1.468229,-2.72308 3.053922,-3.2464 0.525262,-0.17335 0.955024,-0.35917 0.955024,-0.41293 0,-0.54761 -2.897194,-12.171319 -5.34246,-21.434261 C 39.92067,81.03387 39.728987,76.417535 40.716024,71.285715 l 0.44279,-2.302151 -1.078295,-1.731192 c -2.044342,-3.282174 -2.882353,-7.063262 -2.626787,-11.852004 0.136211,-2.552299 1.183635,-7.885945 1.637842,-8.340152 0.07647,-0.07647 0.06307,0.759589 -0.02977,1.857894 -0.351303,4.1559 0.678773,7.278591 3.178826,9.636673 l 1.650098,1.556391 0.225481,-1.712774 c 0.212056,-1.610809 0.176208,-1.810383 -0.602165,-3.35233 -1.64464,-3.258015 -2.047636,-6.965763 -1.214722,-11.176014 0.513068,-2.593474 2.587936,-6.857573 4.311777,-8.861208 1.347131,-1.56578 3.644842,-3.565094 4.454061,-3.87562 0.456336,-0.175112 0.45867,-0.148822 0.0431,0.485422 -0.64211,0.979985 -1.287401,4.376223 -1.074803,5.656814 0.397157,2.39228 1.380502,3.34319 3.457229,3.34319 1.321104,0 3.850292,-0.672593 3.849853,-1.023801 -1.19e-4,-0.0961 -0.197657,-1.073604 -0.438974,-2.172244 -0.276179,-1.257356 -0.4398,-3.231151 -0.441571,-5.326745 -0.0032,-3.865646 0.57357,-6.421282 2.108772,-9.342776 0.9354,-1.780069 3.374018,-4.769896 3.66367,-4.491781 0.08486,0.08147 0.02397,0.620087 -0.135286,1.196907 -0.441763,1.599929 -0.163255,5.050385 0.476848,5.907735 1.167284,1.56345 1.787114,1.804556 4.575988,1.780005 2.873948,-0.02529 2.044134,0.231666 14.923802,-4.621411 6.564257,-2.47342 11.140514,-3.870026 15.750221,-4.806732 11.800471,-2.397891 23.430151,-0.437338 31.029141,5.230951 6.48194,4.83505 8.74063,10.686904 8.20803,21.265443 -0.11065,2.197283 -0.23545,3.695429 -0.27738,3.329216 -0.75578,-6.600588 -2.37585,-10.285476 -6.30406,-14.338792 -1.99601,-2.059584 -4.24984,-3.688314 -7.03453,-5.083494 l -1.67836,-0.840887 1.84323,2.133028 c 5.15422,5.964622 9.39065,14.45648 10.55699,21.161325 0.22631,1.300936 0.41664,2.978861 0.42297,3.728721 l 0.0115,1.363382 1.6531,-1.756591 c 1.79509,-1.907463 3.5507,-4.887353 4.61074,-7.826041 0.75691,-2.098317 1.44381,-6.187506 1.24917,-7.436433 -0.388,-2.489769 1.23402,2.605915 1.76629,5.548898 0.68956,3.81266 0.2146,9.955117 -1.0208,13.201359 -0.30661,0.80567 -0.55753,1.511684 -0.5576,1.568921 -8e-5,0.05724 0.40986,-0.414049 0.91097,-1.047299 4.14401,-5.236773 4.8838,-14.032649 1.75973,-20.922628 -1.48572,-3.276703 -4.07425,-6.753672 -6.87076,-9.229005 -0.6206,-0.549321 -1.02882,-0.998764 -0.90717,-0.998764 0.33131,0 3.45563,1.295896 4.97345,2.062872 5.91026,2.986549 11.03803,9.630405 12.18249,15.784364 0.22775,1.224699 0.42921,1.614355 1.01294,1.959172 1.42435,0.841383 4.78566,4.229755 5.98372,6.031904 4.5888,6.902527 5.88221,16.01839 3.30772,23.312459 -0.75789,2.147285 -0.78079,2.336817 -0.48643,4.02714 0.48313,2.774309 0.16988,5.564411 -1.18471,10.552455 -1.02483,3.773794 -4.16919,16.827473 -4.16919,17.308273 0,0.084 0.412,0.28885 0.91554,0.45505 2.39461,0.79028 3.33131,2.45847 3.34001,5.94817 0.007,2.84213 -0.44034,9.48012 -0.80982,12.0146 -0.32415,2.22342 -1.9484,6.25227 -7.51684,18.64496 -0.71733,1.59641 -2.25566,2.67127 -4.48098,3.13089 -1.80277,0.37236 -1.83506,0.45103 -1.83506,4.47087 v 2.58882 l 1.79224,1.30636 c 13.4849,9.8292 27.5855,27.63673 40.36631,50.97824 l 2.26044,4.12824 4.49082,2.01588 c 9.32077,4.18404 18.80205,9.09678 22.65055,11.73643 1.55951,1.06966 1.62874,1.53092 0.52514,3.49869 -8.14916,14.53021 -18.12563,25.39286 -30.80322,33.53939 -10.69569,6.87294 -26.30618,13.46799 -40.25024,17.00469 -4.10443,1.04103 -10.17234,2.38869 -10.27828,2.28276 -0.0436,-0.0436 0.25942,-0.54787 0.67339,-1.12058 0.41395,-0.57271 0.96348,-1.36413 1.22116,-1.75869 l 0.46852,-0.71741 -1.3425,-0.68028 c -1.7953,-0.90976 -5.22607,-2.01327 -6.25712,-2.01261 -0.75752,4.8e-4 -0.88128,0.12715 -1.38963,1.42226 l -0.55804,1.42171 2.55557,1.16467 c 3.27031,1.49042 4.37486,2.13644 4.10396,2.4003 -0.2408,0.23454 -6.21746,1.19175 -14.33258,2.29546 -5.24551,0.71342 -5.56636,0.72525 -21.04063,0.77548 -8.642638,0.0281 -16.433001,-0.0499 -17.311914,-0.17324 z m -17.654006,-4.0799 c 0.920576,-0.49418 2.392885,-1.17878 3.271798,-1.52136 0.878912,-0.34257 1.643655,-0.65306 1.699426,-0.68996 0.07797,-0.0516 -0.953544,-2.89303 -1.167522,-3.21606 -0.02439,-0.0369 -0.954108,0.16573 -2.06604,0.45011 -2.429023,0.62124 -6.056473,2.09371 -6.056473,2.45846 0,0.26652 2.338762,3.41731 2.536602,3.41731 0.05964,0 0.861632,-0.40432 1.782209,-0.8985 z m 44.746736,-11.63269 8.88007,-8.93563 0.73687,-2.74792 c 0.40528,-1.51137 0.68519,-2.79963 0.62201,-2.8628 -0.0632,-0.0632 -0.68932,0.40035 -1.39142,1.03007 -1.47057,1.31893 -17.16369,15.63143 -18.36201,16.74657 l -0.799,0.74355 -2.66338,-2.41995 c -1.464855,-1.33098 -5.71959,-5.26196 -9.45497,-8.73552 -8.268659,-7.68911 -8.954918,-8.28928 -8.69692,-7.60582 0.106638,0.28248 0.502583,1.74558 0.879887,3.25132 l 0.686005,2.73772 9.562843,9.4826 9.562845,9.48261 0.77854,-0.61558 c 0.4282,-0.33858 4.77459,-4.63662 9.65863,-9.55122 z m 34.19236,1.79466 c 0.5098,-0.86984 0.89193,-1.60442 0.84919,-1.63242 -1.63022,-1.06808 -7.81012,-3.19746 -10.09855,-3.47961 l -1.49803,-0.1847 -0.56422,1.67076 c -0.31033,0.91894 -0.53511,1.69348 -0.4995,1.72121 0.0356,0.0278 1.19664,0.37162 2.58007,0.76419 3.44794,0.97843 6.94151,2.63808 7.13846,3.39123 l 0.15229,0.58235 0.5067,-0.62576 c 0.27868,-0.34416 0.92381,-1.33743 1.43359,-2.20725 z m -86.884248,2.06477 c 0.235604,-0.614 4.743196,-2.63165 7.433462,-3.32733 1.361579,-0.35209 2.299302,-0.72688 2.23965,-0.89515 -0.05644,-0.1592 -0.325138,-0.91869 -0.597105,-1.68773 -0.547169,-1.54724 -0.600096,-1.56792 -2.839769,-1.1092 -4.225223,0.86536 -9.416746,2.93506 -9.144138,3.64545 0.236924,0.61742 2.39135,3.78212 2.577272,3.78583 0.09418,0.002 0.242975,-0.18346 0.330628,-0.41187 z m -5.82969,-8.64499 c -0.168728,-0.76822 -0.112427,-0.83221 1.270315,-1.44372 2.031929,-0.89861 5.500853,-1.94851 8.318883,-2.5178 2.7359,-0.55267 2.846327,-0.69369 1.98245,-2.5315 -0.66663,-1.4182 -0.665317,-1.41794 -4.144843,-0.81832 -4.468047,0.76994 -10.75496,2.74124 -10.75496,3.37225 0,0.37367 3.019096,4.72805 3.283794,4.73616 0.121503,0.005 0.141466,-0.35496 0.04436,-0.79707 z m 98.554208,-2.0383 c 1.45062,-2.16131 1.47713,-2.06951 -0.85564,-2.96321 -2.94463,-1.1281 -5.67999,-1.85154 -8.75072,-2.31437 -3.88214,-0.5851 -3.69807,-0.63005 -4.38861,1.07136 -0.32914,0.81093 -0.53201,1.54084 -0.45085,1.62201 0.0811,0.0811 1.26541,0.37011 2.63161,0.64207 2.57084,0.51175 4.88426,1.15794 7.41125,2.07011 2.56071,0.92433 2.42563,0.8117 2.25413,1.87947 l -0.15546,0.96787 0.68996,-0.79902 c 0.37948,-0.43945 1.10593,-1.41878 1.61433,-2.17629 z m -48.3773,-2.14439 c 3.69176,-3.109 12.36086,-10.878 14.47586,-12.97286 2.42464,-2.40154 3.53641,-3.89145 5.57843,-7.47581 3.68504,-6.4683 6.569,-13.38464 8.32926,-19.9753 2.02969,-7.59937 3.76905,-20.33846 4.52747,-33.15897 l 0.14968,-2.53021 -1.13502,1.8347 c -0.62426,1.00908 -2.8864,4.48478 -5.02697,7.72378 -6.60613,9.99607 -10.9181,15.41836 -17.39559,21.87489 -6.51884,6.49772 -11.00238,9.71796 -19.309401,13.86866 -4.822816,2.40977 -5.041079,2.55305 -5.451433,3.57863 -0.575437,1.43816 -0.54924,4.28194 0.107582,11.67842 l 0.535054,6.02523 1.53282,1.46484 c 2.537153,2.42466 10.820098,9.29972 11.217898,9.31115 0.20393,0.006 1.0429,-0.55536 1.86436,-1.24715 z m -56.313599,-4.9714 -0.169302,-0.90245 1.688672,-0.55119 c 2.962794,-0.96707 6.920002,-1.86754 10.278537,-2.33891 1.876128,-0.26332 3.260279,-0.57965 3.257759,-0.74454 -0.0024,-0.15769 -0.277588,-0.76611 -0.611507,-1.35205 l -0.607124,-1.06534 -3.316967,0.0345 c -1.824332,0.0189 -4.515485,0.24116 -5.980339,0.49382 -3.038365,0.52408 -7.621038,1.66458 -7.934046,1.97456 -0.220476,0.21835 2.984315,5.3288 3.351798,5.34488 0.116502,0.005 0.135636,-0.39684 0.04252,-0.89319 z m 110.307549,-1.16165 c 2.07416,-3.15452 2.10138,-3.22417 1.36832,-3.50289 -1.5317,-0.58235 -6.47169,-1.6505 -9.33746,-2.01897 -4.38107,-0.56332 -7.17479,-0.54086 -7.70332,0.0619 -0.46441,0.52967 -1.35559,2.21257 -1.22497,2.31321 0.0474,0.0365 1.52445,0.26541 3.28227,0.50861 3.20641,0.44361 7.20916,1.32409 10.613,2.33453 1.89132,0.56143 1.91316,0.59167 1.3739,1.90159 -0.46425,1.1277 0.38238,0.29678 1.62826,-1.59803 z m -116.402975,-8.42678 -0.175317,-1.16911 1.71135,-0.29802 c 5.343889,-0.9306 11.692988,-1.6169 15.009406,-1.62243 0.906888,-0.001 1.711224,-0.1036 1.787412,-0.22688 0.22722,-0.36765 -1.496238,-1.81924 -2.564424,-2.1599 -0.545865,-0.17407 -2.343641,-0.41735 -3.995058,-0.5406 -4.92665,-0.36771 -16.137468,0.43543 -16.015302,1.14734 0.04958,0.28897 4.141159,6.03869 4.297205,6.03869 0.06603,0 0.04115,-0.52609 -0.05527,-1.16909 z m 123.110505,-1.85427 c 1.05406,-1.53449 1.91647,-2.89947 1.91647,-3.03327 0,-0.73975 -10.92078,-1.50927 -15.85796,-1.11743 -3.75997,0.29844 -4.65497,0.51939 -5.87588,1.45062 -1.46696,1.1189 -1.22054,1.46205 1.04993,1.46205 3.52197,0 16.4172,1.50392 16.88218,1.9689 0.0483,0.0483 -0.0354,0.41198 -0.18588,0.80803 -0.32712,0.86038 -0.35756,1.56766 -0.0596,1.3835 0.11784,-0.0728 1.07665,-1.3879 2.1307,-2.9224 z M 35.339959,235.06271 c -0.166589,-1.04179 -0.161937,-1.0486 0.862449,-1.26509 0.566465,-0.11973 5.362774,-0.21768 10.658464,-0.21768 10.637984,0 10.129448,0.1011 8.30451,-1.65109 -0.788518,-0.7571 -1.22892,-0.91213 -3.950335,-1.39059 -1.684582,-0.29618 -4.304055,-0.66182 -5.821053,-0.81253 -2.949519,-0.29303 -13.95848,-0.38099 -14.225804,-0.11372 -0.136673,0.13668 4.032811,6.49809 4.259063,6.49809 0.04411,0 0.0048,-0.47135 -0.08729,-1.04744 z m 136.939191,-2.02773 c 1.12634,-1.69134 1.96381,-3.15952 1.86104,-3.26262 -0.33088,-0.332 -10.55643,-0.37449 -13.98222,-0.0581 -1.825,0.16855 -4.57142,0.53245 -6.10315,0.80866 -2.64303,0.47664 -2.84377,0.55996 -3.93948,1.63533 -0.635,0.6232 -1.15457,1.19803 -1.15458,1.27739 -2e-5,0.0793 4.40454,0.14431 9.78789,0.14431 10.18927,0 11.9472,0.1265 11.67341,0.83999 -0.29644,0.7725 -0.4781,1.6902 -0.33457,1.6902 0.0791,0 1.06534,-1.38382 2.19166,-3.07515 z m 8.34717,-11.53279 c 1.62707,-2.10171 2.95831,-3.91013 2.95831,-4.01873 0,-0.1086 -0.68915,-0.10451 -1.53144,0.009 -0.84229,0.11361 -3.20936,0.40464 -5.26017,0.64661 -5.7867,0.68273 -14.35091,2.17739 -17.52115,3.05784 -3.00975,0.83587 -4.93802,1.6803 -6.05222,2.65041 l -0.66331,0.57751 0.93218,-0.13757 c 3.72005,-0.54899 8.31909,-0.79691 14.51539,-0.78246 6.88772,0.016 9.62984,0.23772 9.55222,0.77223 -0.0197,0.13598 -0.12311,0.54686 -0.22969,0.91307 -0.26034,0.89455 -0.16763,0.79093 3.29988,-3.68812 z m -152.48137,3.19554 c -0.14875,-0.74375 -0.123334,-0.76232 1.271761,-0.92955 4.859715,-0.58247 15.132715,-0.40391 21.228831,0.36901 1.095373,0.13887 2.045012,0.19907 2.11031,0.13377 0.0653,-0.0653 -0.463931,-0.48823 -1.176066,-0.93985 -2.583868,-1.63864 -8.84102,-3.22551 -17.836202,-4.52344 -5.238703,-0.7559 -11.901202,-1.59203 -12.006208,-1.50675 -0.0606,0.0493 6.385117,8.15573 6.484843,8.15573 0.04097,0 0.0063,-0.34152 -0.07728,-0.75892 z m 128.8152,-9.87325 c 2.92943,-1.02915 12.79946,-3.2529 20.89823,-4.70843 2.19728,-0.3949 4.03747,-0.75278 4.08932,-0.79527 0.16139,-0.1323 -2.18483,-4.10575 -2.42434,-4.10575 -0.12463,0 -0.60395,0.19515 -1.06518,0.43365 -0.46123,0.23851 -3.84108,1.56881 -7.51079,2.95624 -6.00851,2.27164 -10.60588,4.20366 -14.39599,6.04985 -1.62779,0.7929 -1.50743,0.84287 0.40875,0.16971 z m -108.008968,-0.0314 c -4.793158,-2.16334 -11.350661,-4.94181 -16.008007,-6.78275 -3.207403,-1.2678 -6.092538,-2.47233 -6.411413,-2.67672 -0.556063,-0.35642 -0.630431,-0.28379 -1.818553,1.77606 -0.681331,1.18123 -1.19947,2.18177 -1.151419,2.22346 0.04805,0.0416 1.945063,0.39901 4.215587,0.79408 7.344758,1.27796 17.087866,3.49303 19.842119,4.51103 1.173203,0.43364 2.218742,0.5552 1.331686,0.15484 z m -3.617746,-9.67977 c -2.127729,-1.95117 -13.058809,-9.83023 -13.291845,-9.58068 -0.116833,0.1251 -0.820046,1.18629 -1.562698,2.35817 l -1.350275,2.1307 2.187504,0.1335 c 1.947081,0.11884 2.758315,0.3613 7.381079,2.20615 2.856467,1.13996 5.493204,2.24419 5.859417,2.45385 0.644476,0.36897 1.004727,0.5073 0.776818,0.29831 z m 122.636054,-3.25567 c 4.03536,-1.52941 4.69226,-1.70298 6.44519,-1.70298 h 1.95187 l -1.05054,-1.79776 c -0.5778,-0.98879 -1.27342,-2.08341 -1.54583,-2.43248 l -0.4953,-0.63472 -4.10035,2.87911 c -3.6609,2.57054 -7.26898,5.25043 -8.86466,6.58418 -0.34377,0.28734 0.16239,0.14695 1.30194,-0.36114 1.0254,-0.45718 3.88636,-1.59757 6.35768,-2.53421 z M 45.96045,195.294 c -2.325709,-3.5845 -6.482573,-8.8572 -7.244267,-9.18884 -0.133916,-0.0583 -2.149679,2.96598 -2.149679,3.22521 0,0.0541 0.555614,0.31062 1.234699,0.56997 1.213958,0.46361 5.200603,3.33049 7.554427,5.43255 0.659185,0.58868 1.23018,1.07544 1.26888,1.08169 0.0387,0.006 -0.260127,-0.49802 -0.66406,-1.12058 z m 115.70386,-1.14833 c 2.50333,-2.19395 5.06628,-3.97522 6.28461,-4.36785 l 1.01037,-0.32562 -0.83993,-1.50696 c -0.46195,-0.82882 -0.93145,-1.60567 -1.04332,-1.72633 -0.4166,-0.44938 -4.61217,4.50236 -7.05846,8.33062 -1.38274,2.16387 -1.24437,2.12994 1.64673,-0.40386 z m -64.031455,-6.34289 c 1.186065,-0.50749 2.254946,-1.71835 2.811785,-3.18526 l 0.47001,-1.23822 0.91438,1.40124 0.9144,1.40123 0.83148,-1.08931 c 0.45733,-0.59913 0.89458,-1.26053 0.97169,-1.46976 0.10485,-0.28462 0.18611,-0.24628 0.32244,0.15222 0.5701,1.66644 1.29351,2.83192 2.17445,3.50323 0.89819,0.68445 1.19104,0.75641 3.01226,0.74008 2.61975,-0.0234 4.63459,-0.79764 6.41827,-2.46608 1.10183,-1.03066 1.72443,-2.0456 3.62258,-5.90545 2.80669,-5.70739 3.02949,-6.31801 3.02949,-8.30318 0,-1.64305 -0.37887,-2.68656 -1.26737,-3.49063 -1.05814,-0.95759 -5.11534,-1.15224 -19.24059,-0.92304 -1.09865,0.0179 -3.555608,-0.0658 -5.459919,-0.18593 -3.488295,-0.21997 -4.959833,-0.0404 -7.437398,0.90799 l -0.778969,0.29815 1.411016,0.95023 c 1.913106,1.28837 3.899094,2.1344 5.774539,2.45995 4.370701,0.75872 12.546341,0.58106 17.036531,-0.37019 1.01138,-0.21427 1.93637,-0.39165 2.05554,-0.3942 0.11916,-0.003 -0.75738,0.83433 -1.94787,1.85974 -1.19049,1.02539 -2.27676,1.86436 -2.41394,1.86436 -0.66763,0 -0.10167,0.52297 1.20649,1.11482 l 1.45591,0.65871 -1.78884,1.35173 -1.78883,1.3517 -8.52278,0.14018 c -8.467886,0.13926 -10.133828,0.28714 -12.845838,1.14016 -1.541865,0.48498 -1.566215,0.57086 -0.670865,2.36598 1.28718,2.58072 3.490464,4.4906 6.108551,5.2951 1.643012,0.50486 2.554182,0.52108 3.621397,0.0644 z m 33.202065,-30.4132 c 1.51527,-8.74022 2.03258,-11.21214 2.70567,-12.92845 0.15962,-0.40702 1.32841,-1.45522 2.82129,-2.5302 3.01109,-2.16821 4.91842,-4.16551 8.58942,-8.99458 l 2.70964,-3.56442 -0.0826,-11.28423 c -0.0927,-12.68667 0.0837,-11.57647 -2.31615,-14.5767 -2.72914,-3.41196 -2.5693,-2.70646 -2.2053,-9.734428 0.39128,-7.554421 0.39545,-10.622898 0.0163,-12.008795 -0.59184,-2.163396 -3.98666,-4.574642 -7.96203,-5.655194 -2.48981,-0.676759 -14.64114,-0.670436 -19.43106,0.01012 -4.34998,0.618038 -6.02668,1.233612 -11.81958,4.339368 -7.813783,4.189214 -13.738364,7.204035 -17.43227,8.8707 l -3.454257,1.558538 0.833131,-1.455738 c 1.286559,-2.248014 3.901772,-5.35918 6.109635,-7.268276 1.101164,-0.952155 1.970703,-1.762888 1.932309,-1.80163 -0.19928,-0.201085 -3.965943,1.171271 -5.411451,1.971623 -2.330085,1.290123 -5.061811,4.074378 -6.119617,6.237291 -0.896555,1.8332 -2.321859,7.171473 -2.621208,9.817369 -0.09674,0.855097 -0.251964,1.671262 -0.344936,1.813732 -0.09297,0.14245 -1.517932,0.94668 -3.166578,1.78721 -2.839417,1.44761 -3.432714,2.01313 -2.113735,2.01478 1.391344,0.002 27.676619,4.36795 28.184147,4.68163 0.13108,0.0811 -0.313277,1.21532 -0.987475,2.52068 l -1.225808,2.37339 0.556614,0.70762 c 0.548959,0.69789 0.556612,0.90504 0.556612,15.06712 0,15.4188 -0.02889,15.07421 1.372967,16.37945 1.50681,1.40295 3.86866,1.52416 9.30908,0.47774 4.49519,-0.86463 4.37173,-0.82434 4.69108,-1.53121 0.21575,-0.47759 0.31542,-0.0995 0.51066,1.9368 0.13343,1.39161 0.20343,2.70998 0.15556,2.9297 -0.0479,0.21973 -0.96633,0.97462 -2.04101,1.67754 -1.88151,1.23061 -3.01734,2.21527 -2.78835,2.41722 0.0601,0.053 1.42772,0.47827 3.03904,0.94496 10.68428,3.09451 14.58509,5.04336 15.75464,7.87108 0.26594,0.643 0.51347,1.13914 0.55008,1.10256 0.0366,-0.0366 0.54304,-2.81506 1.12542,-6.17436 z m -22.39754,-38.8484 c -0.0495,-2.97783 0.0198,-3.87781 0.34572,-4.48671 0.19642,-0.36701 -0.0505,-0.97819 -1.0912,-2.70113 -0.73978,-1.22476 -1.34505,-2.34096 -1.34505,-2.48048 0,-0.13951 1.88766,-0.57284 4.19481,-0.96295 2.30714,-0.3901 9.10873,-1.53867 15.11463,-2.55238 l 10.91982,-1.84311 1.06536,0.69321 c 1.29263,0.84109 4.57997,3.41865 6.0249,4.72405 l 1.05445,0.95264 -2.12986,2.43515 -2.12986,2.43516 0.16464,1.218 c 0.0906,0.6699 0.17524,1.39355 0.18821,1.60811 0.0177,0.29307 -1.23538,0.67193 -5.03685,1.52286 -2.78322,0.623 -6.2294,1.32967 -7.65818,1.57038 -2.57029,0.43302 -2.62383,0.431 -5.06041,-0.19117 -2.93585,-0.74965 -5.19095,-0.75431 -10.78566,-0.0223 l -3.79532,0.49659 z m 5.63324,43.38347 c -6.3418,-1.56487 -6.53785,-1.63099 -7.59926,-2.5629 -0.88621,-0.77811 -1.04829,-0.81921 -3.29968,-0.83669 l -2.36767,-0.0184 -1.523422,1.39232 c -0.83788,0.76577 -1.478406,1.42365 -1.423391,1.46194 0.05501,0.0382 1.326646,0.33905 2.825853,0.66836 2.65205,0.58255 2.77435,0.58658 4.51937,0.14895 2.13152,-0.53458 5.5957,-0.39523 9.80038,0.39425 4.37562,0.82155 4.01937,0.57395 -0.93218,-0.64785 z M 83.086545,157.7163 c 0.903227,-0.38292 2.820854,-1.13435 4.261396,-1.66985 1.440541,-0.5355 2.664496,-1.01301 2.719896,-1.06115 0.05541,-0.0481 -0.183358,-0.66141 -0.530579,-1.36285 -0.530578,-1.07186 -0.627693,-1.65782 -0.60864,-3.67238 0.01247,-1.31837 0.227045,-3.64622 0.476839,-5.17299 0.800866,-4.89498 1.218558,-9.84397 1.401036,-16.60008 0.09793,-3.62551 0.106741,-6.59185 0.01958,-6.59185 -0.08716,0 -0.47017,0.11853 -0.851159,0.26338 -0.380989,0.14483 -4.553638,0.98543 -9.272555,1.86794 -4.718917,0.88254 -8.828729,1.71079 -9.132915,1.84058 -0.304186,0.12979 -1.431737,1.65628 -2.505666,3.39221 -1.073931,1.73591 -2.133758,3.36786 -2.355172,3.62654 -0.359711,0.42025 -0.358235,0.50533 0.01387,0.79901 0.229042,0.18078 2.017156,1.53904 3.973586,3.01835 l 3.557146,2.68968 0.900229,3.43608 c 1.082771,4.13283 4.257278,15.81625 4.426963,16.29294 0.09647,0.27103 0.295492,0.26498 0.992293,-0.0301 0.47939,-0.20305 1.610621,-0.68248 2.513846,-1.0654 z M 149.80881,75.477342 c 3.6996,-1.025214 6.65999,-3.165899 8.62396,-6.236054 2.43057,-3.799605 2.65712,-10.057517 0.53713,-14.836808 -0.66221,-1.492865 -2.55244,-4.552026 -2.71328,-4.391184 -0.0445,0.04449 0.23138,0.733341 0.61304,1.530805 0.8359,1.746616 1.09008,4.370121 0.62232,6.423443 -0.17889,0.785333 -0.81758,2.44016 -1.41929,3.677389 -1.66024,3.413795 -5.51128,7.176133 -9.90844,9.680202 l -1.33168,0.758361 1.03237,-0.170069 c 1.78277,-0.29369 5.58748,-1.474033 6.52521,-2.02434 1.43385,-0.841436 1.24892,-0.420616 -0.5177,1.178086 -2.10391,1.903926 -5.0904,3.450071 -8.2591,4.275846 -2.49643,0.650576 -2.50325,0.654633 -1.31099,0.778296 2.05,0.212628 5.47589,-0.08128 7.50645,-0.643973 z M 99.667156,66.025616 c -3.343973,-9.516638 -9.55359,-16.632081 -18.888682,-21.644068 -1.391611,-0.747154 -2.430979,-1.360125 -2.309707,-1.36216 0.540275,-0.0091 8.003383,2.267531 10.467213,3.192989 3.599644,1.352087 8.166306,3.707823 10.670152,5.50425 l 2.022168,1.450841 -1.09839,-1.311925 C 96.137523,46.609335 90.151304,43.580234 82.273192,42.617425 80.498942,42.400588 77.984156,42.089358 76.684779,41.925801 71.198357,41.235207 65.55675,38.923095 62.735702,36.209017 c -0.769912,-0.740718 -1.399841,-1.307353 -1.399841,-1.25919 0,0.294199 2.262702,4.454734 3.111436,5.721141 3.516131,5.246471 7.384917,8.547495 14.742481,12.578955 9.726181,5.329304 14.771147,8.844385 19.285479,13.437163 1.017346,1.035023 1.889003,1.842591 1.936993,1.794593 0.048,-0.04799 -0.28729,-1.153226 -0.745094,-2.456063 z M 77.182922,63.295233 C 69.979516,58.542138 65.617763,54.719855 63.055505,50.915121 c -0.506348,-0.751884 -0.920633,-1.283723 -0.920633,-1.181867 0,0.490916 2.709918,5.822463 3.543001,6.970574 1.246866,1.718362 3.781391,4.305702 5.112958,5.2195 1.724867,1.183706 4.844159,2.672972 8.123284,3.878362 1.684582,0.619245 3.242655,1.13899 3.462383,1.15499 0.219728,0.016 -2.117382,-1.63165 -5.193576,-3.661447 z M 111.4066,57.496545 c -0.60466,-6.002542 -2.78648,-11.954611 -5.88075,-16.042843 -0.57385,-0.75819 -1.04337,-1.437749 -1.04337,-1.510128 0,-0.252057 3.07446,1.437669 4.73684,2.603366 1.93962,1.360119 5.12317,4.374723 6.22248,5.892273 0.93071,1.28481 0.93493,1.227951 0.068,-0.916459 -1.57205,-3.888547 -3.07755,-6.378665 -5.23355,-8.656324 -2.77932,-2.936157 -4.81262,-4.446598 -8.05762,-5.985591 -5.860663,-2.779509 -11.11626,-3.70668 -19.842126,-3.500462 l -2.796541,0.0661 1.99753,0.878502 c 5.426476,2.386534 11.571476,6.01496 15.314388,9.042655 3.409009,2.7576 7.020969,6.689944 9.466779,10.306491 1.59064,2.352035 4.04812,7.243306 4.6519,9.258952 0.2721,0.908388 0.53815,1.608202 0.59121,1.55514 0.053,-0.05306 -0.0347,-1.399311 -0.19517,-2.991664 z m 11.45099,-9.902655 c -0.30642,-3.020091 -1.33584,-7.856096 -1.89451,-8.899944 -0.5431,-1.014803 2.41167,1.723953 4.08793,3.789069 0.89177,1.09864 1.96198,2.716639 2.37823,3.595552 0.92873,1.960985 0.95769,1.523822 0.10451,-1.577263 -0.78743,-2.862035 -1.5867,-4.896314 -2.62428,-6.67919 -3.55287,-6.10499 -8.72129,-10.269731 -15.51405,-12.501341 -3.5013,-1.150271 -6.10897,-1.484865 -11.273332,-1.446508 l -4.692597,0.03484 2.981358,0.34267 c 6.687521,0.768645 10.873841,2.244047 15.958331,5.624251 2.24587,1.493079 5.26208,4.071489 5.68314,4.858234 0.22864,0.427222 0.13823,0.427732 -1.53645,0.0086 -0.97867,-0.244898 -2.57487,-0.506306 -3.54711,-0.580906 l -1.76769,-0.13564 1.85391,1.748885 c 2.56234,2.417178 4.99591,5.766266 6.72935,9.26091 1.46246,2.948377 3.02895,7.251012 3.12758,8.590422 0.0287,0.389625 0.0969,-0.130553 0.15175,-1.155951 0.0547,-1.025397 -0.038,-3.219944 -0.20607,-4.876769 z"/></g></svg>