<?xml version="1.0" encoding="UTF-8" standalone="no"?>
<!-- Created with Inkscape (http://www.inkscape.org/) -->

<svg
   width="270.93332mm"
   height="270.93332mm"
   viewBox="0 0 270.93332 270.93332"
   version="1.1"
   id="svg1"
   xml:space="preserve"
   inkscape:version="1.3 (0e150ed6c4, 2023-07-21)"
   sodipodi:docname="defaultCharacter.svg"
   inkscape:export-filename="defaultCharacter.png"
   inkscape:export-xdpi="96"
   inkscape:export-ydpi="96"
   xmlns:inkscape="http://www.inkscape.org/namespaces/inkscape"
   xmlns:sodipodi="http://sodipodi.sourceforge.net/DTD/sodipodi-0.dtd"
   xmlns:xlink="http://www.w3.org/1999/xlink"
   xmlns="http://www.w3.org/2000/svg"
   xmlns:svg="http://www.w3.org/2000/svg"><sodipodi:namedview
     id="namedview1"
     pagecolor="#505050"
     bordercolor="#eeeeee"
     borderopacity="1"
     inkscape:showpageshadow="0"
     inkscape:pageopacity="0"
     inkscape:pagecheckerboard="0"
     inkscape:deskcolor="#505050"
     inkscape:document-units="mm"
     inkscape:zoom="0.73386633"
     inkscape:cx="560.72882"
     inkscape:cy="545.05839"
     inkscape:window-width="1450"
     inkscape:window-height="1250"
     inkscape:window-x="1224"
     inkscape:window-y="2006"
     inkscape:window-maximized="0"
     inkscape:current-layer="layer1" /><defs
     id="defs1"><linearGradient
       id="linearGradient1"
       inkscape:collect="always"><stop
         style="stop-color:#ff34e0;stop-opacity:1;"
         offset="0.2515696"
         id="stop1" /><stop
         style="stop-color:#00e4d2;stop-opacity:1;"
         offset="0.7478013"
         id="stop2" /></linearGradient><linearGradient
       inkscape:collect="always"
       xlink:href="#linearGradient1"
       id="linearGradient2"
       x1="-30.46666"
       y1="13.03334"
       x2="240.46666"
       y2="283.96664"
       gradientUnits="userSpaceOnUse" /></defs><g
     inkscape:label="Layer 1"
     inkscape:groupmode="layer"
     id="layer1"
     transform="translate(30.46666,-13.03334)"><rect
       style="fill:url(#linearGradient2);stroke-width:0.264583"
       id="rect1"
       width="270.93329"
       height="270.93329"
       x="-30.46666"
       y="13.03334" /><path
       style="display:inline;fill:#000000"
       d="m 58.901721,282.90241 c -17.55596,-3.79864 -36.215197,-9.89626 -50.2790015,-16.43058 -2.1050935,-0.97807 -2.3897893,-1.18925 -2.2488694,-1.66815 0.5051191,-1.71658 0.9136557,-4.32236 1.0607829,-6.76602 0.1644105,-2.73072 0.1534027,-2.80521 -0.6451004,-4.36562 -0.4468008,-0.87313 -1.5198791,-2.54 -2.3846183,-3.70417 -1.7503483,-2.35643 -3.1888063,-5.11602 -3.84706847,-7.38036 -0.84494241,-2.9065 -0.68297517,-6.97741 0.41487308,-10.42748 1.02621919,-3.22497 7.19692669,-18.46969 8.53508159,-21.0859 1.6866465,-3.29755 4.6150275,-6.40931 7.3390225,-7.79863 l 1.733642,-0.8842 -0.09419,-1.47942 c -0.07804,-1.22575 0.02024,-1.66089 0.573205,-2.53775 0.568363,-0.9013 0.668621,-0.96844 0.675654,-0.45248 0.01344,0.98616 1.025243,2.68407 1.925834,3.23175 0.460845,0.28026 1.939211,0.76044 3.28526,1.06708 2.581219,0.58803 3.552943,1.13967 4.195157,2.38158 0.590572,1.14204 0.4973,1.41165 -0.814173,2.35348 -1.648211,1.18366 -2.194196,1.8162 -2.488879,2.88345 -0.547795,1.98395 0.917978,3.54036 3.653502,3.87942 1.982885,0.24577 3.005245,0.69871 3.448376,1.52775 0.524273,0.98085 0.196424,1.78212 -1.161634,2.83904 -0.654166,0.50912 -1.367509,1.30102 -1.585207,1.75978 -1.248996,2.63207 0.622921,5.87798 3.947138,6.84435 2.568379,0.74665 2.922272,2.02985 1.059786,3.84273 -2.088544,2.03291 -2.450193,3.41595 -1.387611,5.30656 0.56777,1.01021 1.475352,1.52092 3.454501,1.94389 1.654081,0.35351 3.771373,3.27178 2.813871,3.87837 -0.198893,0.12601 -0.553926,0.23092 -0.788963,0.23315 -0.235036,0.002 -0.741052,0.25082 -1.124479,0.55242 -0.564163,0.44377 -0.69714,0.77013 -0.69714,1.71097 0,1.64935 1.108483,2.68756 4.13797,3.87561 1.289377,0.50565 2.385954,0.88793 2.436837,0.84952 0.288531,-0.21783 -0.661237,-2.06969 -1.504361,-2.93321 l -0.984734,-1.00855 1.462873,-0.55829 1.462873,-0.55829 -1.124479,-0.19257 c -1.154232,-0.19767 -1.326415,-0.36745 -0.852864,-0.84101 0.149388,-0.14938 0.3417,-0.86338 0.427361,-1.58664 0.298491,-2.5203 -1.220703,-4.83878 -4.139942,-6.31807 -1.397712,-0.70827 -1.490502,-1.10957 -0.418912,-1.8117 0.806507,-0.52845 3.216322,-1.22352 4.370921,-1.26073 l 0.944165,-0.0304 -1.058333,-0.21891 c -0.582083,-0.1204 -1.772708,-0.22939 -2.645833,-0.2422 -1.263264,-0.0185 -1.487868,-0.0812 -1.099688,-0.30685 0.555605,-0.32297 1.23198,-1.77842 1.23198,-2.65103 0,-1.56934 -2.221709,-4.19307 -3.550588,-4.19307 -0.212813,0 -0.455359,-0.11072 -0.538992,-0.24604 -0.08573,-0.13871 0.778507,-0.32721 1.981206,-0.43212 l 2.133266,-0.18609 -1.930675,-0.88591 -1.930675,-0.88591 1.455208,-0.002 c 0.800364,-9.6e-4 2.110052,0.18345 2.910416,0.40979 2.533833,0.71657 2.563382,0.71923 1.719792,0.15506 -1.318628,-0.88185 -3.875288,-1.5959 -6.022674,-1.68208 l -2.029017,-0.0814 0.792033,-0.62023 c 1.628347,-1.27513 2.238417,-3.51689 1.460496,-5.36673 -0.376542,-0.89539 -1.529069,-2.13748 -2.270629,-2.44709 -0.218282,-0.0911 0.06765,-0.0972 0.635399,-0.0135 1.554143,0.22914 5.20699,1.61806 6.948753,2.64212 l 1.543972,0.90777 -1.190625,-1.09098 c -2.24517,-2.05725 -4.908757,-3.31886 -8.627634,-4.08647 -2.990818,-0.61733 -2.925115,-0.57487 -1.928631,-1.2464 2.793868,-1.88279 2.81453,-5.13576 0.04832,-7.60817 -0.696309,-0.62235 -1.087422,-1.06615 -0.869141,-0.98621 3.810919,1.39558 7.094869,3.11967 9.128125,4.7923 l 1.322917,1.08828 -0.68825,-0.91985 c -2.002432,-2.67624 -6.608295,-5.36078 -11.835058,-6.8981 l -2.998309,-0.88188 0.157338,-0.78669 c 0.209327,-1.04664 1.384938,-3.5899 1.949034,-4.21646 0.688111,-0.7643 1.513295,-0.98388 2.491283,-0.66292 0.478388,0.157 2.559262,1.40787 4.624165,2.77971 l 3.754369,2.49427 3.257089,0.62228 c 1.791399,0.34225 3.716877,0.70198 4.278842,0.79938 0.947756,0.16428 1.011112,0.23031 0.874822,0.91176 -0.08081,0.40406 -0.293691,3.01574 -0.473064,5.80374 -0.257141,3.99673 -0.258829,7.76962 -0.008,17.83478 0.47089,18.89412 0.843186,22.56579 2.766418,27.28311 2.481941,6.08773 6.879117,9.69719 14.500392,11.90278 1.220857,0.35331 5.434427,1.3205 9.363489,2.1493 12.539699,2.64515 18.0448,4.20896 28.784231,8.1766 1.42476,0.52637 2.8216,0.95704 3.10409,0.95704 0.28248,0 2.15286,-0.603 4.15639,-1.34001 7.81692,-2.87548 13.62034,-4.52956 24.148,-6.88264 14.54627,-3.25129 16.79236,-3.92949 20.03426,-6.04923 5.15208,-3.36873 7.96111,-8.54351 9.05677,-16.68437 0.96233,-7.15026 1.44578,-32.08984 0.77587,-40.02525 -0.16924,-2.00478 -0.26068,-3.69208 -0.2032,-3.74956 0.0575,-0.0575 1.9494,-0.48367 4.20426,-0.94707 4.5431,-0.93367 4.55777,-0.93923 6.61328,-2.50582 2.12358,-1.61846 4.87029,-3.29968 5.84988,-3.58062 1.02399,-0.29368 2.22736,0.32855 2.92357,1.51169 0.50644,0.86064 1.54497,3.51549 1.54517,3.94997 7e-5,0.16169 -0.98213,0.5711 -2.18268,0.90982 -6.05556,1.70848 -9.57539,3.67456 -12.29427,6.86722 l -1.00104,1.17548 1.71979,-1.24723 c 0.94589,-0.68598 2.46864,-1.66544 3.38389,-2.17659 1.96159,-1.09549 5.8439,-2.63619 6.07086,-2.40923 0.0872,0.0871 -0.0431,0.15844 -0.28949,0.15844 -0.67962,0 -2.70407,2.1687 -3.07576,3.29492 -0.6276,1.90166 0.004,3.54098 1.89099,4.90789 1.1982,0.86797 1.20541,0.86105 -1.36591,1.31263 -3.8294,0.67253 -7.16569,2.21847 -9.01464,4.17712 -0.6445,0.68273 -0.93369,1.04974 -0.64265,0.81556 0.96581,-0.77711 3.68326,-2.00896 5.97129,-2.70685 2.80753,-0.85635 2.97771,-0.85446 1.86694,0.0207 -0.98971,0.77981 -1.87035,2.46607 -1.87929,3.59848 -0.009,1.13842 0.66618,2.48662 1.73618,3.46687 l 0.97372,0.89205 -2.61463,0.10962 c -2.31308,0.097 -2.8212,0.21197 -4.40577,0.9971 -0.98513,0.48812 -1.75733,0.92131 -1.71599,0.96265 0.0413,0.0413 0.90431,-0.15475 1.91772,-0.43576 1.0134,-0.28101 2.5595,-0.50631 3.43577,-0.50066 l 1.59323,0.0103 -1.85208,0.88062 -1.85209,0.88063 1.91303,0.20112 c 1.94934,0.20494 2.27554,0.47345 0.90755,0.74705 -1.80344,0.36069 -3.47935,2.90589 -3.11452,4.73003 0.0941,0.47039 0.48887,1.18699 0.87731,1.59243 l 0.70626,0.73718 -1.96773,0.0186 c -2.88823,0.0273 -3.3121,0.33112 -1.01215,0.72552 1.93066,0.33107 3.49973,1.0643 3.76678,1.76024 0.0998,0.25995 -0.44641,0.69491 -1.75932,1.40109 -1.32078,0.71042 -2.14722,1.3702 -2.69809,2.154 -0.71818,1.02183 -0.79412,1.32746 -0.79412,3.19598 0,1.62705 0.10238,2.17922 0.48178,2.59845 0.4745,0.52432 0.46816,0.53109 -0.41993,0.44855 -1.49471,-0.13892 -1.67441,0.26558 -0.34375,0.77377 1.4994,0.57262 1.68838,0.85971 0.82487,1.25315 -0.54982,0.25052 -1.99818,2.59239 -1.99818,3.2309 0,0.21327 4.01943,-1.47001 5.08186,-2.12822 1.17781,-0.72969 1.53273,-1.32766 1.53273,-2.58235 0,-1.11312 -0.71203,-1.94573 -1.86035,-2.1754 -0.94534,-0.18907 -1.01054,-0.72921 -0.26454,-2.19149 0.61876,-1.21287 1.85433,-2.04096 3.41843,-2.29108 1.48891,-0.23808 2.59099,-1.19219 2.95999,-2.56255 0.42857,-1.59161 -0.0483,-2.90584 -1.63223,-4.49811 -0.71411,-0.71787 -1.29839,-1.50392 -1.29839,-1.74676 0,-0.85613 0.80478,-1.58328 2.20177,-1.9894 1.96112,-0.57011 3.12328,-1.42107 3.8175,-2.79528 1.12532,-2.22754 0.69322,-4.00438 -1.38868,-5.71033 -1.39473,-1.14288 -1.65892,-1.86819 -1.08484,-2.97833 0.44567,-0.86183 1.14062,-1.16812 3.66508,-1.61532 1.92014,-0.34015 2.47328,-0.63877 2.97289,-1.60492 0.87476,-1.6916 0.37295,-3.01644 -1.75789,-4.64105 -1.83398,-1.39828 -2.01732,-2.35483 -0.70322,-3.66893 0.72515,-0.72515 1.30626,-0.97685 3.33237,-1.44335 3.89235,-0.89619 4.80142,-1.60712 5.07725,-3.97057 l 0.13965,-1.19665 0.78407,1.17378 c 0.64012,0.95827 0.78156,1.44217 0.77042,2.63567 l -0.0136,1.4619 1.79675,1.02447 c 3.46745,1.97705 6.13381,5.21052 8.17103,9.90891 2.26493,5.22354 7.16334,17.86028 7.66363,19.77034 0.64377,2.45784 0.72658,6.92009 0.16739,9.02038 -0.62985,2.36572 -2.06571,5.13434 -4.2275,8.15148 -1.14717,1.60107 -2.26429,3.43054 -2.48248,4.06549 -0.54836,1.59575 -0.30515,6.63694 0.4413,9.14696 0.3001,1.00911 0.51799,1.84882 0.48421,1.86602 -0.0338,0.0172 -0.35909,0.21559 -0.72289,0.44088 -0.91154,0.5645 -7.81728,3.66089 -10.71563,4.80468 -13.74463,5.4241 -27.30231,9.52059 -40.9494,12.37299 l -4.96608,1.03797 -41.4683,-0.0313 -41.468294,-0.0313 z M 103.54729,270.2525 c -1.05135,-0.4866 -1.48781,-0.82859 -1.40686,-1.10234 0.84149,-2.84568 0.96058,-3.59406 0.96836,-6.08541 0.0125,-4.01411 -1.37186,-8.6774 -3.352648,-11.29329 -0.350766,-0.46323 -0.637756,-0.90412 -0.637756,-0.97976 0,-0.0756 0.684609,0.32194 1.521354,0.8835 1.50758,1.01176 3.74671,3.16249 4.20601,4.03993 0.20273,0.3873 0.45015,0.21024 1.65068,-1.18129 1.43691,-1.66552 2.79189,-2.80951 4.62144,-3.90179 l 1.01928,-0.60853 -0.9225,1.29509 c -1.3428,1.88515 -2.48381,4.28829 -3.15264,6.6399 -0.8361,2.93972 -0.84979,8.04984 -0.027,10.08134 l 0.56832,1.40323 -0.70757,0.26388 c -0.38916,0.14514 -1.15771,0.49595 -1.7079,0.77959 -0.55018,0.28363 -1.02643,0.50573 -1.05833,0.49355 -0.0319,-0.0122 -0.7439,-0.3396 -1.58222,-0.7276 z m 11.97526,-3.62767 c 0,-0.18581 4.44989,-2.2699 7.12813,-3.33844 3.62262,-1.44532 6.44486,-2.35777 14.59293,-4.71797 4.45226,-1.28966 8.8804,-2.71591 9.8403,-3.16945 3.43591,-1.62338 5.51028,-4.18035 6.58415,-8.11591 0.55633,-2.03886 0.56738,-2.47169 0.59143,-23.1639 l 0.0245,-21.08621 1.7158,-1.32799 c 0.94369,-0.73039 1.79613,-1.24285 1.89431,-1.13879 0.0982,0.10407 0.30834,1.63844 0.46701,3.40974 0.36536,4.07852 0.38474,35.18414 0.0243,38.98051 -0.54866,5.77862 -2.3777,9.78394 -5.7275,12.54236 -3.13122,2.57843 -5.80407,3.53551 -16.67137,5.96956 -7.79047,1.7449 -18.19963,4.36036 -19.4718,4.89258 -0.5457,0.2283 -0.99219,0.34706 -0.99219,0.26391 z m -23.28333,-0.82376 c -2.674272,-0.87744 -8.999757,-2.45146 -15.742708,-3.91738 -14.346875,-3.11902 -16.277952,-3.83046 -19.743136,-7.27366 -2.862736,-2.84457 -4.52727,-6.85801 -4.94295,-11.9182 -0.443395,-5.39756 -0.155433,-41.78938 0.334549,-42.27936 0.218562,-0.21856 2.751963,1.55492 3.598552,2.51914 l 0.825177,0.93982 1.619726,-0.45032 c 4.058958,-1.12849 9.947013,-3.70237 12.568492,-5.49414 1.793961,-1.22616 4.017049,-3.56321 5.030715,-5.28859 2.491977,-4.24165 3.86401,-11.50522 4.194138,-22.20384 l 0.168171,-5.45 -1.528171,-1.80139 c -4.729902,-5.57557 -7.515383,-12.38613 -8.589525,-21.00157 -0.302056,-2.42272 -0.361651,-2.51008 -2.465425,-3.61412 l -1.256771,-0.65954 v 1.31383 c 0,1.86675 0.711279,7.05215 1.333217,9.71947 0.29062,1.24639 1.110696,4.12759 1.822391,6.40266 0.711695,2.27507 1.471386,5.02947 1.688202,6.12087 0.514281,2.58879 0.825402,6.8936 0.458932,6.35 -0.147156,-0.21828 -0.269379,-0.64391 -0.271607,-0.94584 -0.0063,-0.85791 -1.08962,-3.84146 -3.280953,-9.03628 -1.107901,-2.62642 -2.548705,-6.36621 -3.201785,-8.31065 -2.299695,-6.84698 -1.080182,-0.90783 1.990478,9.69381 0.716527,2.47386 1.504802,5.50995 1.751721,6.74688 0.603253,3.02195 0.600888,8.27185 -0.0048,10.58333 -0.498769,1.90355 -2.357395,5.86044 -3.005356,6.3982 -0.299469,0.24853 -0.256756,0.0345 0.153632,-0.76995 1.046238,-2.0508 1.361402,-3.91138 1.332534,-7.86665 -0.0263,-3.60305 -0.03708,-3.67098 -0.35859,-2.25951 -1.088445,4.77833 -3.44758,8.42037 -6.591122,10.17538 -2.571514,1.43566 -2.63417,1.36496 -0.61504,-0.69394 3.171019,-3.23349 4.609975,-6.70192 4.868766,-11.73559 0.221371,-4.30583 -0.146339,-5.88208 -3.856447,-16.53127 -1.802944,-5.17502 -2.402028,-8.22997 -2.594281,-13.22917 -0.320582,-8.33702 0.762445,-14.46292 6.268145,-35.45416 3.524471,-13.437536 7.718832,-23.892257 11.729463,-29.236463 l 0.79424,-1.058333 -1.265159,1.190625 c -2.534712,2.385383 -5.696055,6.90431 -7.953413,11.368864 -0.996996,1.971838 -2.831879,7.664825 -3.712187,11.517593 -0.398995,1.746254 -2.305469,9.488104 -4.236607,17.204104 -2.296745,9.17681 -3.657416,15.15638 -3.934017,17.28834 -0.893017,6.88307 -0.296145,16.07199 1.295579,19.94558 0.104645,0.25466 0.110246,0.46302 0.01245,0.46302 -0.295603,0 -1.948545,-3.78457 -2.915571,-6.67549 -1.237297,-3.69888 -1.724356,-6.9786 -1.719818,-11.58076 0.006,-6.05 1.133628,-12.4029 2.972953,-16.7487 l 0.537762,-1.27058 -0.799143,-0.84609 c -2.653931,-2.80984 -3.623394,-5.37047 -3.460055,-9.13899 0.07956,-1.83567 0.266187,-2.90026 0.662868,-3.78128 0.523641,-1.16299 0.53201,-1.31315 0.16221,-2.91041 -0.358823,-1.549865 -0.311374,-3.822585 0.102314,-4.90064 0.08483,-0.221074 -0.05474,-0.355396 -0.369295,-0.355396 -0.636205,0 -2.631905,-1.273992 -3.570878,-2.279537 -0.391955,-0.419744 -1.006507,-1.418014 -1.365671,-2.218379 -1.668293,-3.717642 -0.895401,-7.78473 2.008529,-10.569226 l 1.315059,-1.260973 -0.711184,-1.126588 c -0.391153,-0.619624 -0.886589,-1.619001 -1.10097,-2.220838 -0.479766,-1.346858 -0.54877,-4.419563 -0.132459,-5.898377 0.702746,-2.496291 3.033453,-4.920955 5.609866,-5.836016 0.91338,-0.324404 1.271499,-0.580586 1.172445,-0.838716 -0.338907,-0.883178 -0.646685,-4.118294 -0.488743,-5.137272 0.390932,-2.52213 2.448161,-5.672938 4.567756,-6.995878 1.164079,-0.726557 3.21172,-1.354535 4.73191,-1.451199 0.973163,-0.06188 1.154617,-0.166803 1.2688,-0.733665 0.833997,-4.140351 2.845749,-6.895033 6.136899,-8.403228 1.866662,-0.855412 5.025659,-1.084249 7.131,-0.516569 l 1.384763,0.373384 0.526876,-1.084605 c 0.89524,-1.842902 2.792099,-3.765964 4.585517,-4.648859 3.286432,-1.617904 6.483359,-1.666832 9.590238,-0.146778 0.751301,0.367577 1.443742,0.668323 1.538757,0.668323 0.09501,0 0.618267,-0.493129 1.162781,-1.095841 1.978117,-2.189538 4.270484,-3.128751 7.650124,-3.134352 3.28923,-0.0055 6.52888,1.40734 8.17449,3.564846 l 0.69229,0.907649 0.96928,-0.593544 c 2.54696,-1.55964 5.04498,-1.88237 7.88208,-1.01832 3.12363,0.951315 5.23811,2.689975 6.69786,5.507416 l 0.5674,1.095147 1.22125,-0.367543 c 2.81667,-0.847693 6.73815,-0.152333 9.14123,1.620932 2.12296,1.566563 3.74217,4.178628 4.06915,6.564256 0.17616,1.285211 0.46955,1.490731 2.1382,1.497823 2.58566,0.01099 6.17229,2.58548 7.62485,5.473141 0.70171,1.394966 0.77611,1.794109 0.78061,4.187763 0.003,1.455209 -0.0883,3.007835 -0.20229,3.450282 -0.20208,0.784225 -0.17214,0.81706 1.19062,1.306091 1.91752,0.688106 3.91059,2.618384 4.83851,4.686061 1.3717,3.056554 1.12873,6.29116 -0.67738,9.017891 l -0.82931,1.252029 1.35227,1.388614 c 1.81839,1.867268 2.7055,3.718111 2.86753,5.982753 0.26347,3.682296 -1.47697,6.843584 -4.60831,8.370444 l -1.62786,0.79375 0.1286,1.984375 c 0.0882,1.361219 0.002,2.391768 -0.2758,3.281669 -0.39022,1.2518 -0.38104,1.3528 0.26174,2.87999 1.71787,4.08146 0.74321,8.80422 -2.53949,12.30526 l -1.06582,1.13671 0.90279,2.69975 c 1.94022,5.80215 2.5325,9.37852 2.55034,15.39975 0.0145,4.90276 -0.39955,7.71089 -1.71667,11.64167 -0.80755,2.41002 -2.76734,6.86117 -2.94338,6.68512 -0.0401,-0.0401 0.2105,-1.05125 0.55685,-2.24704 0.99985,-3.45205 1.25991,-6.25599 1.11021,-11.97016 -0.16985,-6.4832 -0.52799,-8.52222 -3.62632,-20.64605 -1.32021,-5.16599 -3.12086,-12.4288 -4.00144,-16.13958 -0.88059,-3.710787 -2.07018,-8.162848 -2.64353,-9.893474 -2.08801,-6.302461 -5.56558,-12.28172 -9.48036,-16.300281 -1.23695,-1.269749 -1.85825,-1.788153 -1.42693,-1.190624 4.58854,6.356778 8.99199,17.830867 13.58338,35.394269 4.09158,15.6515 4.87155,20.12033 4.81307,27.57657 -0.0558,7.11491 -0.52468,9.24919 -4.64291,21.13419 -1.70545,4.92184 -2.16829,7.56791 -1.95747,11.19087 0.30331,5.21234 2.59308,9.99606 5.90063,12.32744 0.63964,0.45086 1.10761,0.87513 1.03992,0.94282 -0.0677,0.0677 -0.88696,-0.25299 -1.82059,-0.71261 -3.25295,-1.60143 -6.18178,-5.57954 -7.30424,-9.92106 l -0.48832,-1.88874 -0.0207,3.04271 c -0.0264,3.88778 0.32346,6.08165 1.28697,8.06979 0.73513,1.5169 0.74033,1.5522 0.11686,0.79375 -0.94152,-1.14537 -2.41256,-4.24222 -2.89065,-6.08542 -0.60547,-2.33432 -0.78833,-6.58219 -0.40432,-9.39227 0.36937,-2.70291 0.93028,-4.95745 2.88821,-11.60912 1.20295,-4.08676 2.17563,-8.43428 2.13842,-9.55798 -0.007,-0.21828 -0.52917,1.09141 -1.15989,2.91042 -0.63071,1.81901 -2.10116,5.45194 -3.26767,8.07317 -2.41253,5.42117 -2.96012,7.10179 -3.23009,9.91358 -0.18786,1.95664 -0.19151,1.93935 -0.22228,-1.05342 -0.0351,-3.41316 0.40999,-5.8655 1.95609,-10.77774 2.01415,-6.39935 2.6328,-9.42259 3.16812,-15.48216 0.0868,-0.98226 0.0828,-1.78593 -0.009,-1.78593 -0.57582,0 -3.60327,2.09067 -3.83136,2.64583 -0.37825,0.92061 -0.1172,-2.22655 0.43497,-5.24394 0.60811,-3.32309 0.61224,-11.06361 0.008,-14.26562 -0.57712,-3.05633 -1.3961,-5.76006 -2.08811,-6.89357 -0.68247,-1.11788 -3.58306,-2.60352 -6.13432,-3.14193 -2.36254,-0.49857 -4.01092,-0.33625 -8.49585,0.83661 -7.03455,1.83961 -10.93896,2.41183 -11.63087,1.7046 -0.52997,-0.5417 0.10029,-1.93429 1.16977,-2.58468 0.44749,-0.27214 2.89126,-1.00629 5.43059,-1.63146 2.53934,-0.62516 4.55416,-1.23829 4.4774,-1.3625 -0.0768,-0.12421 -0.29002,-0.22584 -0.4739,-0.22584 -0.18387,0 -1.39724,-0.51776 -2.69636,-1.15058 -3.73109,-1.81746 -7.22599,-4.85061 -10.7163,-9.300467 -1.65613,-2.111428 -4.74212,-6.471613 -6.04636,-8.542872 -0.48455,-0.769518 -0.92163,-1.358501 -0.97127,-1.308851 -0.15904,0.159032 1.63731,4.756723 2.66032,6.809015 0.54403,1.091406 1.54297,2.817812 2.21987,3.836458 1.61513,2.430587 5.35621,6.200687 7.17256,7.228207 1.15389,0.65275 1.34824,0.85302 0.96902,0.99854 -0.72524,0.2783 -5.38955,-0.073 -7.17489,-0.54037 -2.47784,-0.64867 -5.91037,-2.45796 -7.511794,-3.95947 l -1.435206,-1.34565 1.000523,1.91818 c 0.550287,1.055 1.491797,2.47824 2.092247,3.16276 1.193,1.36001 1.07315,1.32824 -1.293278,-0.34281 -3.256416,-2.29952 -6.578897,-6.460685 -8.19536,-10.264075 -0.410537,-0.965957 -0.785876,-1.716841 -0.834087,-1.668631 -0.161865,0.161866 0.925833,3.736377 1.723786,5.664885 0.434638,1.05045 1.164549,2.479201 1.622022,3.175011 0.734004,1.11639 0.58113,1.00716 -1.300615,-0.92936 -1.941416,-1.997921 -2.307152,-2.55476 -4.083827,-6.217708 -1.073293,-2.212793 -2.15597,-4.587575 -2.405949,-5.277293 -0.24998,-0.689719 -0.539448,-1.306531 -0.643264,-1.370692 -0.103815,-0.06416 -0.217441,0.609716 -0.252502,1.497505 -0.165118,4.181061 -2.684124,12.264238 -5.109977,16.397278 l -0.731996,1.24713 0.847349,0.12299 c 5.855889,0.84993 12.450315,2.41331 14.612795,3.46434 0.984915,0.4787 1.677911,1.11229 2.670723,2.44179 3.65306,4.89192 3.98827,6.90154 3.43702,20.60554 l -0.23514,5.84559 0.9656,1.0688 c 0.53108,0.58785 1.32151,1.21623 1.7565,1.39641 0.43499,0.18018 0.79089,0.48801 0.79089,0.68407 0,0.20816 0.16512,0.29311 0.39688,0.20417 0.41434,-0.159 0.49608,0.0926 0.39864,1.22724 -0.0937,1.09071 -0.72127,2.02368 -1.57679,2.34398 -0.44343,0.16602 -1.1592,0.43361 -1.5906,0.59465 -0.72435,0.27039 -5.208874,4.65007 -4.98778,4.87116 0.05388,0.0539 0.620688,-0.0195 1.259578,-0.16304 1.30816,-0.29392 2.231572,-0.15426 4.034502,0.61021 0.98109,0.41599 1.25875,0.67374 1.32291,1.228 l 0.0812,0.7015 3.83646,0.19421 c 2.11005,0.10681 4.25318,0.24259 4.7625,0.30172 0.50932,0.0591 1.61484,0.12057 2.45671,0.13652 1.42261,0.027 1.5115,0.0648 1.25929,0.53607 -0.61362,1.14655 -6.76739,2.16886 -12.77767,2.12272 -3.622395,-0.0278 -5.231269,0.21751 -6.160044,0.93925 -0.508093,0.39484 -0.498574,0.42423 0.384496,1.18722 0.498018,0.4303 1.748174,1.22839 2.778128,1.77354 1.7374,0.91959 2.0637,0.99825 4.51847,1.08916 1.4552,0.0539 3.16771,-0.0219 3.80557,-0.16841 l 1.15974,-0.26639 -1.15974,1.18271 c -0.63786,0.65049 -1.81458,1.50346 -2.61495,1.8955 -1.32611,0.64956 -1.80729,0.7253 -5.42396,0.8538 -4.171617,0.14821 -4.731491,0.29495 -5.668018,1.48555 -0.739325,0.9399 -0.692226,1.7819 0.205297,3.67016 2.440379,5.13422 7.804761,7.43419 14.186381,6.08239 4.27315,-0.90517 9.2852,-4.16158 16.21442,-10.53478 1.05563,-0.97093 1.97986,-1.76532 2.05384,-1.76532 0.20502,0 -1.13276,2.06178 -2.47141,3.80893 -2.46893,3.22234 -4.76419,5.43057 -13.63858,13.12144 -2.15905,1.87111 -3.05777,2.80297 -2.75883,2.86054 0.68392,0.13171 6.17376,-0.91035 8.78979,-1.66845 1.28879,-0.37347 3.18373,-1.0367 4.21098,-1.47383 2.1301,-0.90644 5.75387,-3.24412 6.90532,-4.4546 0.42741,-0.44932 0.86037,-0.81694 0.96215,-0.81694 0.10177,0 0.2659,0.56554 0.36474,1.25677 0.0988,0.69122 0.48823,2.78945 0.86533,4.66273 0.8014,3.98099 0.8069,3.96066 -1.57232,5.80813 -4.93647,3.83319 -13.2948,6.42879 -22.87911,7.10489 l -4.54877,0.32088 -1.13977,2.52528 c -1.419214,3.14441 -3.51813,6.51458 -5.37309,8.62741 -5.256078,5.98675 -13.803554,8.55612 -28.575011,8.58962 -3.39268,0.008 -7.122718,0.32967 -9.34809,0.80693 l -1.367534,0.29329 v 13.88261 c 0,15.2796 0.06806,16.08543 1.630433,19.30356 0.435511,0.89705 1.391898,2.20908 2.155852,2.95752 2.338525,2.29105 4.110039,2.98295 16.454339,6.42654 5.419811,1.51192 10.185653,3.19639 14.175768,5.01039 5.003761,2.27483 5.409108,2.58776 1.831523,1.41393 z M 87.533779,145.39132 c 2.586957,-4.36123 5.263579,-10.41609 6.306659,-14.26645 0.706606,-2.60833 0.978568,-6.64205 0.522119,-7.74401 -0.20046,-0.48395 -1.169529,-1.41644 -2.478821,-2.38524 -1.844066,-1.36451 -2.174246,-1.52428 -2.322401,-1.12378 -0.09499,0.25678 -0.655278,0.90285 -1.245084,1.4357 l -1.072376,0.96883 0.976318,0.0812 0.976318,0.0812 -1.322916,0.47537 c -0.727604,0.26145 -2.692135,0.59459 -4.365625,0.74031 -4.647292,0.40467 -5.796974,0.69192 -6.805407,1.70036 -0.783244,0.78324 -0.867509,1.01837 -0.867509,2.42063 0,2.20057 0.834728,4.94064 2.549666,8.3695 1.604862,3.20878 4.842797,8.12356 6.478351,9.83333 0.561245,0.58671 1.021728,1.15605 1.023297,1.26519 0.0086,0.59831 0.564851,-0.0271 1.647411,-1.85208 z M 120.17835,97.346925 c -1.01238,-1.185011 -2.50102,-3.506158 -5.28829,-8.245715 l -0.4668,-0.79375 0.61579,0.776686 c 1.12757,1.422186 4.1145,4.767569 5.06949,5.677858 l 0.9424,0.898294 -1.66157,-3.833033 c -0.91386,-2.108168 -1.83032,-4.071087 -2.03658,-4.362043 -0.53788,-0.758729 -3.68232,-4.157762 -3.68232,-3.980463 0,0.08174 0.24111,0.711126 0.53581,1.39863 0.2947,0.687505 0.49249,1.293342 0.43952,1.346306 -0.0979,0.09793 -1.62955,-1.658956 -3.4111,-3.912789 -1.42624,-1.804327 -4.09457,-4.613879 -5.25436,-5.532451 l -1.00192,-0.793533 1.40516,3.644727 c 3.36411,8.725876 6.23846,13.416823 10.06501,16.426138 1.21538,0.95581 4.19962,2.653919 4.71681,2.683988 0.1204,0.007 -0.32378,-0.622483 -0.98705,-1.39885 z m 25.12103,-8.729427 c -0.80891,-5.057971 -1.63968,-8.337359 -2.95968,-11.683101 -3.60816,-9.145449 -9.72642,-16.294096 -16.85884,-19.698091 -12.61909,-6.022535 -32.193303,-5.387579 -43.952621,1.425752 -2.49301,1.444446 -7.49765,6.424636 -9.485811,9.439467 -4.302972,6.524994 -6.629216,12.67215 -7.692493,20.3276 -0.511964,3.686069 -0.510872,4.936104 0.0024,2.788751 2.854101,-11.93976 9.394075,-21.174724 19.318838,-27.279735 1.796098,-1.104832 1.23891,-1.050935 -2.026562,0.19603 -1.200533,0.458441 -2.969053,1.357135 -3.930044,1.997099 l -1.747257,1.163571 2.029696,-1.956715 c 2.275003,-2.193201 5.671785,-4.579124 7.953455,-5.586562 5.235714,-2.311752 12.939991,-3.875341 19.121009,-3.880624 4.4631,-0.0038 7.66259,0.395336 11.90625,1.485359 6.57721,1.689413 10.31704,3.732764 14.68028,8.020925 2.22214,2.183905 2.44464,2.461933 1.10529,1.381119 -1.92655,-1.554666 -3.91401,-2.607727 -6.44818,-3.416589 -2.51284,-0.802054 -2.71202,-0.701792 -0.76199,0.38356 6.5354,3.637486 12.86434,10.554497 16.44001,17.967597 1.44282,2.991268 3.29051,8.29925 3.57316,10.264792 0.10036,0.697946 0.23829,1.213182 0.3065,1.144969 0.0682,-0.06821 -0.18983,-2.086541 -0.57344,-4.485174 z m -16.03912,0.99548 c -0.60063,-1.443166 -1.38898,-3.160732 -1.7519,-3.816812 -0.62858,-1.136356 -0.57085,-1.098855 1.21852,0.791502 2.15023,2.271591 2.1094,2.448925 0.63958,-2.778125 -1.2182,-4.332192 -2.50598,-6.904874 -5.03269,-10.054166 -1.90843,-2.37867 -6.39202,-7.011458 -6.78565,-7.011458 -0.0857,0 0.3617,0.744141 0.99415,1.653646 2.3032,3.312163 5.02468,9.232506 5.5643,12.104687 0.15006,0.798741 -0.0222,0.625643 -1.25292,-1.259187 -1.53273,-2.347302 -1.97221,-2.887475 -1.66631,-2.048105 0.2104,0.577327 1.21438,5.322747 1.21438,5.7399 0,0.539763 -3.43001,-2.52509 -4.94601,-4.419459 -0.80619,-1.007409 -0.77433,-0.87982 0.69438,2.780601 1.81509,4.523669 2.96627,6.566954 4.63728,8.230868 1.20341,1.19831 3.23987,2.369596 4.74213,2.727487 0.76208,0.181553 0.76205,0.181436 -0.35731,-1.088912 -0.61572,-0.698767 -1.29904,-1.627673 -1.51851,-2.064235 -0.34553,-0.687328 -0.20894,-0.614075 1.01877,0.546353 2.27247,2.147923 3.50237,3.121822 3.59428,2.846112 0.0471,-0.141217 -0.40584,-1.437531 -1.00647,-2.880697 z M 58.112717,88.638189 c 0.0026,-1.637109 0.179068,-4.107656 0.392129,-5.490104 0.544421,-3.532482 0.658431,-3.256941 -1.25677,-3.037384 -4.272251,0.489767 -5.677571,2.267878 -5.437297,6.879656 0.182888,3.51032 1.226658,4.576352 4.511255,4.607473 l 1.785937,0.01692 z m 98.336243,2.295146 c 1.22801,-0.900789 1.67137,-2.092976 1.66528,-4.477958 -0.011,-4.306396 -1.8297,-6.217708 -5.91649,-6.217708 -1.41468,0 -1.48839,0.03225 -1.36079,0.595312 0.44104,1.946236 0.66517,4.44531 0.66692,7.436348 l 0.002,3.401453 2.09881,-0.09531 c 1.59958,-0.07264 2.27612,-0.22538 2.84427,-0.642135 z m -23.4781,-10.567181 c -1.2015,-4.38119 -2.8605,-6.784253 -7.39654,-10.713892 -0.87181,-0.75526 -1.5851,-1.308695 -1.5851,-1.229854 0,0.07884 0.22921,0.537106 0.50936,1.018367 0.28016,0.48126 0.9368,1.949616 1.4592,3.263012 0.56889,1.430243 1.39923,2.928896 2.07032,3.736647 1.31595,1.583919 5.3176,5.906026 5.39577,5.827862 0.0296,-0.02962 -0.17423,-0.885589 -0.45301,-1.902142 z M 59.695471,77.977888 c 0,-0.905121 1.203702,-4.140148 2.691937,-7.234755 0.866726,-1.802255 1.478814,-3.37045 1.360194,-3.484878 -0.438199,-0.422712 -3.540519,-1.308086 -4.583491,-1.308086 -3.247789,0 -5.7673,3.440031 -5.507524,7.519733 0.162032,2.544667 1.099037,3.544615 4.240489,4.525344 1.507818,0.470725 1.798395,0.467921 1.798395,-0.01736 z M 153.1176,77.609549 c 1.9794,-0.740591 2.80924,-1.662924 3.18656,-3.541738 0.2569,-1.279176 0.23229,-1.780329 -0.15824,-3.223077 -0.49877,-1.842577 -1.93403,-3.782468 -3.33428,-4.506561 -1.10071,-0.5692 -2.85052,-0.475101 -5.05073,0.27161 -1.06896,0.362787 -1.96532,0.660443 -1.99191,0.661458 -0.0266,10e-4 0.70434,1.579423 1.62429,3.507574 0.91994,1.928151 1.9445,4.439237 2.2768,5.580192 0.68696,2.358699 0.58477,2.32163 3.44751,1.250542 z m -5.18359,-13.599217 c 0.7276,-0.568768 1.53049,-1.347248 1.78419,-1.729956 1.43506,-2.164765 -0.77725,-6.95455 -3.87935,-8.399014 -1.57148,-0.731749 -2.56032,-0.78504 -4.15543,-0.223944 -1.09341,0.384618 -3.93587,2.834305 -3.93587,3.392008 0,0.135002 0.92351,1.210632 2.05224,2.390288 1.12873,1.179657 2.75426,3.181787 3.61228,4.449178 l 1.56005,2.304347 0.81948,-0.574391 c 0.45072,-0.315916 1.4148,-1.039748 2.14241,-1.608516 z m -81.443075,-0.09814 c 0.70088,-1.048125 2.312737,-3.029702 3.581903,-4.403504 l 2.307576,-2.497822 -1.331604,-1.352775 c -1.784055,-1.812417 -2.677634,-2.251401 -4.606464,-2.262996 -1.753133,-0.01054 -3.032392,0.594065 -4.424749,2.091222 -1.710245,1.838972 -2.509706,4.764719 -1.78201,6.521533 0.339689,0.82008 4.308181,4.052992 4.770314,3.886111 0.115888,-0.04185 0.784153,-0.933644 1.485034,-1.981769 z m 7.525785,-8.196807 c 0.592164,-0.726001 5.747814,-4.003747 8.102188,-5.15103 1.200546,-0.585025 2.182812,-1.119548 2.182812,-1.187828 0,-0.338736 -2.190091,-3.25693 -3.083082,-4.108064 -2.452577,-2.337616 -6.432779,-1.849901 -9.219908,1.129765 -1.486891,1.589607 -2.037441,2.803506 -1.810169,3.991214 0.309746,1.618715 2.658425,5.771141 3.264249,5.771141 0.110431,0 0.36419,-0.200339 0.56391,-0.445198 z m 63.41882,-0.361499 c 0.33772,-0.42758 1.02233,-1.560737 1.52136,-2.518128 1.2223,-2.345016 1.21577,-3.500256 -0.0303,-5.350513 -1.81587,-2.696414 -4.79708,-4.105481 -7.49446,-3.542252 -1.80569,0.377038 -2.82292,1.160961 -4.50192,3.469387 l -1.34367,1.847377 2.14904,1.118056 c 2.02594,1.054011 6.27384,3.782027 8.02755,5.155331 0.43657,0.341864 0.85329,0.616303 0.92605,0.609865 0.0728,-0.0064 0.4086,-0.361543 0.74632,-0.789123 z M 89.013877,47.715742 c 1.701178,-0.570082 4.343207,-1.299461 5.871176,-1.620842 1.527968,-0.321381 2.809217,-0.61034 2.847219,-0.642131 0.038,-0.03179 -0.319082,-1.17405 -0.793521,-2.538352 -1.029884,-2.961551 -2.09833,-4.259938 -3.905781,-4.746348 -2.528127,-0.680353 -5.318917,0.210308 -7.883286,2.515897 -1.119296,1.006343 -1.377131,1.397956 -1.377131,2.091659 0,1.433523 1.447189,5.976629 1.903832,5.976629 0.134442,0 1.636313,-0.466431 3.337492,-1.036512 z M 125.3921,46.697075 c 0.37358,-1.130348 0.75881,-2.655002 0.85607,-3.38812 l 0.17682,-1.332942 -1.4729,-1.346142 c -2.50581,-2.290169 -4.97835,-3.109701 -7.48088,-2.479558 -1.73343,0.436483 -2.64199,1.160944 -3.44614,2.747862 -0.64342,1.269722 -1.67752,3.995714 -1.67752,4.4221 0,0.104141 0.50602,0.268705 1.12448,0.365697 1.89661,0.297442 6.08367,1.410852 8.42553,2.24049 1.22317,0.433327 2.357,0.796401 2.51962,0.80683 0.16262,0.01043 0.60134,-0.905869 0.97492,-2.036217 z m -14.25501,-2.277373 c 0.0837,-0.418373 0.15213,-1.941831 0.15213,-3.385464 0,-2.452054 -0.0439,-2.668633 -0.66628,-3.291061 -1.18211,-1.18211 -3.43862,-2.030611 -5.44919,-2.049021 -1.59028,-0.01456 -2.03633,0.104813 -3.8513,1.03071 -1.514275,0.772495 -2.100355,1.220687 -2.234311,1.708638 -0.229366,0.83549 -0.277966,4.596026 -0.07523,5.820833 l 0.153285,0.926042 h 5.909386 5.90938 z m -4.93984,99.543108 c -0.75322,-0.4673 1.0295,-1.81264 2.40195,-1.81264 0.64085,0 1.95244,1.02092 1.82174,1.41802 -0.10924,0.3319 -3.77303,0.67421 -4.22369,0.39462 z m 13.09561,-20.88014 c -1.77352,-0.56906 -2.27911,-1.12617 -0.69851,-0.76969 l 0.95514,0.21542 -0.6563,-0.7063 c -0.36097,-0.38847 -0.87381,-1.06349 -1.13964,-1.50005 -0.26584,-0.43657 -0.52062,-0.8446 -0.56618,-0.90676 -0.0456,-0.0622 -0.40902,0.19809 -0.80768,0.5783 -0.39867,0.38022 -1.2973,0.93582 -1.99696,1.23466 l -1.27211,0.54335 0.6063,-1.07877 c 0.33347,-0.59332 1.11162,-1.54455 1.72922,-2.11384 0.66669,-0.61453 0.95874,-1.03507 0.71882,-1.03507 -0.55481,0 -1.97016,0.73903 -2.70762,1.41379 -0.58254,0.53301 -0.60109,0.53459 -0.41197,0.0352 1.45629,-3.8456 5.1766,-5.67644 10.81156,-5.32059 3.13779,0.19815 4.83057,0.73609 6.39053,2.0308 0.70531,0.58538 1.55347,1.13368 1.8848,1.21845 0.47808,0.12231 0.53966,0.22975 0.29834,0.52053 -0.25192,0.30354 -0.085,0.3664 0.97262,0.3664 h 1.27672 l -1.03076,1.0556 c -1.10299,1.12957 -4.53125,3.289 -6.48496,4.08483 -1.82229,0.74229 -5.76594,0.8093 -7.87136,0.13374 z m 5.80638,-0.92201 c 0.66236,-0.22569 1.48571,-0.70989 1.82966,-1.07602 l 0.62537,-0.66567 -0.65805,-0.5056 c -0.91508,-0.70309 -1.49446,-0.64592 -1.69864,0.16761 -0.0946,0.37673 -0.61347,1.09054 -1.15316,1.58623 -1.10222,1.01238 -0.83502,1.13738 1.05482,0.49345 z"
       id="path1"
       inkscape:label="main" /></g></svg>
