<?xml version="1.0" encoding="UTF-8" standalone="no"?>
<!-- Created with Inkscape (http://www.inkscape.org/) -->

<svg
   width="270.93332mm"
   height="270.93332mm"
   viewBox="0 0 270.93332 270.93332"
   version="1.1"
   id="svg1"
   xml:space="preserve"
   inkscape:version="1.3.2 (091e20ef0f, 2023-11-25)"
   sodipodi:docname="defaultCharacter.svg"
   xmlns:inkscape="http://www.inkscape.org/namespaces/inkscape"
   xmlns:sodipodi="http://sodipodi.sourceforge.net/DTD/sodipodi-0.dtd"
   xmlns:xlink="http://www.w3.org/1999/xlink"
   xmlns="http://www.w3.org/2000/svg"
   xmlns:svg="http://www.w3.org/2000/svg"><sodipodi:namedview
     id="namedview1"
     pagecolor="#505050"
     bordercolor="#eeeeee"
     borderopacity="1"
     inkscape:showpageshadow="0"
     inkscape:pageopacity="0"
     inkscape:pagecheckerboard="0"
     inkscape:deskcolor="#505050"
     inkscape:document-units="mm"
     inkscape:zoom="0.73386633"
     inkscape:cx="560.72882"
     inkscape:cy="545.73971"
     inkscape:window-width="3440"
     inkscape:window-height="1371"
     inkscape:window-x="0"
     inkscape:window-y="1112"
     inkscape:window-maximized="1"
     inkscape:current-layer="layer1" /><defs
     id="defs1"><linearGradient
       id="linearGradient1"
       inkscape:collect="always"><stop
         style="stop-color:#ff34e0;stop-opacity:1;"
         offset="0.2515696"
         id="stop1" /><stop
         style="stop-color:#00e4d2;stop-opacity:1;"
         offset="0.7478013"
         id="stop2" /></linearGradient><linearGradient
       inkscape:collect="always"
       xlink:href="#linearGradient1"
       id="linearGradient2"
       x1="-30.46666"
       y1="13.03334"
       x2="240.46666"
       y2="283.96664"
       gradientUnits="userSpaceOnUse" /></defs><g
     inkscape:label="Layer 1"
     inkscape:groupmode="layer"
     id="layer1"
     transform="translate(30.46666,-13.03334)"><rect
       style="fill:url(#linearGradient2);stroke-width:0.264583"
       id="rect1"
       width="270.93329"
       height="270.93329"
       x="-30.46666"
       y="13.03334" /><path
       style="fill:#000000"
       d="m 30.939547,281.78385 c -0.880132,-1.20055 -1.602521,-2.33812 -1.605308,-2.52795 -0.0046,-0.3107 1.418137,-6.49122 1.717243,-7.46007 0.08425,-0.2729 -0.392907,-0.66473 -1.527498,-1.25433 -3.389859,-1.76156 -8.777226,-6.29475 -14.809338,-12.46126 -1.972586,-2.01654 -3.769762,-4.02079 -3.993725,-4.45388 -0.378626,-0.73219 -0.36054,-0.94392 0.257694,-3.0168 0.857588,-2.87543 0.964138,-3.19347 1.810581,-5.40436 1.756111,-4.58692 7.067096,-16.55795 10.292004,-23.1983 1.108051,-2.28157 2.013474,-4.4247 2.012053,-4.7625 -0.0014,-0.33781 -0.281953,-1.20951 -0.623402,-1.93711 -0.622842,-1.32723 -3.848481,-6.76226 -5.082183,-8.56321 -0.362372,-0.52898 -0.922917,-1.79523 -1.245656,-2.81387 -0.536822,-1.69435 -0.586799,-2.38165 -0.586799,-8.0698 0,-6.85679 0.171788,-8.19888 1.620884,-12.66318 1.939336,-5.97459 5.311215,-11.09516 7.983007,-12.12306 3.913733,-1.5057 13.797241,0.51781 26.776315,5.48209 1.819011,0.69574 5.212292,1.9941 7.540625,2.88526 4.27989,1.63809 7.389767,2.53775 11.532896,3.33635 2.214891,0.42693 2.325523,0.42359 4.365625,-0.13178 2.227843,-0.60647 6.989194,-2.61233 8.650656,-3.64434 0.550693,-0.34206 1.434615,-1.29937 1.964271,-2.12736 0.866013,-1.35379 3.962073,-7.5845 5.706838,-11.48479 0.708852,-1.58459 1.509806,-2.29521 2.909777,-2.58163 l 0.853268,-0.17457 -0.09102,-1.79018 -0.09102,-1.79018 2.431146,1.22099 c 1.337126,0.67155 2.357936,1.10254 2.268446,0.95775 -0.0895,-0.14479 -2.661375,-1.82798 -5.715318,-3.74042 -6.686863,-4.18745 -8.213125,-5.30917 -10.98034,-8.06996 -3.712368,-3.70376 -6.189283,-7.96706 -8.367685,-14.40258 -1.030314,-3.0438 -1.727327,-4.55253 -3.331755,-7.21179 -1.115881,-1.84952 -2.066083,-3.32555 -2.111561,-3.28008 -0.206621,0.20663 1.346319,6.93383 2.20518,9.55266 1.145075,3.49154 3.641135,8.77853 5.001506,10.59385 0.937357,1.25083 0.893881,1.22531 -0.918281,-0.53908 -2.442023,-2.37766 -4.109175,-4.4659 -5.808859,-7.27605 l -1.360254,-2.24895 0.165585,1.19062 c 1.105233,7.94706 4.807428,16.89751 8.791249,21.25379 l 1.244229,1.36056 -1.322916,-1.02214 c -2.957564,-2.28511 -6.389303,-6.50954 -8.850813,-10.89524 -0.729316,-1.29943 -1.328193,-2.15501 -1.330837,-1.9013 -0.01139,1.09274 1.448838,7.76641 2.501222,11.43131 1.316978,4.58634 2.748321,8.05875 4.557674,11.05682 1.456642,2.41364 3.634326,4.92938 4.994815,5.77021 1.688461,1.04353 0.711752,0.86528 -1.348762,-0.24615 -8.436604,-4.55065 -16.621737,-15.74174 -21.212457,-29.00265 -5.53567,-15.99053 -7.577791,-34.90962 -5.511896,-51.064582 1.03797,-8.116758 3.137323,-15.141803 6.325413,-21.166666 0.539022,-1.018645 0.918326,-1.544817 0.842896,-1.169271 -0.218147,1.086112 -0.8901,7.832433 -1.025649,10.297396 l -0.123672,2.248958 0.373905,-1.322916 c 0.205648,-0.727605 0.616695,-2.215886 0.913439,-3.307292 0.681693,-2.507228 1.899579,-5.873527 3.110997,-8.598958 1.205033,-2.711068 4.181528,-8.513042 4.852525,-9.458854 0.283905,-0.400182 0.434739,-0.727604 0.335186,-0.727604 -0.354338,0 -2.924478,1.993109 -4.595404,3.563674 -0.933718,0.877636 -1.635574,1.476639 -1.55968,1.331118 6.093711,-11.684276 16.120083,-19.683114 29.451097,-23.495494 10.043921,-2.872345 20.238981,-2.880967 29.726341,-0.02514 12.02755,3.620461 21.16578,10.45386 28.26948,21.139385 3.52774,5.306502 7.99876,14.662082 9.1033,19.048599 0.44983,1.786427 0.54814,1.299321 0.21838,-1.082029 -0.82532,-5.960073 -2.61435,-11.039467 -6.0019,-17.040528 -1.90104,-3.367687 -2.90915,-4.852199 -5.03091,-7.408333 -8.41591,-10.138823 -19.11673,-16.407038 -32.07532,-18.788746 -3.9218,-0.720803 -10.5314,-0.969887 -14.56467,-0.548875 -9.560669,0.99799 -19.475617,4.692075 -26.289998,9.795059 -6.110573,4.575933 -12.019141,11.412883 -15.62094,18.075374 -0.68836,1.273307 -1.297287,2.315104 -1.35317,2.315104 -0.26001,0 1.934454,-4.374707 3.384403,-6.746875 3.207981,-5.248369 6.884334,-9.515184 11.644864,-13.515154 8.129374,-6.830595 18.196793,-10.809762 29.799171,-11.778179 9.68606,-0.808469 20.84185,1.536862 29.40451,6.181837 5.4773,2.971266 11.95083,8.14709 15.66361,12.523628 3.21185,3.786061 6.22027,8.552962 8.29226,13.139258 0.96162,2.128509 1.10134,2.308183 1.70871,2.197295 0.3638,-0.06642 1.51421,-0.255336 2.55645,-0.419814 1.04225,-0.164479 2.08615,-0.438886 2.31979,-0.609795 0.25228,-0.18454 0.4944,-0.898506 0.59615,-1.757959 0.13629,-1.151123 0.35075,-1.631943 1.04822,-2.350108 1.71702,-1.767956 1.48367,-4.581489 -0.61219,-7.381321 -0.84643,-1.130739 -1.41724,-1.111165 -5.15133,0.176647 -1.65304,0.570098 -3.04024,1.001838 -3.08265,0.95942 -0.0424,-0.04242 0.83191,-0.890707 1.94296,-1.885088 1.11104,-0.99438 2.38001,-2.331113 2.81993,-2.970516 1.08998,-1.584226 0.94971,-2.883083 -0.67121,-6.215078 -1.3438,-2.762336 -2.17978,-3.589165 -3.85622,-3.814023 -1.28335,-0.172133 -2.59303,0.399872 -6.00806,2.624032 -1.43961,0.937593 -2.7657,1.791903 -2.94687,1.898468 -0.18117,0.106564 0.5475,-1.033296 1.61928,-2.533023 2.03609,-2.849077 3.07575,-4.665116 3.07575,-5.372609 0,-1.430724 -3.35647,-5.373822 -5.37812,-6.318068 -1.29581,-0.605235 -3.03639,-0.603232 -4.32501,0.005 -1.03424,0.488147 -3.21643,2.507983 -4.89784,4.533452 l -0.9387,1.130778 1.02132,-2.982861 c 0.66434,-1.940259 1.0219,-3.459102 1.02296,-4.345375 0.002,-1.31891 -0.0461,-1.406195 -1.49189,-2.727514 -4.13774,-3.781661 -9.07228,-4.23761 -11.10265,-1.02588 -0.39886,0.630937 -1.24758,2.21872 -1.88604,3.528408 -1.11556,2.288388 -1.15535,2.334819 -1.02026,1.190625 0.0773,-0.654844 0.21855,-2.449504 0.31387,-3.988133 l 0.17331,-2.797508 -0.84936,-0.967369 c -1.77517,-2.021809 -5.84202,-3.364274 -8.63025,-2.848842 -1.88148,0.34781 -4.06031,1.515754 -4.19156,2.246857 -0.58316,3.248155 -1.22022,7.266188 -1.21632,7.671488 0.0143,1.484733 -0.51423,-0.828912 -1.35485,-5.931076 -0.15584,-0.945886 -0.40001,-1.863227 -0.54259,-2.038537 -0.58079,-0.71408 -2.70238,-1.710882 -4.20465,-1.9755 -2.8979,-0.510456 -6.766914,0.687886 -8.464938,2.621828 l -0.849623,0.967667 0.164652,3.062179 c 0.09056,1.684198 0.233635,3.476361 0.317947,3.982583 0.107573,0.645882 -0.292893,0.05234 -1.34266,-1.990012 -2.289851,-4.45496 -3.025847,-5.024437 -6.267296,-4.84932 -1.51726,0.08197 -2.302534,0.291606 -3.706873,0.989591 -2.319123,1.15265 -4.171324,3.077634 -4.171324,4.335237 0,1.139056 0.878024,4.588815 1.581459,6.213563 l 0.540509,1.248429 -0.976926,-1.190625 c -0.537309,-0.654844 -1.641102,-1.851784 -2.452874,-2.659866 -2.861218,-2.848214 -5.709532,-2.770459 -9.068533,0.247556 -1.666418,1.497253 -2.852801,3.310822 -2.852801,4.360946 0,0.960441 1.205418,3.157801 2.995058,5.459697 0.735391,0.945885 1.460508,1.883104 1.61137,2.08271 0.150862,0.199605 -1.019371,-0.436721 -2.600518,-1.414057 -4.314467,-2.666852 -5.617792,-2.996864 -7.75315,-1.963155 -0.887923,0.429837 -1.308689,0.867168 -1.836553,1.908857 -1.070019,2.111581 -1.941207,4.605754 -1.941207,5.557592 0,1.436168 1.778979,3.771288 4.335161,5.690411 0.832275,0.624854 0.619601,0.735894 -0.547624,0.285922 -0.409656,-0.157924 -1.801127,-0.519303 -3.092158,-0.803065 -2.757016,-0.605976 -3.018453,-0.51499 -4.366029,1.519479 -1.618997,2.444239 -1.670886,4.291562 -0.175617,6.252135 0.635412,0.833141 0.891585,1.484561 0.990479,2.518674 0.07337,0.767184 0.19505,1.456535 0.270406,1.531891 0.07536,0.07536 1.212863,0.342218 2.527793,0.593026 l 2.390783,0.456016 -0.39998,0.92251 c -0.219988,0.507381 -0.617195,1.517823 -0.882681,2.245427 l -0.482702,1.322917 -0.01933,-1.37406 c -0.01557,-1.107034 -0.133608,-1.454101 -0.60737,-1.785937 -1.002659,-0.70229 -1.713596,-0.528769 -2.053519,0.501207 -0.358906,1.087494 -0.130232,1.655367 1.247127,3.097026 l 0.924255,0.967404 -0.465001,1.399984 -0.465,1.399984 -1.623058,-1.713161 c -2.186329,-2.3077 -2.616124,-3.269056 -2.486568,-5.561893 0.06784,-1.200518 4.28e-4,-1.852273 -0.199506,-1.928995 -0.166077,-0.06373 -0.385022,-0.742042 -0.486545,-1.50736 -0.114754,-0.865059 -0.419284,-1.670408 -0.804952,-2.128749 -0.3412,-0.405493 -0.830032,-1.286266 -1.086291,-1.957273 -0.401066,-1.050177 -0.42404,-1.445249 -0.16503,-2.838005 0.547884,-2.946095 2.301959,-5.783304 4.104199,-6.638522 0.86872,-0.412235 0.875004,-0.428526 0.762934,-1.977878 -0.134686,-1.862022 0.391791,-3.867824 1.693876,-6.45342 1.684013,-3.344002 3.69435,-4.970142 6.144406,-4.970142 h 1.299371 l 0.172759,-1.302323 c 0.329002,-2.480136 3.842864,-6.605949 6.892069,-8.092345 2.217201,-1.080819 4.922827,-1.336636 6.145395,-0.581047 0.131934,0.08154 0.503906,-0.427266 0.826603,-1.130679 0.724219,-1.578647 3.025487,-3.730811 5.119662,-4.787947 3.078486,-1.554015 7.147301,-1.97962 9.128894,-0.954899 l 0.808924,0.418311 1.435132,-1.390035 c 2.524645,-2.445311 7.11408,-3.770236 10.844146,-3.1306 1.74555,0.299327 4.49691,1.435147 4.68799,1.935301 0.14607,0.382348 0.63812,0.262161 1.23943,-0.302746 1.57767,-1.482146 6.36091,-2.24706 9.31654,-1.489862 2.33292,0.597667 5.03134,1.976879 6.3724,3.257053 l 1.15369,1.101306 0.96904,-0.416644 c 1.5138,-0.650867 4.8154,-0.534042 6.92615,0.245076 3.1296,1.155192 6.77387,4.116447 7.44889,6.052791 0.23236,0.666559 0.37055,0.763121 0.84425,0.589925 0.31153,-0.113902 1.39985,-0.201169 2.4185,-0.193928 1.50105,0.01067 2.14783,0.16034 3.41253,0.789678 3.01743,1.501538 6.70864,5.846474 6.97509,8.210396 l 0.12574,1.11554 1.65779,0.10556 c 2.18286,0.138995 3.41367,0.959983 4.95967,3.308249 1.95196,2.964906 2.71293,5.122009 2.71293,7.690306 0,1.536637 0.0952,2.182871 0.32152,2.182812 0.59095,-1.53e-4 2.21905,1.658177 2.83388,2.886515 1.15503,2.307561 1.54975,3.938868 1.41357,5.842107 l -0.12727,1.778755 2.54165,0.301544 c 1.3979,0.16585 4.20852,0.490966 6.24581,0.722479 2.03729,0.231514 3.78479,0.499844 3.88333,0.596288 0.39869,0.390213 3.15588,10.533862 3.03224,11.155561 -0.17507,0.880315 -3.5562,8.795726 -6.83764,16.007291 -2.54735,5.598267 -5.70237,12.000505 -8.79738,17.851815 -0.85835,1.62276 -1.4053,2.96018 -1.32022,3.22824 0.27096,0.85371 2.81515,4.57358 4.83948,7.07582 4.50889,5.57336 11.1838,10.19324 17.23873,11.93138 1.09141,0.3133 3.23453,0.65342 4.7625,0.75582 l 2.77813,0.18619 -1.5875,0.38626 c -0.9061,0.22046 -2.72317,0.37526 -4.23334,0.36064 -2.22194,-0.0215 -3.03676,-0.15789 -5.08595,-0.85123 -2.68567,-0.90868 -5.12459,-2.06749 -6.95259,-3.30339 -2.05029,-1.38619 -6.70682,-5.36355 -7.63333,-6.51997 -0.48755,-0.60854 -0.93739,-1.0555 -0.99965,-0.99325 -0.0623,0.0623 1.3886,2.60023 3.22411,5.63993 4.26332,7.06025 6.62976,11.84095 8.13164,16.42763 2.20162,6.7236 2.56855,12.09254 1.13629,16.62642 -0.88664,2.80673 -1.6504,3.90412 -0.9133,1.31227 0.42704,-1.50162 0.50706,-2.42783 0.42286,-4.89479 -0.11991,-3.51331 -0.86831,-6.09559 -3.11953,-10.76369 -1.14151,-2.36702 -5.19809,-8.83705 -5.75736,-9.1827 -0.11324,-0.07 0.3545,1.56159 1.03943,3.62572 5.05426,15.23175 5.34886,31.14726 0.749,40.4639 -0.41312,0.83675 -0.70281,1.52135 -0.64375,1.52135 0.0591,0 1.98776,-0.47019 4.286,-1.04487 6.23666,-1.55949 10.28526,-2.19308 13.33734,-2.08723 3.96933,0.13765 4.31426,0.53854 5.08519,5.91023 1.54869,10.79095 1.16874,19.22504 -1.17166,26.00848 -0.43681,1.26607 -1.82834,4.36382 -3.09229,6.88391 l -2.2981,4.58197 1.22317,3.62011 c 1.39633,4.1326 5.37323,14.82357 8.4822,22.8024 1.16239,2.98318 2.3371,6.06079 2.61046,6.83915 l 0.49701,1.41518 -0.83953,1.23065 c -2.0578,3.0165 -9.57859,10.00345 -14.56193,13.52828 -0.69122,0.48892 -1.25677,0.92148 -1.25677,0.96125 0,0.0398 0.30389,0.89215 0.67531,1.89418 l 0.67531,1.82189 -1.46906,3.30863 c -0.80798,1.81974 -1.46906,3.44749 -1.46906,3.61721 0,0.22933 -2.44156,0.30858 -9.50653,0.30858 h -9.50653 l 0.2316,-0.7276 c 1.83233,-5.75659 2.54638,-8.17397 3.30198,-11.17865 2.39088,-9.50749 2.06509,-11.39337 -6.3533,-36.77708 -6.90063,-20.80728 -8.8131,-27.91137 -10.57728,-39.29062 -0.38354,-2.47386 -0.8184,-5.12937 -0.96637,-5.90114 l -0.26904,-1.40321 -1.10278,0.0803 -1.10279,0.0803 -0.18747,1.87899 c -0.3279,3.28653 -1.6462,6.00076 -4.2571,8.76493 -1.44792,1.53291 -5.66599,4.83141 -7.7106,6.02964 -1.14244,0.66951 -1.20628,0.76861 -1.20628,1.87241 0,0.64102 -0.0728,1.16548 -0.1617,1.16548 -0.0889,0 -1.13073,-0.57732 -2.3151,-1.28294 -1.18438,-0.70562 -2.80826,-1.64386 -3.60862,-2.08498 -3.56994,-1.96758 -4.47656,-2.45291 -4.58216,-2.45291 -0.0621,0 0.65231,1.16086 1.58748,2.57969 1.87631,2.84669 5.14411,9.31007 7.19014,14.22135 1.97765,4.74714 1.97961,4.43213 -0.0326,5.23768 -1.86411,0.74625 -3.8882,1.8786 -5.80208,3.24589 -1.43864,1.02778 -1.23985,1.29794 -2.05662,-2.79503 -0.80116,-4.01474 -2.94753,-13.58837 -3.10327,-13.84171 -0.0729,-0.11862 -0.37138,4.4e-4 -0.66325,0.26458 -0.7562,0.68435 -2.51144,0.63101 -3.54794,-0.10782 l -0.82386,-0.58726 -1.4553,3.10121 c -0.80042,1.70567 -2.50447,5.42293 -3.78677,8.26059 -1.2823,2.83765 -2.36483,5.20377 -2.40562,5.25805 -0.0408,0.0543 -0.82351,-0.5483 -1.73938,-1.33905 -2.07186,-1.78882 -3.86691,-3.07436 -5.82309,-4.17026 l -1.51204,-0.84708 0.69306,-1.10448 c 2.99523,-4.77328 6.93449,-10.09492 10.87591,-14.69252 2.16849,-2.5295 2.85108,-3.47967 2.40169,-3.34317 -2.50524,0.76099 -10.63937,4.74942 -13.71197,6.72342 -0.61815,0.39714 -0.63894,0.39188 -0.44122,-0.11167 0.11412,-0.29065 0.27184,-1.13376 0.35048,-1.87359 l 0.14298,-1.34514 -3.405921,-2.07172 c -9.390894,-5.7122 -14.427657,-9.70902 -17.063984,-13.54079 -0.916176,-1.33162 -2.349227,-4.36625 -2.349227,-4.97473 0,-0.49578 -0.05695,-0.49654 -1.206752,-0.0161 -0.761488,0.31817 -0.900408,0.49371 -0.785197,0.99219 0.07699,0.33309 0.488906,2.03438 0.915376,3.78063 2.135459,8.74397 2.865191,17.38864 2.12349,25.15561 -0.65164,6.82386 -2.092664,12.1768 -6.867919,25.51209 -5.105534,14.25763 -6.614414,19.56645 -6.614414,23.27202 0,3.27258 1.369126,12.94869 2.528621,17.87069 0.205686,0.87312 0.375734,1.79586 0.377885,2.05052 0.0037,0.43663 -1.058385,0.46302 -18.631405,0.46302 H 32.539787 Z m 37.76822,-41.67188 c 1.29252,-3.38025 2.904526,-8.00364 2.790575,-8.00364 -0.419391,0 -3.052118,1.24335 -3.97014,1.87496 -1.362647,0.93753 -2.738772,3.15417 -2.742384,4.41739 -0.0043,1.50365 1.674334,4.55557 2.505682,4.55557 0.180781,0 0.818101,-1.27993 1.416267,-2.84428 z m 101.941853,0.39842 c 1.12752,-2.21012 0.12815,-4.99454 -2.35867,-6.57163 -0.68264,-0.43292 -1.28103,-0.66748 -1.32978,-0.52125 -0.0774,0.23211 1.66282,6.05734 2.34752,7.85824 0.30872,0.81201 0.62968,0.62881 1.34093,-0.76536 z m 2.29065,-10.92825 c 2.79607,-1.25506 4.90375,-3.5249 5.24298,-5.64636 0.35809,-2.23935 -1.86259,-4.89457 -5.11864,-6.12024 -1.28579,-0.48401 -1.93239,-0.55674 -4.16774,-0.46878 -1.87431,0.0738 -2.90697,0.24257 -3.54138,0.57891 l -0.89554,0.47479 0.17449,1.8775 c 0.096,1.03263 0.20132,1.88504 0.23409,1.89425 0.0328,0.009 1.07162,0.51517 2.30855,1.12436 l 2.24896,1.10763 -1.19063,0.0171 c -0.65484,0.009 -1.64487,0.14322 -2.20005,0.29739 -0.90782,0.25209 -0.99539,0.35182 -0.86992,0.99071 0.0767,0.39072 0.21877,1.30572 0.31565,2.03332 0.25658,1.9272 0.46009,2.17535 2.02509,2.46927 1.8597,0.34926 3.73778,0.13159 5.43409,-0.62983 z m -102.081713,0.32208 c 1.313738,-0.34438 1.525343,-0.72804 1.571321,-2.84894 0.02513,-1.15936 -0.02029,-1.23756 -0.965814,-1.6625 -0.545703,-0.24526 -1.702486,-0.65617 -2.57063,-0.91314 l -1.578443,-0.46722 2.702922,-1.02362 c 2.608696,-0.98794 2.703574,-1.05205 2.721611,-1.83903 0.05761,-2.51352 -0.08659,-5.46756 -0.427274,-8.7529 -0.211263,-2.03729 -0.384351,-3.72092 -0.38464,-3.7414 -0.0023,-0.16059 -4.991465,-3.40387 -5.880765,-3.82285 l -1.131218,-0.53295 3.108854,0.1721 c 1.70987,0.0947 3.106994,0.0711 3.104721,-0.0524 -0.0023,-0.1235 -0.164588,-0.90636 -0.3607,-1.7397 -0.278573,-1.18374 -0.581509,-1.71949 -1.384929,-2.4493 -1.73344,-1.57461 -3.65661,-3.0104 -5.155223,-3.84876 -1.072517,-0.59998 -1.231215,-0.75521 -0.635639,-0.62173 0.749758,0.16804 5.041908,1.64503 5.999965,2.06468 0.339228,0.14859 0.417948,0.0804 0.334289,-0.28956 -1.215378,-5.37479 -3.311851,-12.47319 -3.957805,-13.40064 -0.653122,-0.93775 -16.862257,-7.16563 -24.166553,-9.28529 -3.384016,-0.98201 -7.305591,-1.85397 -9.56302,-2.12632 l -1.455208,-0.17556 1.35355,1.40403 c 0.744453,0.77221 2.724679,3.13043 4.400502,5.24049 3.799477,4.78397 6.559212,7.49814 9.477037,9.32057 2.165254,1.35239 3.598544,2.03729 9.242868,4.41673 l 2.513541,1.05961 -1.994932,0.01 c -4.612158,0.0228 -8.651684,2.10193 -9.898398,5.0946 -0.518763,1.24527 -0.528181,4.0382 -0.01849,5.48282 1.044239,2.95969 2.198811,3.59735 7.488624,4.13591 4.940012,0.50295 7.504712,1.13678 10.565257,2.61105 3.115662,1.50082 4.015708,2.12239 6.245261,4.31296 2.334662,2.29384 2.690621,2.94326 0.98361,1.79453 -2.925248,-1.96855 -6.250938,-2.25239 -9.469064,-0.80818 -4.29947,1.92948 -5.299008,5.41288 -2.603758,9.07412 1.633716,2.21925 3.519775,3.64288 5.713346,4.31256 1.008305,0.30782 4.747507,0.24344 6.075222,-0.10461 z m 97.339213,-15.08797 c 3.07721,-1.61703 5.11858,-2.05146 10.62098,-2.26029 5.48002,-0.20798 6.1456,-0.39614 7.15,-2.02129 0.37928,-0.61369 0.63455,-1.54755 0.72249,-2.64316 0.11812,-1.47144 0.0408,-1.88866 -0.58778,-3.17352 -1.10243,-2.25329 -3.36689,-3.9179 -6.83628,-5.02539 l -1.80052,-0.57476 2.85885,-0.995 c 6.00933,-2.09149 8.42383,-3.72072 10.79099,-7.28144 1.51825,-2.28377 3.83855,-6.92659 4.01978,-8.04342 0.11837,-0.7294 0.0376,-0.8979 -0.56146,-1.17083 -0.97229,-0.44301 -4.08099,-0.39801 -7.04435,0.10198 -6.14593,1.03695 -16.42941,4.01121 -22.1373,6.40272 l -2.97454,1.24627 -0.002,2.61683 -0.002,2.61682 3.77022,-0.19138 c 2.07362,-0.10526 3.71073,-0.13481 3.63802,-0.0657 -0.0727,0.0692 -0.96706,0.41443 -1.98746,0.76729 -1.02039,0.35286 -2.53843,1.07859 -3.37343,1.61274 l -1.51818,0.97116 v 1.43686 c 0,2.00432 0.14264,2.28589 1.01249,1.99859 0.74619,-0.24646 4.80834,-1.02688 4.80834,-0.92378 0,0.0332 -0.8632,0.49461 -1.91823,1.02546 -3.26495,1.64283 -3.58573,2.10833 -3.42684,4.97281 0.0478,0.86125 0.14406,0.97979 0.9133,1.12447 0.47294,0.089 1.6338,0.5422 2.57969,1.00724 l 1.71979,0.84552 -1.85208,0.16611 c -3.29181,0.29523 -3.14594,0.12649 -2.93741,3.39799 0.0987,1.54808 0.2491,3.25787 0.33428,3.79954 l 0.15487,0.98487 1.04987,-0.89865 c 0.57743,-0.49426 1.84461,-1.31628 2.81595,-1.8267 z m -46.46312,-11.80713 c 1.06741,-0.83963 1.59042,-2.485 1.59952,-5.03204 0.006,-1.70167 -0.12315,-2.54479 -0.53105,-3.46462 -1.94874,-4.39452 -5.51183,-2.3113 -5.4933,3.21175 0.006,1.67643 0.13274,2.24843 0.79375,3.57187 1.08336,2.16904 2.31355,2.74941 3.63108,1.71304 z m -16.80223,-5.92794 c 2.67129,-2.85562 5.68206,-7.4926 8.60922,-13.25931 0.51706,-1.01864 1.11768,-2.08862 1.33471,-2.37773 0.39373,-0.52449 0.39592,-0.52449 0.98587,0 0.75961,0.67531 1.48545,2.33902 2.88429,6.61107 0.61944,1.89177 1.21998,3.53998 1.33454,3.66269 0.11457,0.12271 0.4684,-0.4726 0.78631,-1.32292 2.86253,-7.65657 3.90373,-9.69927 4.49677,-8.82207 0.27504,0.40683 0.35753,0.61821 2.01333,5.15938 1.76688,4.8458 4.60473,9.87327 6.71366,11.89375 1.03202,0.98873 1.27871,0.77816 2.91357,-2.48699 1.4825,-2.96082 2.44588,-5.54979 3.32685,-8.94047 l 0.63569,-2.44663 -1.28306,-2.49732 c -1.24699,-2.42713 -3.15445,-7.83226 -4.13933,-11.72959 -0.43562,-1.7238 -0.54065,-1.9025 -1.02905,-1.75077 -0.53725,0.1669 -0.53773,0.16204 -0.0389,-0.39643 0.42043,-0.47071 0.45461,-0.67601 0.20411,-1.22579 -0.55312,-1.21398 -0.8414,-0.72489 -0.8414,1.42753 v 2.08791 l -1.78594,1.73116 c -0.98226,0.95213 -3.34822,2.97905 -5.25768,4.50425 -1.90946,1.5252 -3.71491,3.11458 -4.01211,3.53196 -0.2972,0.41738 -1.01108,1.76693 -1.5864,2.99899 -1.00494,2.15212 -1.0538,2.20893 -1.2439,1.44636 -0.44744,-1.79493 -2.00292,-4.59675 -2.97994,-5.36765 -0.54637,-0.43111 -3.55325,-2.36172 -6.68194,-4.29026 -6.4159,-3.95478 -10.712977,-6.8222 -11.93662,-7.96525 -0.690098,-0.64465 -0.801056,-0.90775 -0.666523,-1.58041 0.151071,-0.75536 0.115033,-0.80167 -0.563041,-0.7236 -0.803097,0.0925 -0.604715,-0.2513 -4.246894,7.35946 -1.149059,2.40109 -2.573008,5.07737 -3.164331,5.94729 -1.057066,1.55508 -1.068638,1.59732 -0.688652,2.51354 0.847762,2.04412 2.769764,5.04472 5.920225,9.24256 3.670019,4.89013 6.496566,8.45486 7.091156,8.94313 0.54126,0.44445 1.00343,0.14471 2.89543,-1.87784 z m 57.17414,-11.09455 c 0.96129,-0.89788 2.91972,-3.97391 3.60706,-5.66546 2.13533,-5.25508 1.95051,-12.46895 -0.43664,-17.04248 l -0.87782,-1.68182 -0.0683,1.05834 c -0.31298,4.84902 -1.22806,8.60372 -2.96622,12.17083 -2.63957,5.41703 -6.9976,9.26784 -11.93358,10.54468 l -1.43626,0.37153 1.06804,0.29158 c 2.15316,0.58783 4.84201,0.79586 8.58925,0.66452 3.47512,-0.1218 3.89467,-0.18883 4.45448,-0.71172 z m 4.10668,-0.85111 2.07886,-0.71452 0.66091,-1.49019 c 1.17151,-2.64146 1.74054,-5.43405 1.59364,-7.82102 -0.0723,-1.17471 -0.28707,-2.79068 -0.47727,-3.59104 l -0.34584,-1.45521 -0.32908,2.53778 c -0.66092,5.09668 -1.87157,8.23577 -4.47663,11.6074 -0.81537,1.0553 -1.32521,1.85632 -1.13297,1.78003 0.19223,-0.0763 1.285,-0.46024 2.42838,-0.85323 z m -15.6717,-1.9273 c 0.70178,-0.62855 1.86151,-2.01828 2.57718,-3.0883 3.65601,-5.46619 4.17127,-13.41921 1.42242,-21.95492 l -0.68413,-2.12438 -0.1922,1.05834 c -0.10571,0.58208 -0.33186,2.0558 -0.50255,3.27492 -0.35962,2.5685 -1.55355,6.40389 -2.59308,8.33005 -1.05796,1.96029 -3.5708,4.53296 -5.21169,5.33577 -1.76564,0.86385 -3.87466,1.09881 -5.32448,0.59319 l -1.08261,-0.37757 0.47679,1.53194 c 0.62028,1.99297 1.93951,5.08788 2.78519,6.53407 0.55727,0.95297 1.02801,1.31855 2.80336,2.17708 l 2.13363,1.0318 1.0581,-0.58958 c 0.58196,-0.32428 1.63229,-1.10386 2.33407,-1.73241 z m -6.44996,-10.35916 c 3.62133,-1.64379 6.26836,-6.90144 6.96703,-13.83825 0.30017,-2.98028 0.14157,-8.49185 -0.28741,-9.9876 -0.16203,-0.565 0.0467,-1.72153 0.82011,-4.54318 1.14229,-4.16768 2.08361,-8.77852 2.74432,-13.44253 0.23707,-1.67349 0.48529,-3.40277 0.55161,-3.84285 0.0877,-0.58194 0.65678,-1.2858 2.08689,-2.58103 2.01229,-1.82253 4.32431,-4.84513 5.50901,-7.20216 1.75611,-3.49388 2.1876,-6.96076 1.38841,-11.15537 -0.68442,-3.59223 -2.90829,-7.187867 -4.72812,-7.644616 -0.9565,-0.240068 -2.57857,0.247279 -3.55353,1.067657 l -0.76311,0.642119 -0.17312,5.89927 c -0.4069,13.86591 -1.3549,23.18273 -3.34111,32.83586 -0.69282,3.36716 -2.49575,9.75099 -3.34222,11.83416 -2.04946,5.04375 -5.0299,9.64192 -8.73643,13.47841 l -2.71095,2.80601 0.97342,2.7597 c 0.75657,2.14495 1.12076,2.83417 1.63487,3.09403 1.00761,0.50931 3.65369,0.41348 4.96033,-0.17963 z m 11.26134,-51.07198 c 0.087,-0.50932 0.23912,-2.84683 0.33805,-5.19447 l 0.17988,-4.26843 1.22134,0.63024 c 1.04107,0.53722 1.36317,0.59066 2.18218,0.36205 0.52846,-0.14751 1.38733,-0.55762 1.9086,-0.91136 l 0.94775,-0.64316 -0.60645,1.67076 c -0.82805,2.28125 -1.61795,3.54186 -4.15719,6.63458 -1.99839,2.43397 -2.15968,2.57168 -2.01416,1.71979 z m 0.72335,-14.34062 c -0.0327,-0.51815 0.6317,-3.08964 0.97748,-3.78333 0.50743,-1.01801 1.3911,-1.98438 1.81456,-1.98438 0.18163,0 0.4718,0.44649 0.64482,0.99219 0.17303,0.5457 0.49473,1.2785 0.71491,1.62844 0.37473,0.5956 0.36862,0.62246 -0.0956,0.42036 -1.30213,-0.56685 -2.57297,0.14369 -3.55223,1.9861 -0.27071,0.50932 -0.49746,0.8426 -0.5039,0.74062 z m -18.59131,57.85225 c 1.72338,-2.09075 4.30723,-8.22693 5.60568,-13.31248 1.1875,-4.65097 2.12328,-12.72525 2.12009,-18.2929 -0.002,-3.73178 -0.23375,-3.84186 -1.08972,-0.5179 -0.93359,3.62538 -2.46554,7.35512 -3.8713,9.4252 -3.79061,5.58191 -12.41119,13.17565 -20.96221,18.46528 -3.45713,2.13856 -3.5266,2.30867 -0.26458,0.64781 4.25932,-2.16863 10.17713,-6.16773 13.93128,-9.4144 0.89549,-0.77444 1.69916,-1.40807 1.78594,-1.40807 0.26046,0 0.18889,1.96438 -0.27718,7.60768 l -0.44256,5.35873 1.16636,1.14763 c 0.6415,0.6312 1.24699,1.16657 1.34554,1.18971 0.0985,0.0231 0.52724,-0.38019 0.95266,-0.89629 z m 4.7922,-51.18454 c 0.038,-9.88239 -0.55422,-17.106122 -1.9955,-24.341667 -1.90673,-9.572261 -4.34549,-16.745703 -7.35069,-21.621554 -1.35078,-2.191609 -4.08912,-5.549621 -5.01577,-6.150812 -0.46747,-0.303287 -0.46465,-0.26636 0.0428,0.560831 1.76426,2.875724 6.3203,15.67786 8.50708,23.904244 3.31863,12.484265 4.6987,22.376008 5.35253,38.364578 0.11752,2.87378 0.43582,-4.54887 0.45952,-10.71562 z M 89.410136,100.82783 c 4.868861,-4.860434 8.550769,-10.458389 11.084664,-16.853063 1.12838,-2.847649 1.266,-3.833844 0.25976,-1.861454 -0.863542,1.692688 -4.03322,6.834081 -6.428456,10.427315 -2.750022,4.125469 -5.382327,7.594342 -8.131402,10.715622 -2.098913,2.3831 -2.139485,2.45175 -0.781764,1.32292 0.787624,-0.65484 2.586363,-2.34295 3.997198,-3.75134 z m 21.560704,-3.540354 c 2.23464,-3.205129 4.54789,-7.726189 5.65775,-11.057594 0.76468,-2.295297 1.95233,-7.316317 1.77299,-7.495654 -0.0401,-0.04009 -0.58609,1.264017 -1.21334,2.898008 -3.31918,8.646396 -6.78559,15.542146 -10.00562,19.904224 l -1.17187,1.5875 1.58023,-1.62764 c 0.86912,-0.8952 2.39006,-2.789179 3.37986,-4.208844 z M 76.78735,97.237307 C 88.024666,89.254268 93.873829,82.857671 98.683334,73.29204 99.738537,71.193345 101.825,66.517637 101.825,66.251649 c 0,-0.07495 -0.72511,0.92785 -1.61135,2.228439 -2.556911,3.752335 -5.060908,6.687793 -11.392265,13.355248 -6.453065,6.795624 -8.51392,9.072043 -11.847315,13.086542 -1.208317,1.455208 -2.727273,3.21138 -3.375458,3.902604 -0.648185,0.691224 -1.096623,1.256768 -0.996528,1.256768 0.100094,0 1.983464,-1.279773 4.185266,-2.843943 z m 94.7637,-4.351372 c 1.95039,-5.303366 3.85771,-12.475791 4.46582,-16.793664 l 0.15528,-1.102525 -2.31473,-0.528413 c -5.04816,-1.152413 -7.78035,-1.678679 -7.93132,-1.527706 -0.0871,0.0871 0.21355,1.498216 0.66812,3.135809 2.26772,8.169471 2.71473,10.730783 2.8929,16.57585 0.17064,5.598106 0.0968,5.589498 2.06393,0.240649 z m -38.47101,-3.01835 c -3.09582,-8.762861 -6.35039,-15.426934 -10.67933,-21.86706 -0.8559,-1.273307 -1.60675,-2.315104 -1.66856,-2.315104 -0.0618,0 1.98383,4.196953 4.54587,9.326562 4.36301,8.73543 7.56062,15.415645 8.49066,17.738059 0.22095,0.551741 0.44868,0.956215 0.50606,0.898832 0.0574,-0.05738 -0.48023,-1.758963 -1.1947,-3.781289 z M 77.354504,283.63593 c -0.201141,-0.59277 -0.904952,-7.11345 -1.22085,-11.31094 -0.553286,-7.35176 -0.03514,-13.32711 1.812487,-20.90208 l 0.742156,-3.04271 1.580331,-0.3156 c 11.231524,-2.24301 30.097332,-3.24972 46.030332,-2.45625 13.67354,0.68094 29.42851,2.77605 37.99627,5.05277 l 2.01293,0.5349 0.56719,2.56084 c 0.98138,4.43098 1.20713,6.41463 1.19476,10.49834 -0.015,4.94349 -0.84941,9.23815 -3.32861,17.13177 l -0.81022,2.57969 H 120.699 c -34.349577,0 -43.255331,-0.0679 -43.344496,-0.33073 z m 45.080976,-43.92432 c -1.96623,-1.30963 -2.31412,-3.87183 -0.73159,-5.38799 0.64294,-0.61597 1.02834,-0.76008 2.03275,-0.76008 1.60168,0 2.7706,0.81141 3.34838,2.3243 0.36898,0.96616 0.38136,1.27582 0.0867,2.1698 -0.66936,2.03119 -2.96589,2.83316 -4.73629,1.65397 z m -1.69277,-14.74373 c -1.64553,-1.08293 -2.14845,-3.08372 -1.1722,-4.66333 0.61017,-0.98727 2.12743,-1.60824 3.2445,-1.32787 1.86021,0.46688 3.22083,2.79997 2.56136,4.39205 -0.80683,1.94786 -2.96962,2.69428 -4.63366,1.59915 z M 62.499486,161.37176 C 53.46071,156.49938 47.545761,145.17792 46.236509,130.24375 45.851787,125.85536 46.083187,114.75139 46.65004,110.4 c 0.95728,-7.34845 2.01701,-12.816935 3.765109,-19.428953 1.080002,-4.085006 1.407966,-4.34146 0.774487,-0.605616 -0.555485,3.27588 -0.900918,7.336901 -1.231539,14.478319 -0.151583,3.27422 -0.451888,7.08422 -0.667344,8.46667 -0.563574,3.61611 -0.790966,13.7313 -0.395975,17.61434 1.390307,13.6677 6.941927,25.45827 14.297526,30.36516 1.802462,1.20242 1.460837,1.24277 -0.692818,0.0818 z M 51.446963,122.53591 c -0.521956,-2.45956 -0.682665,-3.57219 -0.656074,-4.54216 0.01901,-0.69348 0.202662,0.0328 0.488355,1.93125 0.251838,1.67349 0.422514,3.08652 0.379282,3.14008 -0.04323,0.0536 -0.138435,-0.18458 -0.211563,-0.52917 z m 0.128095,-35.838164 c 0.0127,-0.308224 0.07539,-0.370919 0.159852,-0.159852 0.07643,0.190996 0.06703,0.419199 -0.02089,0.507118 -0.08792,0.08792 -0.150453,-0.06835 -0.138964,-0.347266 z"
       id="path1" /></g></svg>
