<?xml version="1.0" encoding="UTF-8" standalone="no"?>
<!-- Created with Inkscape (http://www.inkscape.org/) -->

<svg
   width="270.93332mm"
   height="270.93332mm"
   viewBox="0 0 270.93332 270.93332"
   version="1.1"
   id="svg1"
   xml:space="preserve"
   inkscape:version="1.3.2 (091e20ef0f, 2023-11-25)"
   sodipodi:docname="defaultCharacter.svg"
   inkscape:export-filename="../assets/defaultCharacter.png"
   inkscape:export-xdpi="96"
   inkscape:export-ydpi="96"
   xmlns:inkscape="http://www.inkscape.org/namespaces/inkscape"
   xmlns:sodipodi="http://sodipodi.sourceforge.net/DTD/sodipodi-0.dtd"
   xmlns:xlink="http://www.w3.org/1999/xlink"
   xmlns="http://www.w3.org/2000/svg"
   xmlns:svg="http://www.w3.org/2000/svg"><sodipodi:namedview
     id="namedview1"
     pagecolor="#505050"
     bordercolor="#eeeeee"
     borderopacity="1"
     inkscape:showpageshadow="0"
     inkscape:pageopacity="0"
     inkscape:pagecheckerboard="0"
     inkscape:deskcolor="#505050"
     inkscape:document-units="mm"
     inkscape:zoom="0.73386633"
     inkscape:cx="-567.54205"
     inkscape:cy="530.75061"
     inkscape:window-width="3440"
     inkscape:window-height="1371"
     inkscape:window-x="0"
     inkscape:window-y="1112"
     inkscape:window-maximized="1"
     inkscape:current-layer="layer1" /><defs
     id="defs1"><inkscape:path-effect
       effect="mirror_symmetry"
       start_point="103.23639,13.84189"
       end_point="103.23639,284.72361"
       center_point="103.23639,149.28275"
       id="path-effect4"
       is_visible="true"
       lpeversion="1.2"
       lpesatellites=""
       mode="free"
       discard_orig_path="false"
       fuse_paths="false"
       oposite_fuse="false"
       split_items="true"
       split_open="false"
       link_styles="false" /><inkscape:path-effect
       effect="bspline"
       id="path-effect3"
       is_visible="true"
       lpeversion="1.3"
       weight="33.333333"
       steps="2"
       helper_size="0"
       apply_no_weight="true"
       apply_with_weight="true"
       only_selected="false"
       uniform="false" /><inkscape:path-effect
       effect="bspline"
       id="path-effect2"
       is_visible="true"
       lpeversion="1.3"
       weight="33.333333"
       steps="2"
       helper_size="0"
       apply_no_weight="true"
       apply_with_weight="true"
       only_selected="false"
       uniform="false" /><linearGradient
       id="linearGradient1"
       inkscape:collect="always"><stop
         style="stop-color:#ff34e0;stop-opacity:1;"
         offset="0.2515696"
         id="stop1" /><stop
         style="stop-color:#00e4d2;stop-opacity:1;"
         offset="0.7478013"
         id="stop2" /></linearGradient><linearGradient
       inkscape:collect="always"
       xlink:href="#linearGradient1"
       id="linearGradient2"
       x1="-30.46666"
       y1="13.03334"
       x2="240.46666"
       y2="283.96664"
       gradientUnits="userSpaceOnUse" /></defs><g
     inkscape:label="Layer 1"
     inkscape:groupmode="layer"
     id="layer1"
     transform="translate(30.46666,-13.03334)"><rect
       style="fill:url(#linearGradient2);stroke-width:0.264583"
       id="rect1"
       width="270.93329"
       height="270.93329"
       x="-30.46666"
       y="13.03334"
       sodipodi:insensitive="true" /><path
       id="path1"
       style="display:inline;fill:#000000"
       inkscape:label="main"
       d="M 105.11421 30.498941 C 101.73457 30.504542 99.442148 31.444097 97.464033 33.633633 C 96.919519 34.236344 96.396323 34.729173 96.301313 34.729173 C 96.206298 34.729173 95.513689 34.428574 94.762389 34.060997 C 91.655513 32.540945 88.458705 32.589856 85.172276 34.207758 C 83.37886 35.090652 81.481749 37.01367 80.58651 38.85657 L 80.059927 39.941258 L 78.674999 39.567638 C 76.56966 38.999958 73.410828 39.228991 71.544168 40.084402 C 68.253021 41.592596 66.241071 44.34716 65.407075 48.487507 C 65.292892 49.054368 65.11158 49.159432 64.138418 49.221312 C 62.61823 49.317976 60.570485 49.94583 59.406407 50.672386 C 57.286814 51.995325 55.229659 55.146214 54.838727 57.668342 C 54.680786 58.687319 54.98868 61.922319 55.327586 62.805496 C 55.42664 63.063626 55.068427 63.319801 54.155048 63.644204 C 51.578638 64.559264 49.2478 66.984252 48.545055 69.480541 C 48.128744 70.959353 48.197581 74.032032 48.677346 75.378889 C 48.891727 75.980725 49.387419 76.979801 49.778571 77.599425 L 50.489639 78.725971 L 49.174474 79.987393 C 46.270547 82.771886 45.498036 86.838618 47.166327 90.556257 C 47.525491 91.356621 48.139664 92.354982 48.531619 92.774726 C 49.470591 93.78027 51.466256 95.054173 52.10246 95.054173 C 52.417015 95.054173 52.556777 95.188633 52.471947 95.409707 C 52.058259 96.487761 52.010805 98.76032 52.369627 100.31018 C 52.739427 101.90744 52.731004 102.05761 52.207363 103.2206 C 51.810683 104.10162 51.623915 105.16661 51.544355 107.00228 C 51.381016 110.7708 52.35068 113.33142 55.004609 116.14126 L 55.803526 116.9872 L 55.266091 118.25792 C 53.426768 122.60372 52.299146 128.95626 52.293146 135.00626 C 52.288608 139.60841 52.775642 142.88807 54.012938 146.58695 C 54.979963 149.47786 56.63292 153.26251 56.928522 153.26251 C 57.026318 153.26251 57.020765 153.05415 56.91612 152.79949 C 55.324398 148.9259 54.727576 139.737 55.620592 132.85393 C 55.897193 130.72198 57.257459 124.74238 59.554202 115.56558 C 61.485338 107.84959 63.392158 100.10772 63.791152 98.361465 C 64.67146 94.508701 66.506076 88.815658 67.503071 86.843822 C 69.760426 82.379272 72.921881 77.860387 75.45659 75.475007 L 76.721629 74.284382 L 75.927363 75.342715 C 71.916736 80.686916 67.722313 91.141651 64.197846 104.57917 C 58.692152 125.57039 57.60943 131.69633 57.930012 140.03334 C 58.122264 145.03254 58.721226 148.08749 60.524168 153.26251 C 64.234273 163.91169 64.602151 165.48797 64.380781 169.7938 C 64.12199 174.82746 62.682843 178.29603 59.511827 181.52952 C 57.492699 183.58841 57.555265 183.65919 60.126777 182.22353 C 63.270316 180.46852 65.629662 176.82625 66.718106 172.04792 C 67.039615 170.63645 67.05044 170.70469 67.07674 174.30773 C 67.105608 178.263 66.790242 180.12364 65.744005 182.17444 C 65.333617 182.97889 65.291057 183.19295 65.590526 182.94442 C 66.238486 182.40666 68.097259 178.44939 68.596027 176.54584 C 69.201715 174.23436 69.20393 168.98445 68.600678 165.96251 C 68.353759 164.72558 67.565373 161.68949 66.848847 159.21563 C 63.77819 148.614 62.558578 142.67519 64.858271 149.52217 C 65.51135 151.4666 66.952243 155.20635 68.060143 157.83277 C 70.251473 163.02759 71.334779 166.011 71.341079 166.86891 C 71.343307 167.17084 71.465741 167.59631 71.612897 167.81459 C 71.979367 168.35819 71.668291 164.05338 71.154011 161.46459 C 70.937195 160.37319 70.177436 157.6191 69.465742 155.34403 C 68.754047 153.06897 67.933733 150.18771 67.643114 148.94132 C 67.021176 146.27401 66.309862 141.08825 66.309862 139.2215 L 66.309862 137.90789 L 67.566633 138.56728 C 69.670405 139.67132 69.73006 139.75881 70.032115 142.18153 C 71.106256 150.79696 73.891875 157.60778 78.621772 163.18335 L 80.149844 164.98479 L 79.981896 170.43459 C 79.651768 181.13319 78.279811 188.39675 75.787836 192.6384 C 74.774171 194.36378 72.551095 196.70081 70.757136 197.92696 C 68.135659 199.71873 62.247348 202.29271 58.188394 203.4212 L 56.568854 203.8713 L 55.743582 202.93183 C 54.896994 201.96761 52.363397 200.19404 52.144835 200.4126 C 51.654853 200.90258 51.367094 237.29412 51.810488 242.69167 C 52.226168 247.75186 53.890606 251.76524 56.753339 254.60981 C 60.21852 258.05301 62.149459 258.76477 76.49632 261.88378 C 83.239264 263.3497 89.564759 264.92342 92.239028 265.80086 L 92.239545 265.80086 C 95.817127 266.97469 95.411888 266.66182 90.408132 264.38699 C 86.418021 262.57299 81.652059 260.88888 76.232254 259.37696 C 63.887966 255.93337 62.116483 255.24101 59.777961 252.94996 C 59.014008 252.20152 58.057531 250.88957 57.62202 249.99252 C 56.059649 246.77439 55.991629 245.96889 55.991629 230.68931 L 55.991629 216.80643 L 57.358987 216.51343 C 59.584357 216.03617 63.314577 215.71424 66.707254 215.70624 C 81.478696 215.67274 90.026181 213.10333 95.282254 207.11658 C 97.137212 205.00376 99.23584 201.63361 100.65505 198.4892 L 101.79503 195.96378 L 106.34359 195.64287 C 115.92789 194.96677 124.28635 192.37158 129.22282 188.53839 C 130.37803 187.64136 130.96351 187.1807 131.17619 186.49252 C 131.36524 187.32277 131.56172 188.10443 131.77873 188.80039 C 132.25492 190.32749 132.82055 191.47174 133.50731 192.59137 C 134.19405 193.71095 135.00994 194.82016 136.22394 196.03871 C 137.43793 197.25727 139.03523 198.57358 140.83916 199.66743 C 142.64315 200.76131 144.64413 201.62462 146.92716 202.22799 C 149.20339 202.82954 151.74697 203.17194 154.2833 203.51215 L 154.25953 224.11916 C 154.23548 244.81135 154.22417 245.24427 153.66784 247.28312 C 152.59397 251.21868 150.51965 253.77553 147.08374 255.39891 C 146.12384 255.85245 141.69577 257.27856 137.24352 258.56822 C 129.09545 260.92842 126.27323 261.84096 122.65061 263.28628 C 119.97237 264.35482 115.52236 266.43877 115.52236 266.62458 C 115.52236 266.70773 115.96885 266.58933 116.51455 266.36103 C 117.78672 265.82881 128.19628 263.2132 135.98675 261.46831 C 146.85403 259.03426 149.52686 258.07707 152.65808 255.49864 C 156.00788 252.74023 157.83672 248.73487 158.38538 242.95626 C 158.74582 239.15989 158.72645 208.05421 158.36109 203.97569 C 158.20242 202.20439 157.99214 200.67015 157.89394 200.56608 C 157.79576 200.46202 156.94368 200.97464 155.99999 201.70503 L 154.31224 203.01089 C 151.78874 202.67237 149.27543 202.33234 147.05429 201.74534 C 144.81534 201.15363 142.86272 200.30896 141.0991 199.23955 C 139.33541 198.17011 137.76567 196.87745 136.57947 195.68679 C 135.39328 194.49615 134.60455 193.42399 133.93312 192.32937 C 133.26172 191.23478 132.71916 190.14 132.25519 188.65208 C 131.79122 187.16416 131.40594 185.27473 131.01134 183.22605 C 130.61673 181.17737 130.21448 178.97459 129.89978 176.81766 C 129.58508 174.66074 129.357 172.54896 129.25176 170.45836 C 129.14652 168.36776 129.16403 166.29298 129.18096 164.21223 A 0.25 0.25 0 0 0 129.17476 164.17915 C 129.85765 163.39154 130.54811 162.54409 131.25112 161.57828 C 132.6904 159.60094 134.17796 157.14034 135.24674 154.8407 C 136.31544 152.54123 136.9533 150.42836 137.54582 147.9388 C 138.11188 145.56048 138.61591 142.92496 139.12867 140.22609 C 139.88302 139.44912 142.14014 137.91667 142.64112 137.91667 C 142.73292 137.91667 142.7367 138.72035 142.6499 139.70261 C 142.11459 145.76217 141.49577 148.78553 139.48162 155.18487 C 137.93552 160.09711 137.49057 162.54935 137.52567 165.96251 C 137.55644 168.95527 137.56002 168.97283 137.74788 167.01619 C 138.01785 164.2044 138.56564 162.52375 140.97817 157.10258 C 142.14468 154.48135 143.61496 150.84818 144.24567 149.02917 C 144.87639 147.21017 145.39881 145.90048 145.40581 146.11876 C 145.44302 147.24246 144.47039 151.59007 143.26744 155.67683 C 141.30951 162.32849 140.7481 164.58303 140.37873 167.28594 C 139.99472 170.09602 140.17788 174.34381 140.78335 176.67813 C 141.26144 178.52133 142.73261 181.61818 143.67413 182.76355 C 144.2976 183.522 144.29196 183.4867 143.55683 181.9698 C 142.59332 179.98166 142.24368 177.78778 142.27008 173.90001 L 142.29075 170.8573 L 142.7791 172.74607 C 143.90155 177.08759 146.83061 181.066 150.08356 182.66743 C 151.01719 183.12705 151.83642 183.44775 151.90412 183.38005 C 151.97181 183.31236 151.50351 182.88781 150.86387 182.43695 C 147.55633 180.10558 145.26677 175.32188 144.96346 170.10954 C 144.75264 166.48658 145.21551 163.84033 146.92096 158.91849 C 151.03919 147.0335 151.50777 144.89928 151.56357 137.78438 C 151.62205 130.32815 150.84252 125.85925 146.75095 110.20777 C 142.15956 92.644386 137.75582 81.17032 133.16728 74.813548 C 132.73596 74.21602 133.35712 74.734426 134.59407 76.004173 C 138.50884 80.02273 141.98662 86.002016 144.07462 92.30447 C 144.64797 94.035095 145.8378 98.48714 146.71839 102.19792 C 147.59897 105.9087 149.39949 113.17152 150.7197 118.33751 C 153.81802 130.46132 154.17598 132.5006 154.34583 138.98379 C 154.49553 144.69796 154.23567 147.50207 153.23582 150.95412 C 152.88947 152.14991 152.63865 153.16091 152.67875 153.20101 C 152.85479 153.37706 154.81469 148.92565 155.62224 146.51563 C 156.93936 142.58486 157.35343 139.77672 157.33893 134.87396 C 157.32109 128.85274 156.72892 125.27653 154.7887 119.47439 L 153.88591 116.77481 L 154.95148 115.63793 C 158.23418 112.13689 159.20873 107.41419 157.49086 103.33274 C 156.84808 101.80555 156.83916 101.70461 157.22938 100.45281 C 157.50718 99.56291 157.59353 98.532058 157.50533 97.17084 L 157.37665 95.186465 L 159.00446 94.392715 C 162.1358 92.865857 163.87644 89.704976 163.61297 86.022683 C 163.45094 83.758044 162.56383 81.906852 160.74544 80.039586 L 159.39307 78.65104 L 160.22248 77.39892 C 162.02858 74.672192 162.27114 71.437934 160.89944 68.381383 C 159.97152 66.313708 157.97849 64.382952 156.06097 63.694847 C 154.69821 63.205817 154.66827 63.173208 154.87035 62.388984 C 154.98434 61.946537 155.07592 60.393756 155.07292 58.938548 C 155.06842 56.544897 154.9938 56.145655 154.29209 54.75069 C 152.83953 51.863032 149.25289 49.288629 146.66723 49.277639 C 144.99858 49.270547 144.70502 49.065266 144.52886 47.780056 C 144.20188 45.394431 142.58282 42.782161 140.45986 41.215599 C 138.05678 39.442336 134.13548 38.747334 131.31881 39.595026 L 130.0977 39.962446 L 129.53029 38.867422 C 128.07054 36.049984 125.95562 34.311062 122.83199 33.359748 C 119.9949 32.495699 117.49726 32.818652 114.9503 34.37829 L 113.98085 34.971536 L 113.28839 34.064098 C 111.64278 31.906594 108.40344 30.493441 105.11421 30.498941 z M 105.17364 35.693972 C 107.18421 35.712382 109.44081 36.560834 110.62292 37.742943 C 111.2453 38.36537 111.28903 38.582163 111.28903 41.034215 C 111.28903 42.477846 111.2208 44.001165 111.1371 44.419538 L 110.98517 45.180215 L 105.07545 45.180215 L 99.166254 45.180215 L 99.012775 44.254173 C 98.810039 43.029368 98.858857 39.268829 99.088223 38.43334 C 99.222179 37.945389 99.807921 37.497411 101.32219 36.724917 C 103.13716 35.799021 103.58336 35.679412 105.17364 35.693972 z M 119.34332 37.949649 C 121.21193 38.021652 123.07292 38.91248 124.95228 40.630105 L 126.42506 41.975759 L 126.24832 43.309011 C 126.15106 44.042129 125.76562 45.566571 125.39204 46.696918 C 125.01846 47.827265 124.58005 48.743916 124.41743 48.733486 C 124.25481 48.723057 123.12085 48.359627 121.89768 47.926301 C 119.55583 47.096663 115.36845 45.983569 113.47184 45.686127 C 112.85338 45.589135 112.34736 45.424399 112.34736 45.320258 C 112.34736 44.893873 113.38188 42.168027 114.0253 40.898306 C 114.82944 39.311389 115.73765 38.586636 117.47108 38.150153 C 118.09671 37.992618 118.72045 37.925647 119.34332 37.949649 z M 91.095429 37.950165 C 91.752651 37.926316 92.400747 37.998152 93.032778 38.16824 C 94.840228 38.654649 95.909117 39.952655 96.939 42.914203 C 97.413439 44.278504 97.770233 45.42076 97.732233 45.45255 C 97.694231 45.484341 96.412828 45.773507 94.884862 46.094888 C 93.356894 46.416269 90.715079 47.145896 89.013902 47.715978 C 87.312725 48.286058 85.81108 48.75209 85.676638 48.75209 C 85.219996 48.75209 83.772362 44.209232 83.772362 42.775711 C 83.772362 42.082008 84.030244 41.690191 85.149539 40.683849 C 87.072814 38.954659 89.123763 38.021714 91.095429 37.950165 z M 77.958246 43.812857 C 79.164132 43.912419 80.298797 44.391977 81.218513 45.268582 C 82.111503 46.119715 84.301528 49.037606 84.301528 49.376341 C 84.301528 49.444621 83.319261 49.979358 82.118716 50.564382 C 79.764344 51.711664 74.609048 54.989489 74.016885 55.715489 C 73.817165 55.960348 73.563009 56.160423 73.452578 56.160423 C 72.846755 56.160423 70.498441 52.007913 70.188695 50.389199 C 69.961423 49.201493 70.512031 47.987834 71.99892 46.398229 C 73.740874 44.535939 75.948437 43.64692 77.958246 43.812857 z M 132.45414 43.822675 C 134.85662 43.751925 137.33773 45.126141 138.92662 47.485501 C 140.17269 49.335756 140.17941 50.490548 138.95711 52.835562 C 138.45808 53.792952 137.77347 54.926175 137.43575 55.353754 C 137.09803 55.781334 136.76183 56.136453 136.68903 56.142853 C 136.61627 56.149291 136.19956 55.874935 135.76299 55.533071 C 134.00928 54.159769 129.76151 51.431841 127.73557 50.377831 L 125.58635 49.259553 L 126.93045 47.412637 C 128.60945 45.104213 129.6263 44.320119 131.43199 43.943081 C 131.76916 43.872678 132.11093 43.832782 132.45414 43.822675 z M 103.18203 53.135802 C 111.12288 52.878214 119.17139 54.225062 125.48093 57.236327 C 132.61334 60.640318 138.73169 67.788909 142.33985 76.934349 C 143.65985 80.280088 144.49045 83.559391 145.29936 88.617357 C 145.68297 91.015988 145.94116 93.034661 145.87296 93.102871 C 145.80475 93.171084 145.66688 92.655667 145.56652 91.957722 C 145.28387 89.992181 143.43592 84.68398 141.9931 81.692715 C 138.41743 74.279622 132.08867 67.362819 125.55327 63.725336 C 123.60325 62.639985 123.80215 62.539844 126.31498 63.341897 C 128.84915 64.150758 130.83662 65.203562 132.76317 66.758226 C 134.10252 67.839039 133.87995 67.561335 131.65781 65.377432 C 127.29458 61.089275 123.55477 59.045627 116.97757 57.356216 C 112.73391 56.266194 109.53442 55.867235 105.07132 55.871035 C 98.890308 55.876318 91.186232 57.439669 85.950523 59.751419 C 83.668856 60.758856 80.272004 63.144959 77.997004 65.338158 L 75.967153 67.294627 L 77.714334 66.131391 C 78.675324 65.491428 80.444311 64.592537 81.644843 64.134097 C 84.910312 62.887133 85.467172 62.833412 83.671076 63.938243 C 73.746323 70.043248 67.206457 79.277967 64.352359 91.217715 C 63.839087 93.365066 63.837811 92.11532 64.349775 88.429255 C 65.413051 80.773812 67.739361 74.626284 72.042328 68.101297 C 74.030487 65.086469 79.035047 60.106524 81.528054 58.662079 C 87.407707 55.255417 95.241183 53.39339 103.18203 53.135802 z M 143.77025 53.28463 C 144.41328 53.319284 145.05312 53.515619 145.83886 53.881493 C 148.94095 55.325955 151.15327 60.1157 149.71821 62.280463 C 149.46451 62.663171 148.66142 63.441823 147.93382 64.01059 C 147.20621 64.579358 146.24255 65.302845 145.79183 65.618761 L 144.97224 66.193403 L 143.41213 63.888634 C 142.55411 62.621244 140.92868 60.619466 139.79995 59.43981 C 138.67122 58.260155 137.74736 57.18426 137.74736 57.049258 C 137.74736 56.491556 140.59015 54.041835 141.68356 53.657217 C 142.48111 53.376669 143.12722 53.249976 143.77025 53.28463 z M 66.442153 53.395217 C 68.370982 53.406812 69.264537 53.845713 71.048591 55.658128 L 72.380292 57.011017 L 70.07294 59.508539 C 68.803775 60.88234 67.191609 62.864281 66.490729 63.912405 C 65.789849 64.960529 65.121953 65.852346 65.006065 65.894196 C 64.543933 66.061077 60.575503 62.827691 60.235814 62.007612 C 59.508119 60.250799 60.307374 57.325533 62.017617 55.486563 C 63.409973 53.989407 64.689022 53.384677 66.442153 53.395217 z M 59.164045 65.950007 C 60.207016 65.950007 63.309546 66.835742 63.747744 67.258454 C 63.866364 67.372882 63.254346 68.940743 62.387621 70.742996 C 60.899387 73.8376 59.695278 77.072576 59.695278 77.977696 C 59.695278 78.462977 59.404755 78.465991 57.896939 77.995266 C 54.75549 77.014538 53.818402 76.014626 53.656371 73.469961 C 53.396595 69.390263 55.916259 65.950007 59.164045 65.950007 z M 150.69851 65.980496 C 151.54858 65.934782 152.2612 66.053497 152.81156 66.338097 C 154.21181 67.062189 155.64695 69.002223 156.14572 70.844798 C 156.53625 72.287545 156.56127 72.788683 156.30437 74.067857 C 155.92705 75.94667 155.09688 76.86917 153.11748 77.60976 C 150.25475 78.680847 150.35711 78.717887 149.67015 76.35919 C 149.33785 75.218237 148.31322 72.706802 147.39328 70.778652 C 146.47334 68.850503 145.74249 67.272373 145.76909 67.271373 C 145.79568 67.270358 146.69175 66.972701 147.7607 66.609915 C 148.86081 66.23656 149.84844 66.026209 150.69851 65.980496 z M 117.54808 66.743757 C 117.94171 66.743757 122.42528 71.376547 124.33371 73.755215 C 126.86042 76.904504 128.14828 79.477194 129.36648 83.809382 C 130.8363 89.036426 130.87695 88.859095 128.72672 86.587507 C 126.93736 84.697152 126.87961 84.659986 127.50819 85.79634 C 127.87111 86.45242 128.6594 88.169997 129.26002 89.613162 C 129.86065 91.056326 130.31378 92.352389 130.26668 92.493606 C 130.17477 92.769316 128.94505 91.795706 126.67259 89.647785 C 125.44488 88.487358 125.308 88.413721 125.65353 89.101048 C 125.873 89.53761 126.55658 90.466756 127.1723 91.165522 C 128.29166 92.435869 128.29146 92.435897 127.52938 92.254344 C 126.02712 91.896454 123.99096 90.725171 122.78755 89.526862 C 121.11654 87.86295 119.9652 85.819504 118.15011 81.29584 C 116.6814 77.635423 116.64939 77.50824 117.45558 78.515648 C 118.97158 80.410015 122.40153 83.474779 122.40153 82.935016 C 122.40153 82.517864 121.39753 77.772125 121.18713 77.194798 C 120.88123 76.355429 121.32097 76.895952 122.8537 79.243252 C 124.08442 81.12808 124.25639 81.30083 124.10633 80.50209 C 123.56671 77.629912 120.84553 71.709562 118.54233 68.397402 C 117.90988 67.487898 117.46238 66.743757 117.54808 66.743757 z M 123.98903 68.422207 C 123.98903 68.343366 124.70265 68.896847 125.57446 69.652106 C 130.1105 73.581741 131.76941 75.984995 132.97091 80.366181 C 133.24969 81.382733 133.45371 82.23877 133.42411 82.26839 C 133.34594 82.346554 129.34401 78.02424 128.02806 76.440322 C 127.35697 75.632572 126.52679 74.133841 125.9579 72.7036 C 125.4355 71.390205 124.77872 69.922009 124.49856 69.44075 C 124.21841 68.959489 123.98903 68.501047 123.98903 68.422207 z M 104.9783 75.990737 L 105.98031 76.784487 C 107.1401 77.703059 109.80853 80.512641 111.23477 82.316966 C 113.01632 84.570797 114.54803 86.327836 114.64593 86.229906 C 114.6989 86.176942 114.50086 85.570722 114.20616 84.883218 C 113.91146 84.195715 113.67028 83.566594 113.67028 83.484854 C 113.67028 83.307555 116.81486 86.706244 117.35274 87.464972 C 117.559 87.755928 118.47545 89.719331 119.38931 91.827497 L 121.05071 95.660338 L 120.10865 94.762201 C 119.15366 93.851913 116.16676 90.50618 115.03919 89.083995 L 114.4232 88.307298 L 114.88984 89.101048 C 117.67711 93.840601 119.16603 96.162047 120.17841 97.347057 C 120.84168 98.123423 121.28583 98.752938 121.16543 98.745938 C 120.64824 98.715869 117.66378 97.017673 116.4484 96.061864 C 112.62186 93.052552 109.74749 88.361344 106.38338 79.635476 L 104.9783 75.990737 z M 58.328954 79.995661 C 59.079343 79.991125 58.912969 80.498564 58.504653 83.147923 C 58.291593 84.53037 58.115546 87.00092 58.112946 88.638027 L 58.107778 91.61459 L 56.321841 91.598054 C 53.037247 91.566933 51.993893 90.500899 51.811005 86.990583 C 51.570731 82.378809 52.975636 80.600666 57.247883 80.110899 C 57.726682 80.05601 58.078824 79.997173 58.328954 79.995661 z M 152.19764 80.237507 C 156.28443 80.237507 158.10308 82.148823 158.11408 86.455215 C 158.12017 88.840195 157.67707 90.032707 156.44906 90.933495 C 155.88091 91.350249 155.20437 91.502676 153.60479 91.575316 L 151.5057 91.670917 L 151.50363 88.269575 C 151.50188 85.27854 151.27804 82.779053 150.837 80.832819 C 150.7094 80.269758 150.78296 80.237507 152.19764 80.237507 z M 101.07673 87.451537 C 101.12637 87.401887 101.5637 87.990983 102.04825 88.760501 C 103.35249 90.831758 106.43826 95.191706 108.09439 97.303132 C 111.5847 101.75298 115.07996 104.7864 118.81105 106.60386 C 120.11017 107.23668 121.32314 107.75417 121.50701 107.75417 C 121.69089 107.75417 121.90408 107.85579 121.98088 107.98 C 122.05764 108.10421 120.04297 108.71755 117.50364 109.34271 C 114.96431 109.96788 112.52045 110.70199 112.07296 110.97413 C 111.00348 111.62452 110.37355 113.01729 110.90352 113.55899 C 111.59543 114.26622 115.49979 113.69379 122.53434 111.85418 C 127.01926 110.68132 128.6674 110.51897 131.02994 111.01754 C 133.5812 111.55595 136.48198 113.04159 137.16445 114.15947 C 137.85646 115.29298 138.67558 117.99678 139.2527 121.0531 C 139.85694 124.25511 139.85254 131.99581 139.24443 135.3189 C 138.88651 137.27479 138.67428 139.17054 138.65583 140.09225 C 138.14054 142.80407 137.63428 145.44638 137.06937 147.81994 C 136.48084 150.29266 135.85618 152.36374 134.80491 154.62573 C 133.7537 156.88754 132.27645 159.32925 130.85683 161.27959 C 129.4372 163.22992 128.07054 164.69594 126.69429 166.17283 A 0.24484073 0.25004711 0 0 0 126.68912 166.18678 C 126.30576 166.51095 126.11703 166.64206 125.51193 167.19861 C 118.58272 173.5718 113.57056 176.8282 109.29742 177.73336 C 102.91581 179.08516 97.551581 176.78526 95.111205 171.65105 C 94.213682 169.76279 94.166208 168.92089 94.905532 167.98099 C 95.842058 166.79039 96.402307 166.6435 100.57392 166.49529 C 104.19059 166.36679 104.67177 166.29116 105.99788 165.6416 C 106.79825 165.24956 107.97485 164.39659 108.61271 163.7461 L 109.77233 162.56375 L 108.61271 162.82988 C 107.97485 162.97639 106.26245 163.05225 104.80725 162.99835 C 102.35249 162.90744 102.02606 162.8286 100.28867 161.90901 C 99.258713 161.36386 98.008559 160.56577 97.510541 160.13547 C 96.627472 159.37248 96.617976 159.3433 97.126069 158.94846 C 98.054843 158.22673 99.663508 157.98119 103.2859 158.00899 C 109.29617 158.05513 115.45031 157.03318 116.06393 155.88664 C 116.31614 155.41537 116.22718 155.37723 114.80458 155.35023 C 113.96271 155.33428 112.8572 155.27291 112.34788 155.21381 C 111.83856 155.15468 109.69543 155.01883 107.58538 154.91202 L 103.74892 154.71771 L 103.66779 154.01647 C 103.60363 153.46221 103.32596 153.20462 102.34487 152.78863 C 100.54194 152.02416 99.618134 151.88442 98.309976 152.17834 C 97.671086 152.32187 97.104501 152.39502 97.050621 152.34112 C 96.829527 152.12003 101.31408 147.74049 102.03843 147.4701 C 102.46983 147.30906 103.1856 147.04132 103.62903 146.8753 C 104.48455 146.555 105.11198 145.62197 105.20568 144.53126 C 105.30312 143.39662 105.22159 143.14494 104.80725 143.30394 C 104.57549 143.39288 104.41038 143.30798 104.41038 143.09982 C 104.41038 142.90376 104.0542 142.59632 103.61921 142.41614 C 103.18422 142.23596 102.39381 141.60718 101.86273 141.01933 L 100.89741 139.95066 L 101.13254 134.10502 C 101.68379 120.40103 101.3486 118.39147 97.695543 113.49956 C 96.702732 112.17006 96.009819 111.53655 95.024905 111.05785 C 92.862427 110.00682 86.267727 108.44339 80.411843 107.59346 L 79.56435 107.47047 L 80.296605 106.22352 C 82.722456 102.09048 85.241253 94.007125 85.406371 89.826069 C 85.441432 88.938281 85.555253 88.264326 85.659068 88.328486 C 85.762884 88.392647 86.05246 89.009743 86.30244 89.699461 C 86.552419 90.389179 87.634686 92.763868 88.707978 94.976659 C 90.484651 98.639603 90.850552 99.196448 92.791966 101.19437 C 94.673709 103.13089 94.826665 103.2399 94.092662 102.12351 C 93.63519 101.4277 92.905176 99.998958 92.470539 98.948509 C 91.672587 97.020003 90.584748 93.445605 90.746613 93.283739 C 90.794824 93.235529 91.170134 93.986415 91.580671 94.952371 C 93.197132 98.755757 96.519623 102.91683 99.776036 105.21634 C 102.14246 106.88739 102.2625 106.91948 101.0695 105.55948 C 100.46905 104.87496 99.527405 103.45136 98.977118 102.39636 L 97.976663 100.47813 L 99.412234 101.82379 C 101.01366 103.32529 104.44608 105.13456 106.92392 105.78323 C 108.70926 106.2506 113.37344 106.60207 114.09868 106.32377 C 114.4779 106.17825 114.28363 105.97813 113.12974 105.32538 C 111.31339 104.29786 107.57218 100.52747 105.95705 98.096882 C 105.28015 97.078237 104.28106 95.351828 103.73703 94.260423 C 102.71403 92.208133 100.91769 87.610568 101.07673 87.451537 z M 121.83412 113.64115 C 117.32714 113.80577 114.31976 115.62787 113.04551 118.99276 C 112.85639 119.49215 112.87483 119.49063 113.45737 118.95762 C 114.19483 118.28286 115.61041 117.54376 116.16522 117.54376 C 116.40514 117.54376 116.11309 117.96431 115.4464 118.57884 C 114.8288 119.14813 114.05026 120.0996 113.71679 120.69292 L 113.11062 121.77141 L 114.3829 121.22829 C 115.08256 120.92945 115.981 120.37396 116.37967 119.99374 C 116.77833 119.61353 117.14178 119.35328 117.18738 119.41548 C 117.23294 119.47764 117.48791 119.88531 117.75375 120.32188 C 118.01958 120.75844 118.53225 121.43358 118.89322 121.82205 L 119.54951 122.52847 L 118.59453 122.31297 C 117.01393 121.95649 117.51916 122.51338 119.29267 123.08244 C 121.39809 123.758 125.34174 123.6914 127.16403 122.94911 C 129.11774 122.15328 132.54643 119.99366 133.64942 118.86409 L 134.67985 117.80834 L 133.40344 117.80834 C 132.34582 117.80834 132.17845 117.74549 132.43037 117.44195 C 132.67169 117.15117 132.61028 117.04388 132.1322 116.92157 C 131.80087 116.8368 130.95287 116.28842 130.24756 115.70304 C 128.6876 114.40833 126.99452 113.87031 123.85674 113.67216 C 123.15237 113.62768 122.47798 113.61764 121.83412 113.64115 z M 125.78013 119.4284 C 126.06489 119.4003 126.43881 119.56158 126.89634 119.91312 L 127.55419 120.41903 L 126.9289 121.08463 C 126.58495 121.45076 125.7614 121.93484 125.09904 122.16053 C 123.2092 122.80446 122.9421 122.6794 124.04432 121.66702 C 124.58401 121.17133 125.10314 120.4578 125.19774 120.08107 C 125.29983 119.6743 125.49538 119.45649 125.78013 119.4284 z M 89.727554 119.68678 C 89.96936 119.62671 90.500447 119.97236 91.883495 120.99574 C 93.192785 121.96454 94.161953 122.89666 94.362413 123.38061 C 94.818862 124.48257 94.547086 128.51651 93.840481 131.12484 C 92.797402 134.9752 90.120844 141.02993 87.533889 145.39115 C 86.45133 147.21613 85.895045 147.84155 85.886445 147.24324 C 85.884876 147.1341 85.424496 146.56491 84.863251 145.9782 C 83.227699 144.26843 79.989437 139.35347 78.384577 136.14469 C 76.669641 132.71583 75.834862 129.97626 75.834862 127.77569 C 75.834862 126.37343 75.919266 126.13789 76.702509 125.35465 C 77.710941 124.34621 78.860491 124.05916 83.507778 123.65449 C 85.181267 123.50877 87.1458 123.17542 87.873403 122.91397 L 89.19632 122.43855 L 88.220152 122.35742 L 87.243985 122.27628 L 88.316271 121.30735 C 88.906076 120.7745 89.466166 120.12856 89.561156 119.87178 C 89.598194 119.77166 89.646952 119.7068 89.727554 119.68678 z M 108.59927 142.15001 C 107.22682 142.15001 105.44413 143.49552 106.19735 143.96282 C 106.64801 144.24241 110.31162 143.89991 110.42086 143.56801 C 110.55156 143.17091 109.24012 142.15001 108.59927 142.15001 z M 128.6797 164.73519 C 128.66499 166.64116 128.65636 168.55213 128.7536 170.48368 C 128.85981 172.59353 129.08929 174.72102 129.40575 176.89001 C 129.40813 176.90633 129.41111 176.92277 129.4135 176.9391 C 129.24691 177.03067 128.96332 177.24886 128.60322 177.62743 C 127.45177 178.83791 123.82779 181.1755 121.6977 182.08194 C 120.67045 182.51907 118.77537 183.18228 117.48658 183.55575 C 114.87056 184.31385 109.38086 185.35609 108.69694 185.22438 C 108.398 185.16681 109.2969 184.2352 111.45594 182.36409 C 120.33032 174.67323 122.62546 172.46475 125.09439 169.24241 C 125.83484 168.276 126.49954 167.30683 126.97851 166.55007 A 0.24484073 0.25004711 0 0 0 127.04827 166.51855 C 127.58908 165.93819 128.13306 165.34765 128.6797 164.73519 z M 29.677989 191.794 C 29.001063 191.75618 28.407618 192.0228 27.891535 192.59602 C 27.32744 193.22258 26.152144 195.76566 25.942817 196.8123 L 25.785204 197.59934 L 28.78347 198.48094 C 34.010228 200.01825 38.616493 202.70298 40.618923 205.37922 L 41.306737 206.29906 L 39.98382 205.21076 C 37.950566 203.53813 34.66661 201.81386 30.855695 200.41828 C 30.637414 200.33834 31.028584 200.78244 31.724893 201.40479 C 34.4911 203.8772 34.470699 207.1298 31.676834 209.01259 C 30.680351 209.68412 30.614583 209.6417 33.605398 210.25903 C 37.324271 211.02664 39.987611 212.28835 42.232778 214.3456 L 43.423403 215.43649 L 41.879828 214.52905 C 40.138067 213.50499 36.48504 212.11598 34.930899 211.88684 C 34.36315 211.80314 34.076997 211.80917 34.295278 211.90027 C 35.036838 212.20988 36.189399 213.45176 36.565941 214.34715 C 37.343861 216.19699 36.73391 218.43914 35.105565 219.71426 L 34.313365 220.33438 L 36.342699 220.41551 C 38.490083 220.50169 41.046443 221.21573 42.36507 222.09758 C 43.208659 222.66175 43.179109 222.65912 40.645278 221.94255 C 39.844915 221.71621 38.535225 221.5318 37.734862 221.53276 L 36.279653 221.53483 L 38.210285 222.42108 L 40.141433 223.30681 L 38.007713 223.49285 C 36.805016 223.59776 35.941226 223.78615 36.026956 223.92486 C 36.110589 224.06018 36.353128 224.17084 36.565941 224.17084 C 37.894819 224.17084 40.116112 226.79453 40.116112 228.36387 C 40.116112 229.23647 39.43975 230.69241 38.884146 231.01538 C 38.495966 231.24103 38.720557 231.30332 39.98382 231.32182 C 40.856944 231.33463 42.047571 231.44379 42.629653 231.56419 L 43.687987 231.7833 L 42.743858 231.81327 C 41.589261 231.85048 39.179572 232.54572 38.373066 233.07417 C 37.301477 233.7763 37.394451 234.17768 38.792162 234.88595 C 41.711398 236.36524 43.230451 238.68361 42.931961 241.20391 C 42.8463 241.92717 42.653984 242.641 42.504597 242.79038 C 42.031046 243.26393 42.203027 243.434 43.357258 243.63167 L 44.481737 243.82442 L 43.019294 244.38253 L 41.556334 244.94063 L 42.54077 245.94936 C 43.383893 246.81287 44.333602 248.66468 44.045071 248.88251 C 43.994188 248.92092 42.897903 248.5386 41.608527 248.03295 C 38.579043 246.8449 37.470278 245.80657 37.470278 244.15722 C 37.470278 243.21638 37.603231 242.88998 38.167394 242.44621 C 38.55082 242.14461 39.056837 241.89579 39.291873 241.89379 C 39.526909 241.89156 39.882079 241.78674 40.080972 241.66073 C 41.038473 241.05414 38.921269 238.13592 37.26719 237.78241 C 35.288043 237.35944 34.38039 236.84907 33.812621 235.83886 C 32.75004 233.94825 33.111591 232.56512 35.200133 230.53221 C 37.062617 228.71933 36.709142 227.4362 34.140766 226.68955 C 30.816552 225.72318 28.944209 222.47707 30.193203 219.84501 C 30.410901 219.38625 31.124471 218.59454 31.778636 218.08542 C 33.136693 217.0285 33.464595 216.22717 32.940322 215.24632 C 32.497192 214.41728 31.474837 213.96402 29.491954 213.71825 C 26.756433 213.37919 25.290636 211.82285 25.83843 209.8389 C 26.133113 208.77165 26.678958 208.13901 28.327167 206.95535 C 29.638639 206.01352 29.732159 205.74405 29.141588 204.60201 C 28.499375 203.3601 27.527195 202.80827 24.945978 202.22024 C 23.599931 201.9136 22.121752 201.4339 21.660908 201.15364 C 20.760317 200.60596 19.748367 198.90796 19.734927 197.9218 C 19.727894 197.40584 19.627878 197.47267 19.059516 198.37396 C 18.506551 199.25082 18.408384 199.68605 18.486424 200.91179 L 18.580475 202.39129 L 16.846731 203.27547 C 14.122739 204.66479 11.194289 207.77642 9.5076442 211.07396 C 8.1694906 213.69017 1.9989828 228.93505 0.97276464 232.16002 C -0.12508251 235.61008 -0.28713867 239.68079 0.55780289 242.58729 C 1.2160644 244.85162 2.6547667 247.61129 4.4051133 249.96771 C 5.2698516 251.13188 6.3426635 252.79875 6.7894639 253.67188 C 7.5879662 255.23229 7.5987961 255.30679 7.4343857 258.03751 C 7.2872587 260.48116 6.8791039 263.08692 6.3739853 264.8035 C 6.2330656 265.2824 6.5178523 265.49355 8.6229437 266.47162 C 22.686734 273.00593 41.345586 279.10402 58.901528 282.90266 L 63.531737 283.90414 L 105.00001 283.93515 L 146.46879 283.96667 L 151.43438 282.92849 C 165.08146 280.0761 178.6392 275.9797 192.38382 270.55561 C 195.28217 269.41182 202.18791 266.31575 203.09945 265.75125 C 203.46324 265.52596 203.7886 265.32713 203.8224 265.30993 C 203.85618 265.29273 203.63829 264.453 203.33819 263.4439 C 202.59174 260.93388 202.34851 255.89291 202.89687 254.29717 C 203.11506 253.66222 204.23224 251.83285 205.37941 250.23178 C 207.5412 247.21464 208.97721 244.44606 209.60706 242.08034 C 210.16625 239.98005 210.0834 235.51754 209.43963 233.0597 C 208.93934 231.14965 204.04094 218.51287 201.77601 213.28933 C 199.73879 208.59095 197.07238 205.35743 193.60493 203.38038 L 191.80814 202.35615 L 191.82158 200.89422 C 191.83272 199.70073 191.69172 199.217 191.0516 198.25873 L 190.26715 197.08464 L 190.12763 198.28146 C 189.8518 200.64491 188.94276 201.35558 185.05042 202.25176 C 183.02431 202.71826 182.44295 202.96994 181.7178 203.69509 C 180.40371 205.00919 180.58714 205.96584 182.42112 207.36411 C 184.55196 208.98872 185.05391 210.31358 184.17915 212.00517 C 183.67954 212.97132 183.12635 213.27009 181.20621 213.61024 C 178.68175 214.05744 177.98698 214.36382 177.54132 215.22565 C 176.96724 216.33579 177.23127 217.06088 178.626 218.20376 C 180.7079 219.90971 181.13987 221.68647 180.01455 223.91401 C 179.32033 225.28822 178.15833 226.13908 176.19721 226.70919 C 174.80022 227.11531 173.99528 227.8426 173.99528 228.69873 C 173.99528 228.94157 174.5798 229.72752 175.29391 230.44539 C 176.87784 232.03766 177.35442 233.35222 176.92585 234.94383 C 176.55685 236.31418 175.45473 237.26838 173.96582 237.50646 C 172.40172 237.75658 171.16619 238.58441 170.54743 239.79728 C 169.80143 241.25955 169.86667 241.7998 170.81201 241.98887 C 171.96033 242.21854 172.67236 243.05133 172.67236 244.16445 C 172.67236 245.41914 172.31745 246.01703 171.13964 246.74672 C 170.07721 247.40493 166.05778 249.08803 166.05778 248.87476 C 166.05778 248.23625 167.50629 245.89447 168.05611 245.64395 C 168.91962 245.25051 168.73075 244.96341 167.23135 244.39079 C 165.90069 243.8826 166.08029 243.47828 167.575 243.6172 C 168.46309 243.69974 168.46963 243.69297 167.99513 243.16865 C 167.61573 242.74942 167.51299 242.19689 167.51299 240.56984 C 167.51299 238.70132 167.58907 238.396 168.30725 237.37417 C 168.85812 236.59037 169.6845 235.9302 171.00528 235.21978 C 172.31819 234.5136 172.86466 234.07878 172.76486 233.81883 C 172.49781 233.12289 170.92831 232.3898 168.99765 232.05873 C 166.6977 231.66433 167.12176 231.36049 170.00999 231.33319 L 171.97783 231.31459 L 171.27141 230.57717 C 170.88297 230.17173 170.48856 229.45541 170.39446 228.98502 C 170.02964 227.16088 171.70505 224.61576 173.50849 224.25507 C 174.87648 223.98147 174.55039 223.71277 172.60105 223.50783 L 170.68799 223.30681 L 172.54007 222.42624 L 174.39215 221.54568 L 172.79897 221.53534 C 171.9227 221.52969 170.37692 221.75508 169.36352 222.03609 C 168.35011 222.3171 167.48711 222.51302 167.44581 222.47172 C 167.40447 222.43038 168.17634 221.99711 169.16146 221.50899 C 170.74603 220.72386 171.25432 220.60863 173.5674 220.51163 L 176.18223 220.40208 L 175.20812 219.51014 C 174.13813 218.52989 173.46331 217.18159 173.47231 216.04317 C 173.48125 214.91076 174.36156 213.22475 175.35127 212.44494 C 176.46204 211.56978 176.29173 211.56792 173.4842 212.42427 C 171.19617 213.12216 168.4788 214.35397 167.51299 215.13108 C 167.22195 215.36526 167.51134 214.99836 168.15584 214.31563 C 170.00479 212.35698 173.34088 210.81063 177.17028 210.1381 C 179.7416 209.68653 179.7348 209.69349 178.5366 208.82552 C 176.64962 207.45861 176.01765 205.81947 176.64525 203.91781 C 177.01694 202.79159 179.04141 200.62292 179.72103 200.62292 C 179.96742 200.62292 180.09762 200.55138 180.01042 200.46428 C 179.78346 200.23732 175.90157 201.77794 173.93998 202.87343 C 173.02474 203.38458 171.50158 204.36406 170.5557 205.05004 L 168.8359 206.29751 L 169.83688 205.12187 C 172.55575 201.92922 176.07566 199.96307 182.13122 198.25459 C 183.33176 197.91587 184.3141 197.50678 184.31403 197.34509 C 184.31383 196.91061 183.27534 194.25558 182.7689 193.39494 C 182.07269 192.2118 180.86956 191.58973 179.84557 191.88341 C 178.86598 192.16434 176.11886 193.84561 173.99528 195.46407 C 171.93977 197.03065 171.92534 197.03619 167.38225 197.96986 C 165.12739 198.43325 163.23535 198.85907 163.17785 198.91657 C 163.12037 198.97405 163.2117 200.66143 163.38094 202.66621 C 164.05085 210.60161 163.56761 235.54142 162.60528 242.69167 C 161.50962 250.83253 158.70054 256.0072 153.54846 259.37593 C 150.30657 261.49566 148.06028 262.17388 133.51403 265.42517 C 122.98638 267.77825 117.18306 269.43248 109.36615 272.30795 C 107.36262 273.04496 105.49229 273.64792 105.20981 273.64792 C 104.92732 273.64792 103.53037 273.21725 102.10561 272.69088 C 91.366189 268.72324 85.861007 267.15926 73.32132 264.51411 C 69.392262 263.68531 65.178923 262.7182 63.958067 262.36489 C 56.3368 260.1593 51.939599 256.54998 49.45766 250.46226 C 47.53443 245.74494 47.162311 242.07327 46.691421 223.17917 C 46.440592 213.11402 46.442032 209.34081 46.699173 205.34408 C 46.878545 202.55608 47.091202 199.94436 47.172012 199.5403 C 47.308302 198.85885 47.245402 198.79301 46.297647 198.62873 C 45.735682 198.53133 43.810235 198.17155 42.018838 197.8293 L 38.761673 197.20711 L 35.00738 194.71269 C 32.942479 193.34085 30.861243 192.09001 30.382856 191.93301 C 30.138359 191.85277 29.903631 191.80661 29.677989 191.794 z M 112.13704 250.02353 L 111.11798 250.63227 C 109.28843 251.72455 107.93346 252.86833 106.49656 254.53384 C 105.29603 255.92537 105.04822 256.10247 104.84549 255.71517 C 104.38619 254.83773 102.14713 252.68686 100.63955 251.6751 C 99.802805 251.11354 99.118195 250.71635 99.118195 250.79195 C 99.118195 250.86759 99.405633 251.30799 99.756399 251.77122 C 101.73719 254.38711 103.12115 259.05048 103.10865 263.06459 C 103.10087 265.55594 102.98172 266.30433 102.14023 269.15001 C 102.05928 269.42376 102.49603 269.76567 103.54738 270.25226 C 104.3857 270.64026 105.09781 270.96767 105.12971 270.97987 C 105.16161 270.99205 105.63787 270.76999 106.18805 270.48636 C 106.73824 270.20272 107.50679 269.85222 107.89595 269.70708 L 108.6034 269.44301 L 108.03496 268.04 C 107.21217 266.0085 107.22574 260.89816 108.06184 257.95844 C 108.73066 255.60683 109.87182 253.20369 111.21461 251.31854 L 112.13704 250.02353 z " /></g></svg>
