<?xml version="1.0" encoding="UTF-8" standalone="no"?>
<!-- Created with Inkscape (http://www.inkscape.org/) -->

<svg
   width="270.93332mm"
   height="270.93332mm"
   viewBox="0 0 270.93332 270.93332"
   version="1.1"
   id="svg1"
   xml:space="preserve"
   inkscape:export-filename="eugeneUser.png"
   inkscape:export-xdpi="96"
   inkscape:export-ydpi="96"
   inkscape:version="1.3 (0e150ed6c4, 2023-07-21)"
   sodipodi:docname="eugeneUser.svg"
   xmlns:inkscape="http://www.inkscape.org/namespaces/inkscape"
   xmlns:sodipodi="http://sodipodi.sourceforge.net/DTD/sodipodi-0.dtd"
   xmlns:xlink="http://www.w3.org/1999/xlink"
   xmlns="http://www.w3.org/2000/svg"
   xmlns:svg="http://www.w3.org/2000/svg"><sodipodi:namedview
     id="namedview1"
     pagecolor="#505050"
     bordercolor="#ffffff"
     borderopacity="1"
     inkscape:showpageshadow="0"
     inkscape:pageopacity="0"
     inkscape:pagecheckerboard="1"
     inkscape:deskcolor="#505050"
     inkscape:document-units="mm"
     inkscape:zoom="0.69219276"
     inkscape:cx="512.14058"
     inkscape:cy="512.14058"
     inkscape:window-width="1920"
     inkscape:window-height="991"
     inkscape:window-x="951"
     inkscape:window-y="1791"
     inkscape:window-maximized="1"
     inkscape:current-layer="layer1" /><defs
     id="defs1"><linearGradient
       id="linearGradient1"
       inkscape:collect="always"><stop
         style="stop-color:#00ff00;stop-opacity:1;"
         offset="0"
         id="stop1" /><stop
         style="stop-color:#000ed1;stop-opacity:1;"
         offset="1"
         id="stop2" /></linearGradient><linearGradient
       inkscape:collect="always"
       xlink:href="#linearGradient1"
       id="linearGradient2"
       x1="240.39137"
       y1="13.03334"
       x2="-30.541946"
       y2="283.96664"
       gradientUnits="userSpaceOnUse" /></defs><g
     inkscape:label="Layer 1"
     inkscape:groupmode="layer"
     id="layer1"
     transform="translate(30.541948,-13.03334)"><rect
       style="fill:url(#linearGradient2);stroke-width:2"
       id="rect1"
       width="270.93329"
       height="270.93329"
       x="-30.541948"
       y="13.03334"
       transform="translate(-1.1041667e-6)" /><path
       style="display:inline;fill:#000000"
       d="m -30.372129,282.97447 c 0.771149,-5.60325 3.718163,-16.93304 6.314331,-24.27543 5.969066,-16.88151 11.547101,-23.07298 27.7737138,-30.82808 2.3314549,-1.11426 5.1655781,-2.42583 6.2980512,-2.91459 1.476358,-0.63718 2.017845,-0.99602 1.913461,-1.26804 -0.479772,-1.25027 -0.713477,-2.90264 -0.619432,-4.37959 0.153407,-2.4092 0.935727,-3.47917 3.83458,-5.2445 4.123422,-2.51106 5.505322,-4.43499 8.004571,-11.14423 0.586422,-1.57425 1.390284,-3.45768 1.78636,-4.1854 0.741743,-1.36283 2.227438,-2.8742 2.825369,-2.8742 0.186265,0 0.550498,0.44649 0.809406,0.99219 1.224223,2.58031 5.050127,8.51154 9.514728,14.75052 4.656954,6.50778 9.962454,13.44349 10.144442,13.2615 0.04935,-0.0494 -0.146171,-0.64006 -0.434492,-1.31268 -1.838661,-4.28943 -5.600787,-18.25525 -6.257971,-23.23094 -0.441229,-3.34065 -0.382612,-6.86023 0.144433,-8.67228 0.619578,-2.1302 2.440143,-3.77794 4.800678,-4.34496 0.677805,-0.16281 0.692508,-0.13625 0.848325,1.53235 0.236702,2.53479 1.402746,7.52688 2.629542,11.25764 0.59815,1.81901 1.155288,3.38988 1.238084,3.49083 0.0828,0.10094 0.171438,-1.74453 0.196983,-4.10105 0.02555,-2.35651 0.234344,-5.52888 0.463998,-7.04969 1.129375,-7.47894 2.269602,-9.50209 7.15138,-12.68895 3.003482,-1.96069 5.650579,-2.97786 7.498005,-2.88116 l 1.508921,0.079 0.132292,9.3927 0.132291,9.39271 1.45366,3.21684 c 0.799513,1.76926 1.559302,3.15155 1.68842,3.07175 0.135506,-0.0837 0.163382,-7.20478 0.06593,-16.84288 -0.135966,-13.44744 -0.104107,-16.60223 0.163662,-16.20686 6.714822,9.91444 17.242604,20.15709 24.144991,23.49105 2.58786,1.24998 5.380086,1.81489 8.970516,1.81489 4.49952,0 7.42062,-0.79675 11.06289,-3.01749 5.58515,-3.40533 14.37222,-11.90107 19.72935,-19.07521 1.5213,-2.03729 2.81133,-3.75378 2.86673,-3.81441 0.0554,-0.0606 0.10072,9.42023 0.10072,21.06859 v 21.17883 l -2.71198,2.64718 c -10.84583,10.58668 -20.2179,16.39946 -28.87539,17.9092 -3.04451,0.53092 -8.142681,0.52258 -11.292389,-0.0185 -1.370467,-0.23542 -3.659989,-0.83466 -5.087827,-1.33166 -3.509754,-1.22166 -6.145222,-2.48561 -10.718889,-5.14069 -1.106324,-0.64224 -1.14548,-0.63742 -0.862819,0.10603 0.666855,1.75396 10.141883,20.55943 14.687886,29.15163 0.615942,1.16417 2.76762,5.27183 4.781507,9.12813 5.270581,10.0924 5.872511,11.18651 6.017751,10.93839 0.0717,-0.12252 1.47009,-2.78261 3.10748,-5.91131 1.6374,-3.1287 3.30196,-6.28385 3.69902,-7.01146 0.39706,-0.7276 1.41203,-2.6326 2.25549,-4.23333 4.51881,-8.57589 6.0987,-11.51859 6.908,-12.8669 0.49184,-0.8194 0.89425,-1.5521 0.89425,-1.62823 0,-0.0761 -0.62508,0.10022 -1.38907,0.39187 -3.27643,1.25078 -6.73989,1.83432 -11.57552,1.95029 -4.41702,0.10592 -4.55711,0.094 -3.0427,-0.25853 4.21064,-0.98023 10.50622,-3.5286 14.22115,-5.75653 0.7641,-0.45824 2.43471,-1.61806 3.71248,-2.57736 2.62763,-1.97273 1.63968,-0.44838 12.10513,-18.67753 2.50633,-4.36562 5.79177,-10.08062 7.30099,-12.69999 1.50921,-2.61938 2.74416,-4.82967 2.74432,-4.91177 1.7e-4,-0.0821 -0.77361,-0.73384 -1.71949,-1.44833 l -1.71979,-1.29907 v -9.85599 -9.85599 l 0.7276,0.12007 c 5.30469,0.87534 8.70256,1.60642 11.06879,2.38154 4.49268,1.47169 6.2768,2.71864 8.21404,5.74091 1.29519,2.02061 1.59843,2.24911 4.33123,3.2636 1.66541,0.61825 2.26653,1.02223 3.7397,2.51326 l 1.75532,1.77659 2.47801,0.11622 c 4.46367,0.20933 5.75234,1.33376 9.13545,7.97116 3.91832,7.68743 6.06721,10.43934 9.63795,12.34252 3.64269,1.94154 4.94742,3.93418 4.6434,7.09163 -0.0943,0.9794 -0.23937,2.08231 -0.32238,2.45091 -0.14316,0.63567 0.003,0.73662 2.84549,1.9605 4.29397,1.84906 12.44668,5.92169 14.77039,7.37844 4.67247,2.9292 9.11129,7.1362 11.77237,11.15754 3.39537,5.13098 6.58478,12.67668 9.50588,22.48959 1.26428,4.24712 3.52757,13.73091 3.99376,16.73489 l 0.1745,1.12448 H 104.9646 -30.508679 Z m 88.536794,-4.09344 c 0.439868,-0.50908 0.463785,-1.69699 0.396875,-19.71192 l -0.0712,-19.17018 -0.624624,-0.50572 c -0.790488,-0.64 -1.399897,-0.63998 -2.190335,8e-5 l -0.624624,0.50578 v 19.22858 19.22858 l 0.753522,0.64815 c 0.849431,0.73065 1.597234,0.65989 2.360387,-0.22335 z m 95.580395,-0.54158 c 0.0796,-0.32477 0.11106,-9.08426 0.07,-19.46551 l -0.0747,-18.87502 -0.62462,-0.50571 c -0.79046,-0.63998 -1.39987,-0.63998 -2.19034,0 l -0.62462,0.50571 -0.0713,18.9797 c -0.0774,20.61053 -0.12277,19.92001 1.34353,20.4725 0.76395,0.28786 1.98193,-0.3355 2.17211,-1.11167 z m -53.31827,-87.35487 c -3.745107,-0.79343 -6.440142,-2.27081 -10.443909,-5.7252 -3.980137,-3.434 -7.151011,-6.88506 -11.166433,-12.15313 -7.99446,-10.48841 -9.64975,-15.29278 -12.944597,-37.57083 -0.760528,-5.14229 -0.870166,-8.0352 -0.63173,-16.66875 0.101158,-3.66283 0.04916,-4.54515 -0.323021,-5.48079 l -0.443589,-1.11516 2.6454,-2.89703 c 1.45497,-1.59336 2.815978,-2.96248 3.024462,-3.04248 0.208484,-0.08 0.987334,-0.22615 1.730778,-0.32477 1.346237,-0.17859 1.351031,-0.18265 1.182615,-1.00173 -1.022752,-4.9741 -1.277695,-7.278183 -1.393771,-12.596374 -0.099,-4.535882 -0.03968,-6.087009 0.292735,-7.655038 0.229291,-1.081573 0.38359,-1.999798 0.342888,-2.040501 -0.0407,-0.0407 -0.913225,0.53053 -1.938939,1.269406 l -1.864933,1.343411 -0.166617,5.927223 c -0.225828,8.033628 -0.379195,8.798313 -2.37101,11.821863 -1.647234,2.50048 -3.239709,5.66039 -4.025026,7.98676 -0.719374,2.13103 -0.99944,6.42018 -0.837901,12.83229 0.160547,6.37273 0.613702,10.74431 1.61758,15.60472 0.427284,2.06876 0.547761,3.18558 0.377887,3.503 -0.451425,0.84349 -1.792727,1.33308 -3.307915,1.20743 -3.050964,-0.25301 -5.512478,-2.86184 -8.558174,-9.07036 -3.729332,-7.60208 -5.043544,-12.99083 -4.519381,-18.53111 0.343045,-3.6259 1.371986,-5.59697 3.596525,-6.88961 0.580031,-0.33705 0.568029,-0.37608 -2.06801,-6.72615 -1.381241,-3.32733 -1.613864,-4.134914 -1.752894,-6.085417 -0.08817,-1.236927 -0.0953,-2.814505 -0.01585,-3.505729 0.07945,-0.691224 0.12352,-1.256771 0.09793,-1.256771 -0.02559,0 -0.56424,0.684609 -1.19701,1.521354 -1.620155,2.142417 -3.411003,5.716875 -3.411003,6.808223 0,0.49478 -0.107939,0.96632 -0.239866,1.04785 -0.3515,0.21724 -0.651096,-4.59752 -0.451006,-7.248061 0.09475,-1.255195 0.499813,-3.884901 0.90013,-5.84379 0.685861,-3.356154 0.7074,-3.668461 0.373376,-5.413701 -0.801793,-4.189274 0.558155,-11.83946 2.833803,-15.941145 0.423865,-0.763984 0.669915,-1.389062 0.546778,-1.389062 -0.123137,0 -1.235895,0.957951 -2.472796,2.128781 -2.60763,2.468339 -3.592719,4.14657 -3.634229,6.191397 l -0.02714,1.337113 -0.485859,-1.455208 c -0.644003,-1.92887 -0.655404,-4.940566 -0.02728,-7.205787 1.086805,-3.919356 3.833815,-7.060653 8.504922,-9.725658 2.937214,-1.675768 3.537123,-2.192996 4.871359,-4.199973 1.824915,-2.745064 3.550119,-4.12355 9.238407,-7.381745 2.090757,-1.197565 3.485255,-2.444706 6.256918,-5.59575 1.984929,-2.256623 1.902756,-2.266604 -2.303779,-0.279834 -3.012235,1.422695 -6.355003,3.791034 -7.189238,5.09355 -0.675021,1.05393 -0.731334,0.466425 -0.126627,-1.321076 0.801209,-2.368354 1.478577,-3.509729 3.16194,-5.327917 3.293541,-3.557329 7.058158,-5.289006 12.020927,-5.529478 l 2.778866,-0.134651 -0.900092,-1.813319 c -1.002045,-2.018714 -1.320198,-4.456124 -0.951483,-7.289432 0.192421,-1.478625 0.212279,-1.51046 0.468062,-0.750386 0.785336,2.333674 3.562909,5.239339 6.366359,6.659955 1.966112,0.996305 3.442784,1.375625 6.657337,1.710105 3.048717,0.317224 3.731888,0.252358 13.096874,-1.24354 1.38245,-0.220823 4.33154,-0.420329 6.55354,-0.443348 2.22199,-0.02302 3.88887,-0.125819 3.70416,-0.228447 -0.75991,-0.422237 -5.52406,-1.558783 -7.74091,-1.846691 -2.38494,-0.309738 -5.9042,-0.185186 -7.933319,0.280774 -0.577998,0.132729 -1.084045,0.208186 -1.12455,0.167682 -0.0405,-0.04051 0.551466,-0.502708 1.315489,-1.02712 6.83895,-4.694125 15.07243,-5.085194 24.79477,-1.177685 3.31096,1.330708 7.77565,3.937988 10.2255,5.971466 2.33493,1.938091 1.79162,0.876405 -0.92949,-1.816324 -2.57746,-2.550564 -3.7457,-3.324276 -6.43647,-4.262786 l -2.18809,-0.763179 1.85208,0.158348 c 5.94842,0.508573 11.13623,2.87047 15.10282,6.875975 4.66685,4.712651 7.29112,10.655624 7.35195,16.649397 0.0148,1.455209 -0.0675,3.122083 -0.18284,3.704167 l -0.2097,1.058333 0.92294,-1.351385 c 1.44157,-2.110789 1.88735,-3.938802 1.86416,-7.644448 -0.0169,-2.701263 -0.12303,-3.47489 -0.71127,-5.184873 -0.86405,-2.511743 -2.31743,-5.058523 -3.72247,-6.522939 -0.59339,-0.618463 -1.00095,-1.124479 -0.90569,-1.124479 0.36195,0 3.30711,1.873909 4.76345,3.030826 2.79901,2.223531 5.27387,6.002322 6.1594,9.40459 0.58361,2.242272 0.59805,5.851919 0.0295,7.375452 -0.23762,0.63676 -0.43204,1.196113 -0.43204,1.243008 0,0.04689 0.36832,-0.04313 0.81848,-0.200062 0.45017,-0.156929 1.53431,-0.220416 2.40922,-0.141082 5.82768,0.528435 11.60617,7.667512 12.03904,14.873725 0.11424,1.901921 0.27308,2.411941 1.56554,5.027083 1.66013,3.359053 2.2079,5.588796 2.20998,8.995833 0.002,2.463971 -0.33607,4.18182 -1.21829,6.199662 l -0.51266,1.172579 -0.006,-2.363204 c -0.005,-2.016423 -0.11449,-2.603811 -0.74801,-4.002861 -0.40837,-0.901811 -0.96717,-1.842998 -1.24179,-2.091528 -0.48615,-0.439956 -0.49942,-0.382767 -0.50341,2.168824 -0.006,4.142486 -0.493,10.241703 -1.04351,13.081593 -0.90327,4.659616 -3.25984,10.827656 -5.50315,14.403806 -0.49292,0.7858 -0.49241,0.79011 0.22203,1.85209 1.17211,1.74229 1.56622,3.55631 1.56622,7.20905 0,4.91246 -0.92813,8.59594 -3.65182,14.4929 -3.55186,7.69005 -6.97293,11.5117 -10.30206,11.50839 -1.01184,-0.001 -2.62828,-0.78843 -2.86044,-1.39342 -0.0703,-0.18318 0.28281,-2.41492 0.78467,-4.95942 1.50585,-7.63501 1.60996,-8.74773 1.6087,-17.19409 -0.001,-7.56818 -0.0203,-7.85743 -0.63257,-9.525 -0.94127,-2.56378 -2.54822,-5.65473 -4.27478,-8.22248 -0.84554,-1.2575 -1.72019,-2.9282 -1.94367,-3.71267 -0.55123,-1.934922 -0.94911,-5.386569 -0.97185,-8.430822 -0.0103,-1.386266 -0.10438,-3.462179 -0.20894,-4.613142 l -0.19012,-2.092658 -1.30517,-1.148487 c -0.71784,-0.631668 -1.37146,-1.148487 -1.4525,-1.148487 -0.081,0 -0.17355,2.205684 -0.2056,4.90152 -0.0621,5.220833 -0.52192,10.439235 -1.37505,15.603686 -0.63225,3.82734 -0.62141,3.57188 -0.15161,3.57188 0.21112,0 1.01479,0.1351 1.78594,0.30023 1.21861,0.26095 1.67382,0.56391 3.47864,2.31511 1.1421,1.10817 2.42336,2.4504 2.84724,2.98273 l 0.77069,0.96787 -0.40049,1.53758 c -0.33042,1.26859 -0.37157,2.71933 -0.23522,8.29255 0.18441,7.53702 0.18843,7.49403 -1.90572,20.38101 -1.72975,10.64446 -3.05681,15.63538 -5.48721,20.63665 -3.659,7.52947 -13.37348,19.15269 -20.11553,24.0679 -1.92238,1.40149 -4.66111,2.71666 -6.91906,3.32262 -2.18991,0.58769 -7.47753,0.74004 -9.6573,0.27824 z M 159.56416,89.696357 c -0.27792,-3.290265 -1.36147,-8.883605 -2.28156,-11.777516 -1.48775,-4.679358 -3.51733,-7.775429 -6.73488,-10.273914 -2.36938,-1.83986 -2.57384,-1.90097 -1.81447,-0.542311 0.35374,0.632902 0.88081,1.841472 1.17127,2.685713 0.47964,1.394092 0.48558,1.496494 0.0648,1.11566 -0.25484,-0.230626 -1.29654,-0.796167 -2.31489,-1.256757 -3.18137,-1.438897 -3.31386,-1.443118 -1.82231,-0.05806 2.62009,2.433027 5.28224,5.537228 7.09768,8.276269 2.04964,3.092374 4.74708,8.516815 5.88315,11.830786 0.41154,1.200476 0.79041,2.182741 0.84194,2.182812 0.0515,7.1e-5 0.0107,-0.982136 -0.0907,-2.182683 z M 96.325753,73.358603 c 1.394358,-1.82109 5.539587,-5.480661 8.256667,-7.289303 5.38809,-3.586628 13.57509,-6.837724 20.05375,-7.963435 2.72131,-0.472848 7.80953,-0.366964 9.48442,0.197367 0.55977,0.188605 1.62402,0.912109 2.36501,1.607787 0.74099,0.695677 1.38929,1.222834 1.44066,1.171459 0.0514,-0.05138 -0.42258,-0.847417 -1.05324,-1.768982 -1.78938,-2.614779 -4.58371,-4.298616 -9.06185,-5.460574 -2.56774,-0.666259 -7.62223,-0.539988 -10.71563,0.267696 -9.23025,2.410013 -17.379701,9.748453 -21.804521,19.634594 -0.956064,2.136084 -0.883049,2.108097 1.034734,-0.396609 z m 65.989577,-0.950598 c -2.74098,-5.944532 -6.07916,-9.235728 -10.29479,-10.149882 -0.80036,-0.173558 -2.46724,-0.277089 -3.70416,-0.230069 l -2.24896,0.08549 1.64864,0.894091 c 1.08023,0.585833 3.00068,2.182207 5.57016,4.630209 3.31627,3.159479 4.38899,4.004595 6.95032,5.475631 1.66584,0.956733 3.05957,1.719708 3.09718,1.695501 0.0376,-0.02421 -0.42066,-1.104646 -1.01839,-2.400973 z m 2.7896,-4.275188 c -1.47119,-2.553016 -3.22471,-4.467687 -6.20522,-6.775508 -3.06074,-2.36994 -3.31402,-2.372618 -1.03597,-0.01095 1.24923,1.295078 2.88754,3.146978 3.64068,4.115333 1.3087,1.682665 3.62838,3.899123 4.10116,3.918658 0.12297,0.0051 -0.10232,-0.556308 -0.50065,-1.247533 z M 81.011409,61.050356 c 3.388364,-0.579298 7.573166,-1.953396 14.651778,-4.810977 7.585173,-3.062074 14.420253,-5.363427 18.654233,-6.280829 1.74625,-0.378371 3.47266,-0.757907 3.83646,-0.843414 l 0.66146,-0.155467 -0.66146,-0.256656 c -3.5362,-1.372099 -9.5012,-1.878381 -13.80168,-1.171423 -4.25344,0.699224 -8.012076,2.110178 -14.905613,5.595413 -9.872042,4.991108 -12.658134,5.867142 -17.847245,5.61173 -3.126552,-0.153891 -4.925196,-0.703792 -6.869824,-2.100318 -1.034029,-0.742583 -1.129957,-0.77134 -0.746414,-0.223756 1.310996,1.871709 4.894286,4.032039 7.699876,4.642179 2.215586,0.48183 6.489624,0.47886 9.328429,-0.0065 z M 132.17679,47.293594 c 0,-0.224866 -2.87927,-1.994446 -4.73906,-2.912596 -3.90968,-1.930142 -9.04437,-3.29209 -13.91406,-3.690628 -2.49201,-0.203948 -7.26401,0.208375 -10.44393,0.902402 -3.07822,0.671832 -9.814845,2.965974 -8.209195,2.795624 0.654844,-0.06947 2.38125,-0.262173 3.836458,-0.428217 3.438457,-0.39234 14.608107,-0.143262 18.593947,0.414637 4.59489,0.643145 9.75985,1.647461 12.09772,2.352373 2.24263,0.676197 2.77812,0.785374 2.77812,0.566405 z M 82.964296,40.96909 c 5.384254,-2.733464 11.255552,-4.54682 17.299804,-5.343063 6.15718,-0.811119 16.7395,-0.229843 22.1016,1.214019 0.62329,0.167836 1.18591,0.252506 1.25026,0.188156 0.19308,-0.193078 -4.39011,-2.452706 -6.52042,-3.214733 -3.90066,-1.395295 -5.95633,-1.762193 -10.71562,-1.912539 -3.49597,-0.110438 -5.05362,-0.0452 -6.992542,0.292874 -6.481812,1.130168 -12.666105,4.192714 -18.870478,9.344914 -2.154219,1.788895 -2.637975,2.360652 -1.190625,1.407216 0.472943,-0.311549 2.110052,-1.201129 3.638021,-1.976844 z"
       id="path1" /></g></svg>
