<svg xmlns="http://www.w3.org/2000/svg" xmlns:svg="http://www.w3.org/2000/svg" id="svg5" width="210mm" height="210mm" version="1.1" viewBox="0 0 210 210" xml:space="preserve"><g id="layer1" transform="translate(0,-43.5)"><rect style="display:inline;fill:#00e1e3;fill-opacity:1;stroke-width:.264583;stroke:#000;stroke-opacity:1" id="rect1682" width="210" height="210" x="0" y="43.5" d="m 23.8125,43.5 h 162.375 A 23.8125,23.8125 45 0 1 210,67.3125 v 162.375 A 23.8125,23.8125 135 0 1 186.1875,253.5 H 23.8125 A 23.8125,23.8125 45 0 1 0,229.6875 V 67.3125 A 23.8125,23.8125 135 0 1 23.8125,43.5 Z"/><path style="fill:#fff;fill-opacity:1;stroke-width:.264583" id="path1060" d="m 73.39609,196.12109 c 0,0 -0.603038,-18.15206 2.850309,-30.24795 3.453347,-12.0959 10.907252,-20.64804 11.567419,-23.97863 0.660167,-3.33059 -0.133093,-3.75197 0.04175,-6.75656 0.174842,-3.00459 0.533387,-7.34117 0.533387,-7.34117 0,0 6.809964,-11.9588 5.323096,-17.32307 C 90.742824,99.761448 74.725358,99.882695 80.303255,88.87167 l 5.577896,-11.011024 c 3.784498,-1.522078 2.164762,-2.70859 7.408886,-4.194545 6.879373,-0.06937 16.468773,-0.200476 23.419923,0 5.24413,1.485955 3.62439,2.672467 7.40889,4.194545 l 5.5779,11.011024 c 5.57789,11.011025 -10.43957,10.889778 -13.4088,21.60204 -1.48687,5.36427 5.3231,17.32307 5.3231,17.32307 0,0 0.35854,4.33658 0.53338,7.34117 0.17485,3.00459 -0.61841,3.42597 0.0417,6.75656 0.66017,3.33059 8.11407,11.88273 11.56742,23.97863 3.45335,12.09589 2.85031,30.24795 2.85031,30.24795 -21.06927,0.0461 -42.138499,0.021 -63.20777,0 z"/><path id="path289" style="display:inline;fill:#000;fill-opacity:1;stroke-width:.264583" d="m 98.121094,67.533203 v 1.203125 c 0,2.348315 -1.338989,4.09146 -3.574219,4.654297 -1.12993,0.28452 -1.145269,0.304401 -1.011719,1.255859 0.22205,1.581941 0.622905,2.704266 1.740235,4.875 1.513,2.939478 3.773822,4.791106 7.039059,5.767578 l 1.15039,0.34375 -0.17187,1.074219 c -0.55713,3.510488 -3.483748,6.751953 -6.097658,6.751953 -3.501789,0 -8.968395,-6.623665 -10.572265,-12.810546 -0.22484,-0.867317 -0.408203,-1.848411 -0.408203,-2.181641 0,-0.554264 -0.117922,-0.605726 -1.388672,-0.607422 -0.76398,-0.0011 -2.380084,-0.239275 -3.589844,-0.529297 -1.20976,-0.290021 -2.528267,-0.527344 -2.929687,-0.527344 -2.25288,0 -5.278777,2.112831 -6.591797,4.601563 -0.67099,1.271827 -0.714441,1.571209 -0.744141,5.09375 -0.0174,2.058592 -0.11655,4.202892 -0.21875,4.763672 -0.1022,0.560781 -0.953055,2.474777 -1.890625,4.253906 -0.93758,1.779128 -1.892847,3.9706 -2.123047,4.869145 -0.81289,3.17295 0.137963,6.36491 2.595703,8.7207 l 1.402344,1.3457 0.136719,11.81641 0.136719,11.8164 0.755859,1.98438 c 0.91709,2.40336 2.953431,6.50899 4.400391,8.87305 l 1.0625,1.73828 -0.732422,1.02539 c -0.40309,0.564 -2.108766,2.85011 -3.791016,5.08008 -8.52532,11.30101 -14.532722,22.91762 -19.951172,38.58203 -2.40179,6.94346 -5.454893,18.28713 -7.121094,26.45898 -0.750389,3.68026 -1.751953,9.81403 -1.751953,10.73047 v 0.91016 c 40.746094,0 81.492191,0 122.238281,0 v -0.91016 c 0,-0.91644 -1.00156,-7.05021 -1.75195,-10.73047 -1.6662,-8.17185 -4.71931,-19.51552 -7.1211,-26.45898 -5.41845,-15.66441 -11.42585,-27.28102 -19.95117,-38.58203 -1.68225,-2.22997 -3.38792,-4.51608 -3.79101,-5.08008 l -0.73243,-1.02539 1.0625,-1.73828 c 1.44696,-2.36406 3.4833,-6.46969 4.4004,-8.87305 l 0.75585,-1.98438 0.13672,-11.8164 0.13672,-11.81641 1.40235,-1.3457 c 2.45774,-2.35579 3.40859,-5.54775 2.5957,-8.7207 -0.2302,-0.898545 -1.18547,-3.090017 -2.12305,-4.869145 -0.93757,-1.779129 -1.78842,-3.693125 -1.89062,-4.253906 -0.1022,-0.56078 -0.20135,-2.70508 -0.21875,-4.763672 -0.0297,-3.522541 -0.0731,-3.821923 -0.74414,-5.09375 -1.31302,-2.488732 -4.33892,-4.601563 -6.5918,-4.601563 -0.40142,0 -1.71993,0.237323 -2.92969,0.527344 -1.20976,0.290022 -2.82586,0.528197 -3.58984,0.529297 -1.27075,0.0017 -1.38867,0.05316 -1.38867,0.607422 0,0.33323 -0.18337,1.314323 -0.40821,2.181641 -1.60387,6.186881 -7.07047,12.810546 -10.57226,12.810546 -2.61391,0 -5.54053,-3.241465 -6.09766,-6.751953 l -0.17187,-1.074219 1.15039,-0.34375 c 3.26524,-0.976472 5.52606,-2.8281 7.03906,-5.767578 1.11733,-2.170734 1.51818,-3.293059 1.74023,-4.875 0.13355,-0.951458 0.11822,-0.971339 -1.01172,-1.255859 -2.23523,-0.562837 -3.57421,-2.305982 -3.57421,-4.654297 v -1.203125 c -4.5862,0.102927 -9.17155,0.04688 -13.757816,0 z M 85.8125,111.23633 c 0.07,0.07 0.535966,2.08464 1.035156,4.47656 0.92918,4.45224 1.448118,7.98743 1.554688,10.56641 l 0.06055,1.45508 c 11.024761,0.0458 22.049449,0.0208 33.074219,0 l 0.0606,-1.45508 c 0.10657,-2.57898 0.6255,-6.11417 1.55468,-10.56641 0.49919,-2.39192 0.96516,-4.40656 1.03516,-4.47656 0.16315,-0.16315 1.16198,0.37102 2.07031,1.10742 0.81167,0.65804 0.91003,1.23087 1.63086,9.4375 0.6369,7.25106 0.59299,11.83559 -0.13867,14.15625 -0.32116,1.01864 -0.81224,2.29805 -1.08984,2.84375 -0.27761,0.54571 -0.53106,0.98742 -0.56446,0.98242 -0.13771,-0.0199 -1.46388,-1.1684 -2.64062,-2.28711 -0.93632,-0.89014 -1.25781,-1.39064 -1.25781,-1.96289 v -0.76758 c -11.37515,0 -23.706284,0 -34.394536,0 v 0.76758 c 0,0.57225 -0.321492,1.07275 -1.257812,1.96289 -1.17674,1.11871 -2.502915,2.26716 -2.640625,2.28711 -0.0334,0.005 -0.286843,-0.43671 -0.564453,-0.98242 -0.2776,-0.5457 -0.768684,-1.82511 -1.089844,-2.84375 -0.73166,-2.32066 -0.775572,-6.90519 -0.138672,-14.15625 0.72083,-8.20663 0.81919,-8.77946 1.63086,-9.4375 0.90833,-0.7364 1.907162,-1.27057 2.070312,-1.10742 z m 6.734375,30.55859 c 8.302185,0.0858 16.604045,0.0391 24.906245,0 l 1.0918,1.43555 c 2.22081,2.92315 5.20996,7.72328 7.02149,11.27539 5.45845,10.70314 7.74414,20.6536 7.74414,33.70117 v 4.48242 c -18.8737,0 -37.747398,0 -56.621097,0 v -4.48242 c 0,-13.04757 2.285691,-22.99803 7.744141,-33.70117 1.81153,-3.55211 4.800674,-8.35224 7.021484,-11.27539 z"/></g></svg>