<svg xmlns="http://www.w3.org/2000/svg" xmlns:svg="http://www.w3.org/2000/svg" id="svg5" width="1280" height="640" version="1.1" viewBox="0 0 338.667 169.333" xml:space="preserve"><defs id="defs2"><rect id="rect346" width="710.292" height="345.088" x="492.017" y="152.475"/></defs><g id="layer1" transform="translate(0,-43.5)"><rect style="display:inline;fill:#3dabff;fill-opacity:1;stroke:#000;stroke-width:.301491;stroke-opacity:1" id="rect1682" width="338.497" height="169.164" x=".018" y="43.518"/><path style="fill:#fff;fill-opacity:1;stroke-width:.175462" id="path1060" d="m 48.731443,159.68117 c 0,0 -0.399914,-12.03781 1.890225,-20.05939 2.29014,-8.02158 7.23331,-13.69306 7.67111,-15.90179 0.437799,-2.20873 -0.08826,-2.48817 0.02769,-4.48071 0.115949,-1.99254 0.353723,-4.86841 0.353723,-4.86841 0,0 4.516131,-7.93066 3.530092,-11.48806 C 60.235195,95.778817 49.61297,95.859224 53.312037,88.557096 l 3.699066,-7.302128 c 2.509747,-1.009389 1.435595,-1.796242 4.913315,-2.781676 4.562161,-0.046 10.921517,-0.132948 15.531277,0 3.477725,0.985434 2.403569,1.772287 4.913318,2.781676 l 3.699068,7.302128 c 3.69906,7.302128 -6.923158,7.221721 -8.892248,14.325714 -0.98604,3.5574 3.530094,11.48806 3.530094,11.48806 0,0 0.237772,2.87587 0.353719,4.86841 0.115955,1.99254 -0.410108,2.27198 0.02765,4.48071 0.437802,2.20873 5.380965,7.88021 7.671115,15.90179 2.29014,8.02158 1.89022,20.05939 1.89022,20.05939 -13.972404,0.0306 -27.944783,0.0139 -41.917188,0 z"/><path id="path289" style="display:inline;fill:#000;fill-opacity:1;stroke-width:.175462" d="m 65.128204,74.406168 v 0.797871 c 0,1.55732 -0.887971,2.713313 -2.370298,3.086567 -0.74933,0.188684 -0.759502,0.201868 -0.670936,0.832842 0.147256,1.049088 0.413089,1.793375 1.154063,3.23293 1.003369,1.94936 2.502667,3.177295 4.668059,3.824857 l 0.762898,0.227963 -0.113978,0.712385 c -0.369469,2.328033 -2.3103,4.47766 -4.043754,4.47766 -2.322265,0 -5.947527,-4.392584 -7.011158,-8.495508 -0.149106,-0.575175 -0.270706,-1.225802 -0.270706,-1.446788 0,-0.367569 -0.0782,-0.401697 -0.920919,-0.402822 -0.506645,-7.29e-4 -1.578389,-0.158678 -2.38066,-0.351011 -0.80227,-0.192332 -1.676658,-0.349716 -1.942866,-0.349716 -1.494031,0 -3.500701,1.401156 -4.37145,3.051596 -0.444977,0.843432 -0.473792,1.041971 -0.493488,3.377998 -0.01154,1.365186 -0.07729,2.787211 -0.145068,3.159101 -0.06777,0.37189 -0.632033,1.641186 -1.253796,2.821042 -0.621771,1.179856 -1.255271,2.633164 -1.407931,3.229048 -0.53908,2.104189 0.09149,4.220987 1.72138,5.783267 l 0.929985,0.89242 0.09067,7.83622 0.09067,7.83623 0.501259,1.31597 c 0.608182,1.59383 1.958613,4.31654 2.918186,5.8843 l 0.704613,1.15277 -0.485717,0.68 c -0.267315,0.37402 -1.39846,1.89009 -2.514069,3.36893 -5.653695,7.49444 -9.637595,15.19817 -13.230922,25.58626 -1.592784,4.60466 -3.617495,12.12739 -4.722462,17.54667 -0.497632,2.44062 -1.161834,6.50832 -1.161834,7.11608 v 0.60358 c 27.02139,0 54.042782,0 81.064165,0 v -0.60358 c 0,-0.60776 -0.6642,-4.67546 -1.16183,-7.11608 -1.10496,-5.41928 -3.12968,-12.94201 -4.72247,-17.54667 -3.59332,-10.38809 -7.577229,-18.09182 -13.230919,-25.58626 -1.11561,-1.47884 -2.24675,-2.99491 -2.51407,-3.36893 l -0.48572,-0.68 0.70461,-1.15277 c 0.95958,-1.56776 2.31002,-4.29047 2.9182,-5.8843 l 0.50125,-1.31597 0.0907,-7.83623 0.0907,-7.83622 0.92999,-0.89242 c 1.62988,-1.56228 2.26045,-3.679078 1.72137,-5.783267 -0.15266,-0.595884 -0.78616,-2.049192 -1.40793,-3.229048 -0.62176,-1.179856 -1.18602,-2.449152 -1.25379,-2.821042 -0.0678,-0.37189 -0.13352,-1.793915 -0.14507,-3.159101 -0.0197,-2.336027 -0.0485,-2.534566 -0.49348,-3.377998 -0.87076,-1.65044 -2.87743,-3.051596 -4.37145,-3.051596 -0.26621,0 -1.14061,0.157384 -1.94287,0.349716 -0.802274,0.192333 -1.874015,0.350282 -2.38066,0.351011 -0.842717,0.0011 -0.920918,0.03525 -0.920918,0.402822 0,0.220986 -0.121604,0.871613 -0.27071,1.446788 -1.063631,4.102924 -4.68889,8.495508 -7.011155,8.495508 -1.733454,0 -3.674286,-2.149627 -4.043755,-4.47766 l -0.113979,-0.712385 0.762899,-0.227963 c 2.165393,-0.647562 3.66469,-1.875497 4.668059,-3.824857 0.740975,-1.439555 1.006804,-2.183842 1.15406,-3.23293 0.08857,-0.630974 0.0784,-0.644158 -0.670937,-0.832842 -1.482327,-0.373254 -2.370292,-1.529247 -2.370292,-3.086567 v -0.797871 c -3.041408,0.06826 -6.082252,0.03109 -9.123704,0 z m -8.162631,28.982392 c 0.04642,0.0464 0.355434,1.38246 0.68648,2.9687 0.6162,2.95256 0.960341,5.29698 1.031015,7.00727 l 0.04015,0.96496 c 7.311238,0.0304 14.622425,0.0138 21.933668,0 l 0.04019,-0.96496 c 0.07067,-1.71029 0.41481,-4.05471 1.031009,-7.00727 0.331046,-1.58624 0.640061,-2.92228 0.686482,-2.9687 0.108196,-0.1082 0.770585,0.24605 1.372958,0.7344 0.538271,0.43639 0.6035,0.81627 1.081529,6.25862 0.422377,4.80865 0.393251,7.84895 -0.09196,9.38793 -0.212982,0.67553 -0.538649,1.52399 -0.722744,1.88588 -0.184101,0.36189 -0.35218,0.65482 -0.37433,0.6515 -0.09132,-0.0132 -0.970794,-0.77484 -1.751167,-1.51673 -0.620935,-0.59031 -0.834136,-0.92222 -0.834136,-1.30172 v -0.50903 c -7.543603,0 -15.721179,0 -22.809256,0 v 0.50903 c 0,0.3795 -0.213202,0.71141 -0.834137,1.30172 -0.780373,0.74189 -1.659846,1.5035 -1.75117,1.51673 -0.02215,0.003 -0.190225,-0.28961 -0.374326,-0.6515 -0.184094,-0.36189 -0.509764,-1.21035 -0.722746,-1.88588 -0.485212,-1.53898 -0.514333,-4.57928 -0.09196,-9.38793 0.478029,-5.44235 0.543258,-5.82223 1.08153,-6.25862 0.602372,-0.48835 1.264763,-0.8426 1.372958,-0.7344 z m 4.466003,20.26539 c 5.50572,0.0569 11.011224,0.0259 16.516954,0 l 0.724044,0.952 c 1.472764,1.93853 3.455064,5.12181 4.656407,7.47745 3.61985,7.09795 5.13564,13.69675 5.13564,22.34944 v 2.97259 c -12.516376,0 -25.032755,0 -37.549135,0 v -2.97259 c 0,-8.65269 1.515791,-15.25149 5.135645,-22.34944 1.201343,-2.35564 3.18364,-5.53892 4.656403,-7.47745 z"/><text id="text344" transform="matrix(6.3659198,0,0,7.9568433,-2989.9808,-1137.1354)" xml:space="preserve" style="font-style:normal;font-variant:normal;font-weight:400;font-stretch:normal;font-size:12px;font-family:'TeX Gyre Chorus';-inkscape-font-specification:'TeX Gyre Chorus, Normal';font-variant-ligatures:normal;font-variant-caps:normal;font-variant-numeric:normal;font-variant-east-asian:normal;white-space:pre;shape-inside:url(#rect346);display:inline;fill:#fff;fill-opacity:1;stroke:#bfbfbf;stroke-width:.120363;stroke-dasharray:none;stroke-opacity:1"><tspan id="tspan1733" x="492.018" y="162.999">Maid</tspan></text></g></svg>