<?xml version="1.0" encoding="UTF-8" standalone="no"?>
<!-- Created with Inkscape (http://www.inkscape.org/) -->

<svg
   width="142.80708mm"
   height="142.80708mm"
   viewBox="0 0 142.80708 142.80708"
   version="1.1"
   id="svg5"
   xml:space="preserve"
   inkscape:version="1.3.2 (091e20ef0f, 2023-11-25)"
   sodipodi:docname="newLogo.svg"
   inkscape:export-filename="../assets/maid.png"
   inkscape:export-xdpi="177.86234"
   inkscape:export-ydpi="177.86234"
   xmlns:inkscape="http://www.inkscape.org/namespaces/inkscape"
   xmlns:sodipodi="http://sodipodi.sourceforge.net/DTD/sodipodi-0.dtd"
   xmlns:xlink="http://www.w3.org/1999/xlink"
   xmlns="http://www.w3.org/2000/svg"
   xmlns:svg="http://www.w3.org/2000/svg"><sodipodi:namedview
     id="namedview7"
     pagecolor="#505050"
     bordercolor="#ffffff"
     borderopacity="1"
     inkscape:showpageshadow="0"
     inkscape:pageopacity="0"
     inkscape:pagecheckerboard="1"
     inkscape:deskcolor="#505050"
     inkscape:document-units="mm"
     showgrid="false"
     inkscape:zoom="0.89085297"
     inkscape:cx="381.09543"
     inkscape:cy="266.59843"
     inkscape:window-width="3440"
     inkscape:window-height="1371"
     inkscape:window-x="0"
     inkscape:window-y="1112"
     inkscape:window-maximized="1"
     inkscape:current-layer="layer1" /><defs
     id="defs2"><linearGradient
       id="linearGradient1"
       inkscape:collect="always"><stop
         style="stop-color:#f700ed;stop-opacity:1;"
         offset="0"
         id="stop2" /><stop
         style="stop-color:#00fbff;stop-opacity:1;"
         offset="1"
         id="stop1" /></linearGradient><inkscape:path-effect
       effect="mirror_symmetry"
       start_point="105.50438,177.26269"
       end_point="105.50438,194.02124"
       center_point="105.50438,185.64196"
       id="path-effect486"
       is_visible="true"
       lpeversion="1.2"
       lpesatellites=""
       mode="free"
       discard_orig_path="false"
       fuse_paths="true"
       oposite_fuse="false"
       split_items="false"
       split_open="false"
       link_styles="false" /><linearGradient
       inkscape:collect="always"
       xlink:href="#linearGradient1"
       id="linearGradient2"
       x1="33.596466"
       y1="65.727203"
       x2="176.40353"
       y2="208.53427"
       gradientUnits="userSpaceOnUse" /></defs><g
     inkscape:label="Layer 1"
     inkscape:groupmode="layer"
     id="layer1"
     transform="translate(-33.596458,-65.727188)"><circle
       style="fill:url(#linearGradient2);fill-opacity:1;stroke-width:0.318885"
       id="path1"
       cx="105"
       cy="137.13074"
       r="71.403534" /><path
       style="fill:#34404b;fill-opacity:1;stroke-width:1"
       d="m 88.49562,171.86235 v 3.91556 l 5.802,-2.5e-4 -4.593869,6.49283 6.404781,-6.49283 h 8.387088 L 105,188.6209 l 0.50438,-12.84324 h 8.38709 l 6.40478,6.49283 -4.59387,-6.49283 5.802,2.5e-4 v -3.91556 c -11.00292,0 -22.00584,0 -33.00876,0 z"
       id="path388"
       sodipodi:nodetypes="cccccccccccccc" /><path
       style="fill:#000000;stroke-width:0.264583;fill-opacity:1"
       d="m 71.735511,186.78992 c -0.06726,-0.11225 -0.142158,-6.32871 -0.166439,-13.81435 -0.02428,-7.48564 -0.126679,-13.75148 -0.22755,-13.92409 -0.10087,-0.17262 -0.987073,-0.99733 -1.969338,-1.83271 -2.090121,-1.77756 -2.093503,-1.79294 -0.763869,-3.47286 2.139047,-2.70258 2.225813,-3.18035 0.959481,-5.2833 -2.898113,-4.81279 -2.549946,-6.51055 2.518297,-12.27991 2.364976,-2.69213 4.334651,-4.93499 4.377059,-4.98412 0.0424,-0.0491 0.949713,0.20793 2.016244,0.57125 1.066527,0.36333 2.168218,0.70118 2.4482,0.75079 0.457292,0.081 0.622278,0.87048 1.622414,7.76312 1.942957,13.3903 2.734117,16.94095 5.015532,22.5092 2.214525,5.405 3.259566,13.07241 1.782683,13.07947 -0.254662,0.001 -1.808845,0.58426 -3.453744,1.29564 -2.024475,0.87555 -2.879296,1.14429 -2.645833,0.83181 0.18969,-0.25389 0.908761,-1.20494 1.597937,-2.11344 2.549414,-3.36074 2.344553,-6.03981 -0.921403,-12.04955 -1.119849,-2.06066 -1.119849,-2.06066 -1.572887,-0.10689 -0.815388,3.51644 -1.046258,6.07318 -0.982676,10.88259 0.06263,4.73749 0.06263,4.73749 -1.502558,5.73152 -1.928556,1.22479 -4.518324,3.29723 -6.507017,5.20717 -0.826233,0.79352 -1.557273,1.35091 -1.624533,1.23866 z m 64.118409,-2.12012 c -1.3796,-1.21386 -3.55249,-2.94396 -4.82864,-3.84467 -2.32028,-1.63765 -2.32028,-1.63765 -2.32238,-7.0666 -0.002,-4.90991 -0.73872,-11.15275 -1.39361,-11.80764 -0.23795,-0.23796 -3.14847,6.11088 -3.49566,7.62524 -0.63371,2.76402 -0.23178,4.14614 2.04189,7.02167 0.71915,0.90951 1.25452,1.65365 1.18973,1.65365 -0.0648,0 -0.99778,-0.4047 -2.0733,-0.89934 -1.07553,-0.49463 -2.49128,-1.05438 -3.14612,-1.24389 -1.54233,-0.44633 -1.58014,-0.51873 -1.57528,-3.01615 0.008,-3.9011 0.39192,-5.6979 2.08302,-9.73837 2.60101,-6.21452 4.53543,-15.57611 5.97556,-28.91869 0.2752,-2.54961 4.69527,-3.96928 6.33643,-2.03517 0.90418,1.06557 2.35291,2.68309 6.70156,7.48236 1.45212,1.6026 0.77944,6.24597 -1.33052,9.1843 -0.9165,1.27632 -0.72285,1.91866 1.45242,4.81771 1.25786,1.67638 1.25343,1.69142 -1.06012,3.59745 -1.60576,1.32291 -1.60576,1.32291 -1.66473,5.55625 -0.35745,25.66334 -0.14189,24.05007 -2.89025,21.63189 z M 98.884668,162.9029 c -6.256205,-0.91408 -8.497972,-4.36538 -10.383869,-15.9864 -2.199654,-13.55441 -2.198638,-13.53403 -0.685933,-13.76088 3.032004,-0.45467 5.887059,-1.92105 7.817136,-4.01494 2.497783,-2.70977 3.015345,-8.18703 0.964652,-10.20872 -1.321837,-1.30314 -2.813219,-4.12227 -3.52961,-6.67196 -0.617466,-2.19761 -0.833104,-1.40064 -0.855951,3.16347 -0.02069,4.13536 -0.356949,5.87863 -1.634387,8.47347 -0.730655,1.48417 -3.411294,4.56567 -3.411294,3.92141 0,-0.15106 0.285647,-0.54301 0.634773,-0.871 2.619705,-2.46108 3.643458,-11.87905 2.00783,-18.47091 -0.672923,-2.71199 -0.874451,-2.82932 -1.333839,-0.77655 -0.283115,1.26508 -0.258384,1.53331 0.246618,2.67495 0.75523,1.70732 0.728525,1.73393 -0.529619,0.52771 -3.070772,-2.94406 -3.009619,-7.69733 0.147648,-11.476333 0.520745,-0.62329 1.022758,-1.44845 1.115587,-1.8337 3.612287,-14.991177 24.78766,-16.202761 30.39999,-1.73938 0.51235,1.32035 1.38222,3.00044 1.93305,3.73352 3.12935,4.164783 3.08595,8.444793 -0.11622,11.460633 -0.69565,0.65517 -0.92363,0.77125 -0.7794,0.39687 0.89788,-2.3307 0.95258,-3.31849 0.27473,-4.96094 -0.52664,-1.27604 -1.08043,1.09552 -1.48012,6.33851 -0.50908,6.67786 0.44761,11.66227 2.73965,14.27377 0.64869,0.73911 0.71785,0.90079 0.28666,0.67018 -2.9394,-1.57202 -4.51126,-5.66243 -4.77234,-12.41892 -0.18829,-4.87276 -0.27009,-5.04668 -1.11997,-2.38125 -0.98001,3.07354 -1.86756,4.74817 -3.16995,5.98105 -1.21737,1.15239 -1.21737,1.15239 -1.21737,3.96875 0,5.34051 2.78489,8.52053 8.79367,10.04136 2.4564,0.62171 2.309,0.26783 1.80516,4.33395 -2.92283,23.5881 -4.56145,25.92245 -18.13945,25.84125 -2.54662,-0.0152 -5.250142,-0.11826 -6.007832,-0.22897 z M 87.231558,95.562887 c -1.249265,-0.882653 -0.463994,-3.036441 1.107085,-3.036441 1.226304,0 1.448517,0.40062 1.100672,1.984375 -0.327228,1.489876 -1.080222,1.848706 -2.207757,1.052066 z m 33.346002,-0.98592 c -0.343,-1.618149 0.01,-2.131004 1.37231,-1.996031 1.68112,0.166511 1.96259,2.537931 0.36724,3.094071 -1.30617,0.45533 -1.42637,0.37946 -1.73955,-1.09804 z M 88.161566,91.457413 c -2.36919,-1.26354 -1.283642,-5.283376 1.425919,-5.280251 0.341349,3.97e-4 1.139243,0.447933 1.773094,0.994531 1.152456,0.993816 1.152456,0.993816 0.232572,1.998098 -0.505939,0.552355 -1.028518,1.384738 -1.161288,1.84974 -0.296207,1.037395 -0.920435,1.157793 -2.270297,0.437882 z m 31.547594,-0.09783 c 0,-0.350735 -0.47352,-1.236756 -1.05228,-1.968937 -1.05228,-1.331237 -1.05228,-1.331237 0.0476,-2.272717 2.57179,-2.201362 6.3121,1.449879 3.84892,3.757275 -1.25074,1.171646 -2.84427,1.443022 -2.84427,0.484379 z M 91.708652,86.306275 c -2.099363,-1.766499 -0.898411,-5.156912 1.826683,-5.156912 1.441746,0 3.107402,3.012614 2.04801,3.704167 -0.334386,0.218281 -1.040191,0.783828 -1.568458,1.25677 -1.154713,1.033784 -1.29626,1.045812 -2.306235,0.195975 z M 115.47583,85.73879 c -1.564,-1.311233 -1.6054,-1.48438 -0.72988,-3.052538 1.32755,-2.377796 4.27631,-1.597985 4.85256,1.28328 0.13764,0.688198 0.007,0.970829 -0.88123,1.904398 -1.30122,1.36787 -1.45643,1.361399 -3.24145,-0.13514 z m -4.84642,-2.444898 c -2.06829,-0.689321 -2.06829,-0.689321 -1.92983,-1.766047 0.31182,-2.424932 1.28263,-3.484948 2.91178,-3.179318 2.10595,0.395078 3.0237,2.174428 2.13641,4.142091 -0.69015,1.53049 -0.82903,1.566263 -3.11836,0.803274 z M 96.474549,82.766984 c -1.146958,-2.040738 -0.29814,-3.99414 1.916091,-4.409532 1.601308,-0.300408 2.16168,0.133567 2.78711,2.158482 0.64137,2.076509 0.76307,1.862301 -1.499622,2.63951 -2.392594,0.821833 -2.532919,0.804817 -3.203579,-0.38846 z m 5.933131,-1.358392 c -0.86617,-2.16478 -0.23677,-3.708866 1.72739,-4.23776 2.97208,-0.800297 4.92447,1.92988 3.40731,4.764706 -0.62483,1.167522 -4.62079,0.757439 -5.1347,-0.526946 z"
       id="path332" /></g></svg>
