<?xml version="1.0" encoding="UTF-8" standalone="no"?>
<!-- Created with Inkscape (http://www.inkscape.org/) -->

<svg
   width="270.93332mm"
   height="270.93332mm"
   viewBox="0 0 270.93332 270.93332"
   version="1.1"
   id="svg1"
   xml:space="preserve"
   inkscape:version="1.3 (0e150ed6c4, 2023-07-21)"
   sodipodi:docname="thadUser.svg"
   inkscape:export-filename="..\assets\thadUser.png"
   inkscape:export-xdpi="93.750008"
   inkscape:export-ydpi="93.750008"
   xmlns:inkscape="http://www.inkscape.org/namespaces/inkscape"
   xmlns:sodipodi="http://sodipodi.sourceforge.net/DTD/sodipodi-0.dtd"
   xmlns:xlink="http://www.w3.org/1999/xlink"
   xmlns="http://www.w3.org/2000/svg"
   xmlns:svg="http://www.w3.org/2000/svg"><sodipodi:namedview
     id="namedview1"
     pagecolor="#505050"
     bordercolor="#ffffff"
     borderopacity="1"
     inkscape:showpageshadow="0"
     inkscape:pageopacity="0"
     inkscape:pagecheckerboard="1"
     inkscape:deskcolor="#505050"
     inkscape:document-units="mm"
     inkscape:zoom="0.69219276"
     inkscape:cx="512.14058"
     inkscape:cy="512.14058"
     inkscape:window-width="1920"
     inkscape:window-height="991"
     inkscape:window-x="951"
     inkscape:window-y="1791"
     inkscape:window-maximized="1"
     inkscape:current-layer="layer1" /><defs
     id="defs1"><linearGradient
       id="linearGradient1"
       inkscape:collect="always"><stop
         style="stop-color:#ff001a;stop-opacity:1;"
         offset="0"
         id="stop1" /><stop
         style="stop-color:#0044ff;stop-opacity:1;"
         offset="1"
         id="stop2" /></linearGradient><linearGradient
       inkscape:collect="always"
       xlink:href="#linearGradient1"
       id="linearGradient2"
       x1="240.39137"
       y1="13.03334"
       x2="-30.541948"
       y2="283.96661"
       gradientUnits="userSpaceOnUse" /></defs><g
     inkscape:label="Layer 1"
     inkscape:groupmode="layer"
     id="layer1"
     transform="translate(30.541948,-13.03334)"><rect
       style="fill:url(#linearGradient2);stroke-width:2"
       id="rect1"
       width="270.93329"
       height="270.93329"
       x="-30.541948"
       y="13.03334"
       transform="translate(-1.1041667e-6)" /><path
       style="display:inline;fill:#000000"
       d="m -29.748616,283.68696 c 0,-0.25908 1.44996,-5.74908 3.17552,-12.02347 3.05571,-11.11106 7.01695,-23.05101 9.11262,-27.46721 1.45931,-3.0752 1.10117,-2.8695 14.83165,-8.51891 21.08625,-8.67594 32.26955,-13.39996 47.88958,-20.22942 0.73458,-0.32117 1.20028,-0.76084 1.52234,-1.43724 0.80211,-1.6846 3.6154,-5.96195 6.63017,-10.08055 3.5666,-4.87249 5.54136,-7.31182 8.11932,-10.02942 1.71229,-1.80504 2.34726,-2.26714 4.63025,-3.36963 1.45521,-0.70275 2.78213,-1.27943 2.9487,-1.28153 0.36937,-0.005 0.22502,0.66713 -0.99416,4.62641 l -0.8962,2.91042 0.003,7.01145 c 0.004,10.11482 0.87386,16.23908 3.85286,27.11979 2.84327,10.38496 9.08349,27.69724 14.8776,41.275 2.72572,6.38739 3.26835,7.67128 3.46656,8.20208 0.14904,0.39915 0.76876,-0.90109 2.52209,-5.29166 1.27847,-3.20146 2.96588,-7.24958 3.7498,-8.99583 1.18757,-2.64541 1.41717,-3.40054 1.37652,-4.5271 -0.0594,-1.64531 -0.6973,-4.18657 -1.58651,-6.3202 -0.79486,-1.90723 -3.79652,-7.27666 -4.06786,-7.27666 -0.10576,0 -0.25955,0.17525 -0.34174,0.38945 -0.0822,0.2142 -1.40469,2.18612 -2.93888,4.38205 -1.53419,2.19593 -2.96319,4.31263 -3.17556,4.70378 -0.82602,1.5214 -0.34119,-0.0433 1.06058,-3.42282 2.39354,-5.77057 6.5285,-13.27333 9.53295,-17.29725 1.6254,-2.17693 4.35984,-4.86938 5.669096,-5.58201 1.35476,-0.73741 6.28798,-0.72774 7.80402,0.0153 3.2288,1.58247 8.26781,8.48658 12.8033,17.54221 1.22397,2.44379 1.77262,3.7135 3.51424,8.13284 0.6775,1.71915 0.61452,1.64327 -3.36071,-4.04917 l -3.38199,-4.84293 -1.20074,2.0648 c -1.59352,2.74023 -3.30883,6.68203 -3.84183,8.82858 -0.69084,2.78226 -0.58139,3.66402 0.86339,6.95555 2.61136,5.94927 3.15778,7.25044 4.46085,10.62233 0.73107,1.89178 1.40484,3.66499 1.49727,3.94048 0.0924,0.27549 0.21006,0.45408 0.26139,0.39687 0.28712,-0.31995 5.91637,-14.07501 8.16361,-19.94776 10.9301,-28.56373 14.48476,-42.75132 14.48476,-57.81241 0,-4.89172 -0.1664,-5.91852 -1.64658,-10.16055 l -1.11421,-3.19319 -0.33716,3.02415 c -0.18543,1.66329 -0.51688,3.74536 -0.73655,4.62683 -1.51059,6.06164 -9.20266,15.83809 -17.19987,21.86066 -3.55175,2.67476 -6.59081,4.50192 -12.1665,7.31481 l -5.02274,2.53393 -3.20901,-1.62441 c -12.431376,-6.29279 -18.394416,-10.84208 -24.876626,-18.97875 -4.93814,-6.19849 -6.7816,-10.40125 -7.09591,-16.1774 -0.0774,-1.42262 -0.20628,-5.05597 -0.28638,-8.07411 l -0.14564,-5.48753 -1.30717,-2.15216 c -2.38528,-3.92722 -3.87397,-8.7238 -5.19462,-16.73709 l -0.71451,-4.33548 -1.91092,-0.12264 c -2.22548,-0.14282 -3.83006,-0.93178 -4.99121,-2.45412 -1.66745,-2.18614 -4.01726,-8.35316 -5.8474,-15.34637 -1.42374,-5.4403 -2.05978,-9.3978 -2.08366,-12.96458 -0.0189,-2.83029 0.0466,-3.31207 0.60413,-4.43751 0.34396,-0.69438 0.97591,-1.53685 1.40435,-1.87215 l 0.77897,-0.60963 -0.69949,-1.30286 c -3.97949,-7.4121 -6.74292,-18.494231 -6.74292,-27.041186 v -3.00428 l -0.92851,-0.974525 c -2.128,-2.233452 -2.5416,-4.776917 -1.28682,-7.913381 l 0.69508,-1.737441 -0.41842,-2.541018 c -0.56744,-3.445946 -0.64881,-4.26081 -0.42544,-4.26081 0.10454,0 0.26662,0.304958 0.36017,0.677685 0.34957,1.392797 2.45147,4.765098 3.89874,6.255163 2.14185,2.205179 3.82357,2.904485 7.23332,3.007825 1.45521,0.0441 2.34818,0.02026 1.98438,-0.05298 -0.3638,-0.07324 -1.73302,-0.650553 -3.04271,-1.282909 -3.82509,-1.846866 -7.09004,-5.256741 -8.18244,-8.545637 -0.38875,-1.170418 -0.55199,-1.332223 -2.07219,-2.053889 -4.48243,-2.127892 -7.89997,-7.068219 -8.30479,-12.005233 l -0.1429,-1.74273 0.51717,0.806118 c 0.88249,1.375544 3.5472,3.553906 5.48515,4.484037 2.57438,1.235587 5.25449,1.72823 9.18312,1.687993 l 3.2523,-0.03331 -1.85209,-0.314916 c -2.62022,-0.445527 -5.19689,-1.363892 -6.53009,-2.327427 -2.63369,-1.903438 -4.8271,-4.818376 -5.88773,-7.824501 l -0.3706,-1.050414 1.14554,1.145543 c 3.01069,3.010696 7.79948,3.782777 11.70217,1.886705 0.62224,-0.302306 1.13134,-0.63367 1.13134,-0.736366 0,-0.102696 -0.55492,-0.511923 -1.23315,-0.909394 l -1.23315,-0.722674 1.86895,-0.474626 c 2.13281,-0.541634 3.60206,-1.229642 5.48067,-2.566441 1.16455,-0.828685 8.87501,-7.193394 8.87501,-7.326006 0,-0.02885 -0.54,-0.638617 -1.19999,-1.355049 -0.66,-0.716432 -1.521,-1.957447 -1.91333,-2.757811 -0.63564,-1.29673 -0.71383,-1.757759 -0.71802,-4.233333 -0.004,-2.445089 0.0778,-2.95402 0.68331,-4.245407 0.84723,-1.806873 2.11544,-3.284487 3.66285,-4.267649 1.61314,-1.02492 1.80616,-0.937877 0.72394,0.326457 -1.22907,1.435886 -1.59901,2.93997 -1.14941,4.673214 0.67079,2.58596 3.09915,4.571718 5.5907,4.571718 0.75219,0 0.93453,-0.101312 0.93453,-0.519242 0,-1.232111 1.10253,-3.390158 2.41868,-4.734249 1.12553,-1.149414 3.45102,-2.684009 4.06729,-2.684009 0.0845,0 -0.22639,0.472788 -0.69076,1.050641 -1.49703,1.862854 -1.34138,4.587922 0.31086,5.442327 1.06431,0.55038 1.60327,0.420494 8.32915,-2.007286 9.07901,-3.277171 13.23697,-4.108385 19.431456,-3.884521 3.81184,0.137758 6.10969,0.50652 9.65729,1.549818 2.99243,0.880029 14.33191,5.453678 17.11923,6.904844 6.62192,3.447574 10.49274,8.140381 12.29249,14.902846 0.6114,2.297299 0.70153,3.153407 0.70883,6.732996 0.007,3.341849 -0.0981,4.53081 -0.56672,6.42258 -0.7286,2.94123 -1.88118,5.65548 -3.27443,7.711035 -1.16902,1.72474 -0.77886,1.562945 1.20447,-0.499476 4.69438,-4.881586 6.65649,-10.233555 5.94234,-16.208664 -0.21803,-1.824164 -1.33424,-5.47795 -1.83639,-6.011203 -1.26074,-1.338832 2.82338,0.641253 5.47527,2.654545 3.27942,2.489711 5.40811,5.801343 5.81701,9.049627 0.15384,1.222154 0.28057,1.451845 1.00427,1.820173 4.65858,2.370995 8.67555,8.60299 10.33389,16.032203 0.0897,0.401607 0.17023,1.94942 0.17907,3.439583 0.0131,2.211499 -0.10926,3.103094 -0.66591,4.851839 -0.63199,1.985379 -0.68899,2.577008 -0.77752,8.069791 -0.0748,4.639184 -0.21723,6.559845 -0.65548,8.837747 -1.06008,5.50995 -2.40159,9.6521 -4.78443,14.77265 l -1.08762,2.33724 1.01476,1.15283 c 1.31686,1.49603 1.63708,2.64714 1.63708,5.88491 0,7.59486 -4.60874,23.67867 -8.09455,28.24881 -0.99177,1.30027 -3.5389,2.5046 -5.29718,2.5046 -1.61117,0 -1.36289,-0.56178 -2.10477,4.7625 -0.46175,3.31387 -1.86032,9.10342 -2.73224,11.31046 -0.79067,2.00137 -2.08736,4.51324 -3.03925,5.88745 l -0.82472,1.19063 -0.0807,5.29202 -0.0807,5.29203 2.72654,1.17832 c 3.06826,1.32601 4.60145,2.60164 8.03487,6.68509 4.09429,4.86945 10.18323,13.4151 11.91426,16.72134 0.69057,1.31896 0.79206,1.39247 3.65011,2.64381 7.7924,3.41174 27.77941,11.84829 38.92312,16.42952 16.74159,6.88255 19.2641,8.00322 20.31756,9.02645 1.19691,1.16255 2.33541,3.50898 4.09199,8.4335 3.83859,10.76139 9.32482,29.99616 9.32482,32.69289 v 1.04148 H 104.9243 c -94.442126,0 -134.672916,-0.0835 -134.672916,-0.27965 z M 115.32462,199.17365 c 4.37396,-0.92679 8.42477,-4.7086 13.55799,-12.65764 8.8125,-13.64659 15.19783,-34.06018 16.80197,-53.71508 0.40496,-4.96181 0.18481,-14.87313 -0.44173,-19.88744 -0.36306,-2.90564 -0.45386,-5.48894 -0.4212,-11.98334 0.0446,-8.86914 -0.15782,-10.995338 -1.27257,-13.36687 -1.24077,-2.639637 -3.58664,-4.508333 -6.66661,-5.310562 -7.36874,-1.919313 -21.04047,0.868497 -25.55893,5.211734 -1.05523,1.014308 -2.5363,3.953758 -3.0905,6.133632 -1.33622,5.255866 -1.1119,13.079536 0.55229,19.261916 0.5629,2.09113 2.02472,5.21474 2.74589,5.86739 0.5388,0.48761 0.64452,0.48958 3.39076,0.0632 5.49472,-0.85305 8.71804,-1.09216 14.87315,-1.10334 5.71554,-0.0104 6.36946,0.0364 8.09661,0.57969 3.13846,0.98717 5.46774,3.11209 6.2422,5.69458 0.16393,0.54664 0.23639,1.05556 0.16103,1.13093 -0.0754,0.0754 -0.83383,-0.0445 -1.68548,-0.26629 -2.51381,-0.65477 -2.63484,-0.5903 -1.55286,0.82717 1.26796,1.66111 1.96767,3.08856 1.96767,4.01414 0,0.76549 -0.006,0.76835 -2.05052,0.95151 -1.39367,0.12487 -3.32185,0.616 -6.01927,1.53318 l -3.96875,1.34947 -7.14375,0.18981 c -5.00787,0.13305 -7.72245,0.31842 -9.07928,0.61998 -1.06454,0.23659 -1.98284,0.43017 -2.04066,0.43017 -0.0578,0 -0.57202,-0.68461 -1.14266,-1.52136 -1.28035,-1.87743 -2.43447,-2.74859 -3.85318,-2.90849 -0.82442,-0.0929 -1.24802,0.007 -1.74671,0.41015 l -0.65834,0.53283 -0.16833,8.02729 c -0.17379,8.28812 -0.20494,8.73193 -0.95061,13.54111 -0.51155,3.29921 -0.37075,3.83725 1.25394,4.79168 0.81902,0.48114 1.34178,0.53949 4.6275,0.51656 2.80932,-0.0196 3.95166,-0.13146 4.72866,-0.46302 0.56348,-0.24044 1.06949,-0.43717 1.12448,-0.43717 0.26489,0 0.0553,1.96309 -0.27682,2.59283 -0.41924,0.79492 -2.26656,2.60949 -5.84091,5.73734 -2.78204,2.43452 -5.68854,5.21283 -5.68854,5.43766 0,0.34735 1.93363,1.04884 2.89109,1.04884 0.56158,0 1.91045,-0.18393 2.99748,-0.40874 l 1.97642,-0.40873 3.80657,1.29203 c 2.09361,0.71061 4.69953,1.50507 5.79094,1.76545 1.95493,0.4664 2.62627,0.77816 2.32483,1.0796 -0.60048,0.60048 -3.56964,0.97201 -9.60087,1.20135 -9.70032,0.36886 -12.01106,0.56321 -12.30907,1.03529 -0.42481,0.67294 -0.28809,1.32089 0.41653,1.9739 1.15275,1.06833 2.92507,1.33339 8.91589,1.33339 3.0195,0 5.49005,0.0964 5.4901,0.21427 2e-4,0.48014 -2.84168,3.17373 -4.25297,4.03104 -0.83159,0.50517 -3.04258,1.41123 -4.91331,2.01348 -3.84934,1.23922 -5.10071,2.15123 -5.62542,4.09987 -1.39835,5.19306 5.81796,9.48595 13.28586,7.90358 z m 44.7545,-110.166548 c -0.83871,-2.919396 -2.30048,-4.553952 -5.28086,-5.905064 -1.09716,-0.49738 -1.88732,-0.615338 -4.63021,-0.691214 -1.81901,-0.05032 -3.78354,0.02344 -4.36563,0.163913 -0.97599,0.235533 -0.99616,0.25747 -0.25926,0.28198 1.35536,0.04508 4.56807,1.049733 6.5619,2.051986 2.63806,1.326091 5.82215,4.535706 7.14713,7.204411 0.53351,1.074577 0.99451,2.205671 1.02443,2.513541 0.0299,0.30787 0.0943,-0.494522 0.143,-1.783095 0.0607,-1.606485 -0.0463,-2.812306 -0.3405,-3.836458 z m 1.20143,-7.405704 c 0,-0.12296 -0.45768,-0.931686 -1.01707,-1.79717 -1.46164,-2.261433 -3.22156,-3.564765 -6.3255,-4.684416 l -1.91135,-0.689465 -0.38489,0.744283 c -0.6171,1.193351 -3.34404,3.540434 -5.11369,4.401373 l -1.63154,0.79375 6.1415,0.0023 c 5.96022,0.0022 6.19616,0.02262 7.99358,0.690371 2.19075,0.81388 2.24896,0.827829 2.24896,0.538966 z M 155.78142,70.71826 c 0.68625,-0.303456 1.93633,-0.637753 2.77794,-0.742881 l 1.5302,-0.191142 -0.92586,-0.54573 c -1.17894,-0.694902 -2.54667,-1.171878 -3.36036,-1.171878 -0.47936,0 -0.70947,0.211507 -0.93549,0.859896 -0.16487,0.472942 -0.64366,1.514739 -1.06398,2.315104 l -0.76423,1.455208 0.74701,-0.713419 c 0.41087,-0.39238 1.30851,-0.961701 1.99477,-1.265158 z m -42.23738,-3.908402 c -0.58587,-7.360152 -3.48333,-12.780728 -8.96182,-16.765779 -2.685,-1.953073 -2.6866,-1.960705 -0.18709,-0.896215 5.32809,2.269123 9.59605,5.524348 11.8953,9.072698 0.4914,0.758362 0.94839,1.323905 1.01554,1.256763 0.27611,-0.276113 -2.65648,-5.68654 -3.91985,-7.231844 -4.52415,-5.533771 -11.64746,-8.537702 -20.188786,-8.513691 -5.31001,0.01493 -10.4246,0.848851 -18.43554,3.005875 -4.3628,1.174727 -12.29435,3.831143 -12.07976,4.045727 0.0625,0.06249 1.16888,-0.09911 2.45866,-0.359109 2.92766,-0.59016 13.74624,-0.678342 17.29402,-0.140964 10.65495,1.613894 18.335816,4.683384 23.992496,9.588079 2.49178,2.160522 5.93711,6.587739 6.71125,8.623869 0.45303,1.191566 0.58946,0.62464 0.40558,-1.685409 z M 93.936844,62.123249 c -4.24973,-3.814342 -10.16159,-6.576128 -15.63902,-7.305927 -3.89714,-0.519245 -9.1368,0.102292 -13.85478,1.643475 -2.05367,0.670857 -7.4693,2.901809 -7.34525,3.025856 0.048,0.04802 1.51199,-0.203177 3.25326,-0.55822 5.86408,-1.195677 12.65072,-1.425305 18.2472,-0.617401 3.98123,0.574729 12.88111,3.209179 15.34583,4.542517 1.36122,0.736373 1.35883,0.495817 -0.007,-0.7303 z m 32.148226,-5.830578 c -0.58054,-4.335368 -2.07426,-8.578746 -4.05942,-11.53205 -1.49368,-2.22213 -4.28857,-4.890534 -7.04718,-6.728248 -6.68083,-4.450594 -12.75741,-6.319783 -21.388946,-6.579355 -3.52984,-0.106151 -4.88764,0.158118 -2.35099,0.457572 2.40702,0.28415 5.76535,1.255551 9.452436,2.734121 7.79853,3.127326 14.07405,7.305409 18.40751,12.255252 3.16341,3.613371 5.93278,8.646179 6.76673,12.297249 l 0.35805,1.567551 0.0903,-1.045421 c 0.0497,-0.574981 -0.0532,-2.116983 -0.22853,-3.426671 z m 9.25107,-4.106359 c 0.0246,-5.346964 -1.07218,-8.363541 -4.29255,-11.806128 -2.94355,-3.146662 -8.04004,-5.983631 -13.28617,-7.395764 -2.24272,-0.603689 -6.29845,-1.219138 -10.18729,-1.5459 l -1.71979,-0.144507 2.31358,0.652072 c 4.80507,1.354289 10.67018,4.072486 14.99172,6.947941 4.19516,2.791364 7.99748,6.979586 9.79999,10.7946 0.86703,1.83507 1.84043,5.430918 1.89516,7.00092 l 0.0323,0.926042 0.21891,-1.058334 c 0.1204,-0.582083 0.22577,-2.549007 0.23416,-4.370942 z M 111.9004,44.02692 c -3.37195,-3.167818 -7.45156,-5.35337 -12.509476,-6.701637 -2.85537,-0.761142 -10.64152,-0.964197 -14.7647,-0.385047 -2.9975,0.421035 -6.77443,1.231666 -6.59141,1.414694 0.0546,0.0546 0.91809,-0.0426 1.91886,-0.216001 1.00077,-0.1734 3.84364,-0.313653 6.3175,-0.311674 5.46173,0.0044 9.79319,0.669225 14.604736,2.241739 3.18637,1.041373 10.18687,4.304065 11.98589,5.586206 1.68093,1.197978 1.22495,0.425719 -0.9614,-1.62828 z"
       id="path1" /></g></svg>
