<?xml version="1.0" encoding="UTF-8" standalone="no"?>
<!-- Created with Inkscape (http://www.inkscape.org/) -->

<svg
   width="270.93332mm"
   height="132.29167mm"
   viewBox="0 0 270.93332 132.29167"
   version="1.1"
   id="svg1"
   xml:space="preserve"
   inkscape:version="1.3.2 (091e20ef0f, 2023-11-25)"
   sodipodi:docname="feature.svg"
   xmlns:inkscape="http://www.inkscape.org/namespaces/inkscape"
   xmlns:sodipodi="http://sodipodi.sourceforge.net/DTD/sodipodi-0.dtd"
   xmlns:xlink="http://www.w3.org/1999/xlink"
   xmlns="http://www.w3.org/2000/svg"
   xmlns:svg="http://www.w3.org/2000/svg"><sodipodi:namedview
     id="namedview1"
     pagecolor="#ffffff"
     bordercolor="#000000"
     borderopacity="0.25"
     inkscape:showpageshadow="2"
     inkscape:pageopacity="0.0"
     inkscape:pagecheckerboard="0"
     inkscape:deskcolor="#d1d1d1"
     inkscape:document-units="mm"
     inkscape:zoom="1.4677327"
     inkscape:cx="871.75276"
     inkscape:cy="167.94612"
     inkscape:window-width="3440"
     inkscape:window-height="1371"
     inkscape:window-x="0"
     inkscape:window-y="1112"
     inkscape:window-maximized="1"
     inkscape:current-layer="layer1" /><defs
     id="defs1"><linearGradient
       id="linearGradient3"
       inkscape:collect="always"><stop
         style="stop-color:#000000;stop-opacity:1;"
         offset="0"
         id="stop3" /><stop
         style="stop-color:#000000;stop-opacity:0;"
         offset="1"
         id="stop4" /></linearGradient><linearGradient
       id="linearGradient1"
       inkscape:collect="always"><stop
         style="stop-color:#00e4d2;stop-opacity:1;"
         offset="0.04377341"
         id="stop2" /><stop
         style="stop-color:#ff34e0;stop-opacity:1;"
         offset="0.73079956"
         id="stop1" /></linearGradient><linearGradient
       inkscape:collect="always"
       xlink:href="#linearGradient1"
       id="linearGradient2"
       x1="536.15283"
       y1="13.03334"
       x2="-30.46666"
       y2="283.96661"
       gradientUnits="userSpaceOnUse"
       gradientTransform="matrix(0.47773166,0,0,0.48739081,-16.041139,6.5516447)" /><linearGradient
       inkscape:collect="always"
       xlink:href="#linearGradient3"
       id="linearGradient4"
       x1="104.06509"
       y1="49.390705"
       x2="209.34761"
       y2="49.390705"
       gradientUnits="userSpaceOnUse" /></defs><g
     inkscape:label="Layer 1"
     inkscape:groupmode="layer"
     id="layer1"
     transform="translate(30.716659,-12.783341)"><rect
       style="fill:url(#linearGradient2);stroke:#ffffff;stroke-width:0.241268;stroke-linecap:round"
       id="rect1"
       width="270.69205"
       height="132.0504"
       x="-30.596025"
       y="12.903975" /><path
       style="fill:#000000;stroke-width:0.487854"
       d="m -19.204041,144.34364 c -2.214578,-1.48735 -4.943248,-4.63299 -6.026071,-6.94693 -0.356648,-0.76213 -0.38514,-0.9245 -0.343812,-1.9591 0.05836,-1.46099 0.345901,-2.05366 2.168887,-4.47044 3.10345,-4.11433 3.952212,-5.79538 3.507374,-6.94669 -0.194939,-0.50453 -1.190673,-1.17511 -2.578273,-1.73634 -1.236158,-0.49998 -1.826684,-0.9783 -1.826684,-1.47959 0,-0.31687 0.27504,-0.85486 0.920333,-1.80021 0.274738,-0.4025 0.499524,-0.8461 0.499524,-0.98579 0,-0.34827 -0.549822,-1.01541 -1.442435,-1.75019 -0.853499,-0.7026 -1.144417,-1.17012 -1.046583,-1.68191 0.03751,-0.1962 0.467667,-0.79653 0.955911,-1.33407 0.488245,-0.53753 0.887717,-1.06812 0.887717,-1.17909 0,-0.11096 -0.518987,-0.70033 -1.153305,-1.30971 -1.400126,-1.34508 -1.51816,-1.6442 -0.900329,-2.28164 0.237321,-0.24486 0.966198,-0.70357 1.619727,-1.01937 0.65353,-0.3158 1.224496,-0.63286 1.268814,-0.70456 0.126962,-0.20543 -0.163242,-0.65264 -0.981272,-1.51214 -0.416449,-0.43756 -0.757181,-0.86014 -0.757181,-0.93906 0,-0.079 0.341853,-0.51098 0.759673,-0.9601 0.41782,-0.44913 0.822718,-0.9344 0.899775,-1.07838 0.1865,-0.34848 0.522276,-0.26254 2.095839,0.53644 0.95643,0.48562 1.317319,0.60888 1.585595,0.54155 0.517736,-0.12994 0.684829,-0.60433 0.474435,-1.34694 -0.678476,-2.394739 -0.687905,-2.347298 0.466572,-2.347298 0.798618,0 0.868134,-0.02501 1.314351,-0.472006 l 0.471134,-0.472016 0.774468,0.135461 c 0.425957,0.07447 1.102004,0.259623 1.502328,0.411378 0.680767,0.25807 0.736976,0.312134 0.868786,0.835601 0.170937,0.67886 0.935293,1.42374 1.655258,1.6131 0.270247,0.0711 1.217422,0.19398 2.1048326,0.27311 2.297784,0.20491 3.22695,0.451 3.22695,0.85467 0,0.11078 -0.1067178,0.35559 -0.2371513,0.54404 -0.3759748,0.54318 -0.418185,0.77887 -0.223103,1.24577 0.2830226,0.67738 0.9317584,0.93283 2.9360617,1.15617 2.459476,0.27406 4.47886564,0.844 5.4079779,1.52632 0.2798283,0.2055 0.2825291,0.21538 0.025714,0.0941 -1.51865782,-0.71706 -3.417586,-0.10457 -3.417586,1.10233 0,0.34397 0.095036,0.57354 0.3382154,0.81694 0.3290493,0.32937 0.392216,0.3403 2.33036521,0.40308 1.09568159,0.0356 2.05019369,0.12281 2.12113699,0.19403 0.086017,0.0863 0.00201,0.31857 -0.2522099,0.69709 -0.6283543,0.9356 -0.4506932,1.95685 0.3718479,2.13751 0.2010203,0.0442 0.7963202,0.10257 1.3228896,0.12982 0.5265694,0.0272 1.2698944,0.11181 1.6518334,0.18793 0.6794365,0.13542 1.5644304,0.57554 1.5644304,0.77802 0,0.0561 -0.2994297,0.14164 -0.6653987,0.19018 -0.9222022,0.12234 -1.5289281,0.71518 -1.5289281,1.49393 0,0.43985 0.079136,0.62097 0.4195038,0.96004 0.3528014,0.35146 0.5476525,0.43118 1.225454,0.50134 2.1263019,0.22012 2.5729852,1.07807 1.858723,3.57007 -0.4349437,1.51749 -0.3268314,2.30419 0.3531341,2.56968 0.1860212,0.0726 0.862191,0.12299 1.502599,0.1119 0.640409,-0.011 1.241007,0.0271 1.334664,0.0851 0.128586,0.0795 0.148818,0.319 0.08262,0.97815 -0.153162,1.52512 0.213303,1.87388 2.093122,1.99207 1.334028,0.0839 1.544492,0.21038 1.652148,0.99313 0.108178,0.78655 0.404238,1.0501 1.235538,1.09982 2.056072,0.12299 2.711834,0.47981 3.146635,1.71216 0.264339,0.74922 0.250116,1.146 -0.08204,2.28919 -0.276012,0.94993 -0.276472,0.96717 -0.0323,1.20161 0.136267,0.13082 0.375926,0.27608 0.532568,0.3228 0.255589,0.0762 0.30856,0.008 0.516314,-0.66417 0.136822,-0.44275 0.23065,-1.14503 0.229433,-1.7172 -0.0029,-1.15931 -0.268805,-1.80941 -1.477846,-3.60751 -0.991628,-1.47477 -1.363465,-1.68967 -2.359741,-1.36381 -0.353103,0.1155 -0.66703,0.18496 -0.697614,0.15438 -0.03058,-0.0306 0.24161,-0.38081 0.60488,-0.77829 0.770725,-0.8433 0.777119,-0.7445 -0.165902,-2.56346 -0.833988,-1.60864 -1.185205,-2.02293 -1.838473,-2.16864 -0.517618,-0.11546 -1.368281,0.005 -1.921079,0.27059 -0.276225,0.13303 -0.09044,-0.0361 0.626818,-0.57069 0.240209,-0.17902 0.218372,-0.19599 -0.364976,-0.28347 -0.380774,-0.0571 -0.741269,-0.038 -0.933157,0.0495 -0.171976,0.0784 -0.312684,0.1107 -0.312684,0.0719 0,-0.0388 0.551809,-0.32844 1.226242,-0.6436 0.674432,-0.31517 1.226241,-0.60269 1.226241,-0.63893 0,-0.14712 -1.351972,-2.74967 -1.724613,-3.31988 -0.428314,-0.65541 -0.90242,-0.94832 -1.95411,-1.20727 l -0.64539,-0.15891 0.883122,-0.011 0.883122,-0.0109 -0.477103,-0.87127 c -0.794975,-1.45178 -2.091097,-3.35808 -2.4375355,-3.58507 -0.1795539,-0.11765 -0.7497251,-0.38089 -1.267047,-0.58497 -0.9547334,-0.37666 -0.969674,-0.47033 -0.040665,-0.25494 0.281979,0.0654 0.5345684,0.097 0.5613118,0.0703 0.02674,-0.0267 -0.1748145,-0.38524 -0.4479033,-0.79667 -0.6824777,-1.0282 -2.8754502,-3.21544 -4.0466631,-4.03609 -1.9836054,-1.38988 -3.80283813,-2.13941 -7.8737574,-3.244 l -0.5808509,-0.15761 0.7099283,-0.17001 c 0.9612056,-0.23019 3.1042172,-0.22074 4.1304968,0.0182 2.1908813,0.51012 5.3348878,2.05528 7.0347499,3.45734 2.7674174,2.28257 5.9037254,6.53693 10.3883904,14.09172 3.166698,5.33455 4.684768,7.32464 6.767934,8.87225 2.77738,2.06336 7.01545,3.38087 16.081262,4.99925 4.603357,0.82176 10.531025,1.71722 14.625075,2.20931 0.760765,0.0914 2.073583,0.12426 3.291489,0.0823 2.183138,-0.0752 2.977812,-0.24032 5.640165,-1.17179 3.720597,-1.3017 6.910523,-3.36237 7.720186,-4.98714 l 0.319725,-0.6416 0.438913,0.54637 c 2.208411,2.74904 3.892382,6.20405 4.445479,9.12088 0.387043,2.04108 0.217951,5.44943 -0.343637,6.92652 l -0.118249,0.31101 H 67.152312 c -9.57393,0 -10.006738,-0.0101 -10.006738,-0.23384 0,-0.3575 0.46386,-2.05122 1.226255,-4.4775 0.763621,-2.43021 0.934802,-3.16241 0.739296,-3.16241 -0.161204,0 -0.866266,0.79242 -1.417236,1.59282 -0.23088,0.3354 -0.515182,0.64642 -0.631792,0.69117 -0.561052,0.2153 -0.78278,-1.3393 -0.303221,-2.12586 0.32467,-0.53251 0.783556,-0.71181 1.645203,-0.64289 0.499398,0.04 0.677662,0.01 0.677662,-0.11443 0,-0.26662 -0.707191,-0.56252 -1.344417,-0.56252 -0.46984,0 -0.672658,0.0789 -1.046639,0.40729 -0.870253,0.76409 -1.296659,2.13734 -0.970512,3.12559 0.291835,0.88425 1.121049,0.93123 1.828,0.10357 0.222696,-0.26071 0.376683,-0.38691 0.342199,-0.28042 -0.0345,0.10649 -0.433056,1.31238 -0.885712,2.67976 -0.701948,2.12045 -0.799418,2.5239 -0.662643,2.7429 0.159929,0.2561 0.06134,0.25676 -37.24109,0.25278 l -37.401442,-0.004 z m 84.610623,-0.63453 c 0,-0.48583 -1.058418,-2.60533 -2.058479,-4.12211 -0.345717,-0.52436 -0.606241,-0.95337 -0.578946,-0.95337 0.02722,0 0.239804,0.11596 0.472246,0.25767 0.951623,0.58021 1.777944,0.18857 1.777944,-0.84267 0,-0.74744 -0.240072,-1.29549 -0.825928,-1.88543 -0.844022,-0.84991 -1.881988,-1.11029 -2.824668,-0.70862 -0.463429,0.19747 -1.086192,0.80869 -0.956299,0.93859 0.04619,0.0462 0.409767,-0.0407 0.807976,-0.19311 0.862845,-0.33019 1.692165,-0.35632 2.106149,-0.0663 0.640217,0.44843 1.029638,2.01062 0.591788,2.37401 -0.252559,0.20961 -0.603596,0.0575 -1.592605,-0.69013 -1.843546,-1.39358 -2.17135,-1.34591 -1.064801,0.15486 1.471539,1.99581 2.36489,3.6035 3.113485,5.60314 l 0.424584,1.13416 0.303777,-0.28539 c 0.201045,-0.18886 0.303777,-0.43076 0.303777,-0.71525 z m -5.365954,-6.82726 c 0.111558,-0.11155 0.202837,-0.34389 0.202837,-0.5163 0,-0.2593 -0.06421,-0.31348 -0.371431,-0.31348 -0.54473,0 -0.747874,0.30026 -0.479875,0.70928 0.246532,0.37626 0.369812,0.39916 0.648469,0.1205 z m -5.271579,-3.1709 c -0.845652,-0.0606 -1.548759,-0.12489 -1.562464,-0.14299 -0.0137,-0.0181 -0.444251,-0.6618 -0.956769,-1.43045 -1.836511,-2.75429 -4.590746,-5.49271 -7.212471,-7.17109 l -0.682175,-0.43671 0.360811,-0.21929 c 0.463601,-0.28176 1.822413,-0.82143 2.813301,-1.11733 0.573713,-0.17133 1.192701,-0.22925 2.387942,-0.22344 1.901059,0.01 3.013522,0.30651 4.553616,1.2168 0.856836,0.50643 2.93291,2.38447 2.93291,2.65313 0,0.0633 0.130689,0.26186 0.290427,0.44117 0.454218,0.50994 0.789958,1.02217 1.265098,1.93019 0.241471,0.46145 0.498506,0.88168 0.571183,0.93383 0.07265,0.0521 0.09124,0.0958 0.04131,0.0968 -0.05003,9.6e-4 0.05108,0.30693 0.224622,0.67964 0.17352,0.37271 0.316064,0.78274 0.316754,0.91117 4.89e-4,0.12842 0.05425,0.20074 0.119044,0.16071 0.06479,-0.0401 0.101984,0.0711 0.08271,0.24694 -0.01936,0.17585 0.01486,0.28888 0.07581,0.25117 0.118785,-0.0734 0.147883,0.0606 0.136075,0.62649 -0.0038,0.1964 0.04121,0.32703 0.100748,0.29024 0.05952,-0.0368 0.07782,0.0494 0.04064,0.19147 -0.06441,0.24628 -0.167683,0.25748 -2.214564,0.23998 -1.180845,-0.0101 -2.83889,-0.0679 -3.684532,-0.12844 z m -20.857497,-3.60354 c -2.888901,-0.74303 -4.64641,-1.33817 -6.260283,-2.11991 -2.424945,-1.1746 -3.825169,-2.56907 -5.992867,-5.96821 -1.736204,-2.72252 -2.471041,-3.90906 -2.420934,-3.90906 0.125807,0 2.791981,1.4383 4.025155,2.17141 3.41292,2.02897 4.931201,3.17746 8.184056,6.19076 1.1782,1.09144 2.548772,2.31383 3.045726,2.71644 1.200818,0.97287 1.706062,1.44159 1.54894,1.43697 -0.07102,-0.002 -1.029397,-0.23537 -2.129793,-0.5184 z m 37.063917,-2.38326 c -0.442574,-0.68387 -2.237011,-2.61662 -2.907925,-3.13209 -0.49036,-0.37674 -0.331906,-0.36167 0.478849,0.0455 0.812769,0.40823 2.092483,1.3177 2.582239,1.83515 0.391251,0.41336 0.572543,1.18673 0.387244,1.65184 -0.09681,0.24299 -0.149051,0.20427 -0.540407,-0.40045 z m -6.181137,-5.77573 c -0.669909,-0.54113 -0.673474,-0.54781 -0.350624,-0.65571 0.379501,-0.12684 0.624958,0.0322 0.914685,0.5924 0.320386,0.61956 0.148438,0.63885 -0.564061,0.0633 z m -6.43549,-1.95112 c -1.785773,-0.63068 -3.131732,-1.29069 -4.246581,-2.08241 -2.667038,-1.89399 -5.633225,-5.22682 -7.235808,-8.13019 l -0.498726,-0.90355 0.91895,0.83901 c 0.505426,0.46146 1.92665,1.79742 3.158271,2.9688 2.753123,2.61847 3.95534,3.63863 6.707399,5.69162 2.732411,2.03833 2.900899,2.16773 2.822961,2.16807 -0.03556,1.5e-4 -0.767406,-0.24795 -1.626466,-0.55135 z m -0.518498,-2.25761 c -3.021669,-2.21816 -3.660956,-2.77721 -8.439434,-7.38028 -3.229136,-3.11061 -4.086384,-3.86912 -6.077735,-5.37774 -1.186758,-0.89906 -3.451179,-2.32392 -4.893889,-3.07939 l -0.451775,-0.23657 0.709931,-0.10921 c 1.873276,-0.28819 5.803218,0.93105 8.114246,2.51738 0.455627,0.31275 0.586114,0.35267 0.683249,0.20899 0.271076,-0.40101 1.253262,-2.42672 1.541197,-3.17866 l 0.308924,-0.80674 h 0.61709 0.6171 l -0.790198,1.0649 c -1.241024,1.67246 -1.917008,2.71851 -1.955853,3.02658 -0.02799,0.22184 0.245612,0.51198 1.255017,1.33099 0.709931,0.57601 1.708813,1.45483 2.21975,1.95292 l 0.928975,0.90561 0.977308,-1.31319 c 0.537523,-0.72226 1.276791,-1.773 1.642826,-2.33497 0.456988,-0.70161 0.729243,-1.00459 0.868892,-0.96695 0.111866,0.0302 0.43528,0.0942 0.71872,0.14236 0.28342,0.0481 0.559979,0.11513 0.614569,0.14886 0.05463,0.0337 -0.243263,0.31883 -0.661895,0.63351 -1.05145,0.79039 -3.116139,2.76324 -3.555732,3.39757 l -0.363697,0.52482 0.688204,0.80981 c 0.378514,0.44539 0.893706,1.04283 1.144867,1.32764 0.568566,0.64475 0.822467,0.97851 1.913643,2.5155 l 0.87057,1.22623 1.819537,0.0863 c 1.4024,0.0665 3.390962,0.3659 3.621421,0.54516 0.01313,0.0102 -0.771039,0.005 -1.742558,-0.0121 -1.442739,-0.025 -2.897784,0.10834 -3.095427,0.28365 -0.03671,0.0326 1.072698,1.98064 1.645126,2.88894 0.151141,0.2398 0.258003,0.45061 0.237503,0.46846 -0.02051,0.0178 -0.799216,-0.52686 -1.730472,-1.21047 z m -0.952907,-6.78103 c 0,-0.0307 0.217817,-0.18686 0.484044,-0.34711 0.266217,-0.16026 0.851545,-0.57608 1.300722,-0.92407 0.541386,-0.41942 0.88947,-0.60519 1.032627,-0.55108 0.302809,0.11444 1.053003,0.63209 1.054057,0.72734 4.89e-4,0.0435 -0.312891,0.11592 -0.696389,0.16098 -0.719773,0.0846 -1.84504,0.41026 -2.691017,0.77882 -0.266227,0.11597 -0.484044,0.18578 -0.484044,0.15512 z M 34.10517,109.62792 c -0.677778,-0.16357 -1.149535,-0.51575 -1.672232,-1.24837 -0.799293,-1.1203 -1.034649,-1.77566 -1.03669,-2.88673 l -0.0019,-0.93585 -0.645392,-0.18344 c -0.354965,-0.10088 -1.342413,-0.36738 -2.194332,-0.59221 -0.85191,-0.22483 -2.507339,-0.69056 -3.678715,-1.03496 -2.390998,-0.70296 -4.13692,-1.1581 -4.442431,-1.1581 -0.118325,0 -0.204381,0.10869 -0.204381,0.25815 0,0.14198 -0.05664,0.25816 -0.125887,0.25816 -0.07945,0 -0.076,0.13079 0.0096,0.35495 0.07447,0.19524 0.154112,0.52923 0.177038,0.7422 0.05779,0.53693 0.269849,1.04015 0.718326,1.70468 0.210515,0.31193 0.38275,0.58359 0.38275,0.60371 0,0.0201 -0.79867,-0.0705 -1.774818,-0.20142 -2.063811,-0.27674 -7.418039,-0.83281 -9.196808,-0.95514 -1.211178,-0.0833 -1.2389507,-0.0928 -2.2610584,-0.77118 -1.9069415,-1.2657 -5.2825655,-2.85625 -6.5773344,-3.09915 -0.2503716,-0.047 -0.4544713,-0.12249 -0.4535541,-0.16784 9.268e-4,-0.0453 0.4496985,-0.372871 0.9972915,-0.727837 2.4790756,-1.607001 4.8825635,-3.927038 6.2004261,-5.985152 0.3814091,-0.595641 0.42372,-0.736834 0.3013092,-1.005504 -0.1107191,-0.242995 -0.096874,-0.419112 0.06222,-0.791444 0.4065566,-0.951478 0.7097633,-2.043047 0.778392,-2.802289 0.1209425,-1.338004 0.3221305,-1.616537 1.3072761,-1.809828 0.388547,-0.07629 0.419504,-0.05703 0.419504,0.260102 0,0.475936 0.398296,0.381868 0.543183,-0.128292 0.978496,-3.445344 2.066722,-8.083194 2.422955,-10.326243 0.313553,-1.97431 0.506528,-4.505006 0.53247,-6.982855 l 0.02041,-1.948808 0.705009,0.424537 c 0.387756,0.233487 0.863044,0.45924 1.056195,0.501659 l 0.351183,0.07715 0.240576,3.835089 c 0.141711,2.259073 0.244408,5.505977 0.249903,7.901038 0.0089,3.902129 -0.0027,4.104219 -0.28896,5.015426 -0.164058,0.522207 -0.273931,0.97382 -0.244162,1.003588 0.132029,0.13204 0.757703,-1.630215 1.004679,-2.829748 0.218444,-1.060948 0.27528,-1.837556 0.291765,-3.986594 l 0.02047,-2.668965 0.40014,1.637498 c 0.416346,1.703809 0.957897,3.370088 1.35256,4.161627 0.126471,0.253662 0.502014,1.21207 0.834533,2.129793 0.639498,1.764967 1.203895,3.009814 1.603168,3.53598 0.229203,0.302052 0.228455,0.279347 -0.01466,-0.440829 -0.264156,-0.782444 -0.655436,-2.535833 -0.860305,-3.855178 l -0.116562,-0.750605 0.512279,0.492449 0.512278,0.492439 -0.392219,-0.709931 c -0.367319,-0.664876 -0.797865,-2.022001 -0.797865,-2.514968 0,-0.136036 0.189593,0.01754 0.501018,0.405857 0.702954,0.876522 2.06696,2.109111 2.333982,2.109111 0.04926,0 -0.170194,-0.271076 -0.487648,-0.602388 -1.366689,-1.426351 -2.276449,-4.477346 -2.418398,-8.110373 -0.03604,-0.922909 -0.08923,-1.968436 -0.118182,-2.323402 -0.05223,-0.640542 -0.05099,-0.642986 0.165115,-0.324641 0.119753,0.176424 0.376578,0.49589 0.570713,0.709931 l 0.352981,0.389181 -0.320712,-0.677029 c -0.456212,-0.963085 -0.396704,-1.110383 0.131647,-0.32584 0.248793,0.369438 0.575946,0.73785 0.727,0.818691 0.222514,0.119092 0.198966,0.05252 -0.124056,-0.350729 -0.431389,-0.538529 -1.100549,-1.929879 -1.23994,-2.578195 -0.148026,-0.688434 0.625658,-3.333764 2.317277,-7.923072 0.490762,-1.33143 0.72954,-2.085812 0.676866,-2.138486 -0.0599,-0.0599 -1.691005,3.643618 -1.982419,4.501153 -0.450615,1.326034 -0.281302,0.398305 0.406327,-2.22642 0.395468,-1.509511 0.695037,-2.768552 0.66571,-2.79787 -0.146157,-0.146167 -1.90036,4.811821 -2.205086,6.232354 l -0.189065,0.882464 -0.0067,-0.709931 c -0.0096,-1.047243 0.302215,-3.450298 0.692507,-5.33724 0.188682,-0.912193 0.319371,-1.682197 0.290436,-1.711141 -0.02894,-0.02894 -0.350537,0.833575 -0.714656,1.916681 -1.10698,3.292831 -1.417135,6.050046 -0.980327,8.715005 0.178859,1.091243 0.185845,1.568416 0.05291,3.616399 -0.08424,1.297608 -0.118651,2.662611 -0.07648,3.033333 0.06249,0.549532 0.05099,0.614445 -0.06191,0.351352 -0.252656,-0.588587 -0.658413,-2.492867 -0.893711,-4.194309 l -0.232158,-1.678739 -0.01367,1.641313 c -0.01428,1.715282 0.249226,4.068921 0.586843,5.241667 0.108814,0.377977 0.163831,0.72124 0.122259,0.762816 -0.04157,0.0416 -0.112532,-0.109163 -0.157692,-0.334954 -0.04516,-0.225791 -0.135017,-0.443235 -0.199687,-0.48321 -0.06467,-0.03997 -0.08775,0.06287 -0.0513,0.22858 0.03646,0.16568 0.121518,0.622141 0.189031,1.01435 0.06751,0.39221 0.159853,0.885943 0.205197,1.097167 0.161232,0.751046 -0.158824,0.01284 -0.435834,-1.005303 -0.503337,-1.849938 -0.801719,-3.370194 -1.184036,-6.032632 -0.208983,-1.455361 -0.517549,-3.401208 -0.685703,-4.324117 l -0.305735,-1.678009 -0.09776,0.677661 c -0.05377,0.372706 -0.139619,0.677652 -0.190783,0.677652 -0.184799,0 -1.172579,-0.728562 -1.370087,-1.010545 -0.186426,-0.266159 -0.181265,-0.324095 0.06625,-0.74359 0.147632,-0.250221 0.268377,-0.52423 0.268321,-0.608915 -1.7e-4,-0.256403 -0.736358,-1.728613 -0.922878,-1.84553 -0.0958,-0.06009 -0.553474,-0.14447 -1.017052,-0.187589 -1.14928,-0.106872 -1.449075,-0.340292 -2.08478,-1.623198 -0.670732,-1.353598 -0.778256,-2.203763 -0.377955,-2.988421 0.349168,-0.684428 0.343773,-0.716659 -0.083,-0.495976 -0.824387,0.426309 -1.039361,1.160392 -0.747396,2.552135 0.360757,1.719671 1.153138,2.710665 2.357826,2.948848 1.261215,0.249359 1.545162,0.381533 2.090501,0.973158 0.289672,0.314252 0.526678,0.617838 0.526678,0.674614 0,0.200729 -0.404236,0.677 -0.574606,0.677 -0.323615,0 -2.198162,-1.426561 -3.016712,-2.29577 C 10.816799,63.589702 10.171803,62.62148 9.6353213,61.357043 9.2664847,60.487728 9.2062459,60.195778 9.2007169,59.250683 9.1955415,58.359718 9.2476022,58.05366 9.4779306,57.622175 10.144688,56.373092 10.952415,55.753422 12.398891,55.381282 l 0.924654,-0.237896 -0.580851,-0.266916 c -1.123043,-0.516084 -2.136122,-0.225102 -3.152623,0.905484 -1.0168525,1.13099 -1.4521233,2.903201 -1.1135771,4.53397 0.1664085,0.801584 0.9780707,2.56608 1.5170841,3.298035 0.797828,1.083423 2.052719,2.38934 2.904868,3.02301 l 0.907637,0.674921 -0.08681,1.100252 c -0.115489,1.463757 -0.537669,4.533654 -0.843603,6.134281 -0.135691,0.709931 -0.282905,1.552161 -0.327143,1.871637 -0.138499,1.000194 -0.585523,2.366836 -0.948739,2.900497 -0.35593,0.522945 -1.342244,1.35908 -1.6031967,1.35908 -0.079462,0 0.09632,-0.177085 0.3906217,-0.393513 0.294301,-0.216437 0.659899,-0.595459 0.81244,-0.842278 0.33034,-0.534494 0.636954,-1.620438 0.635092,-2.249316 l -0.0013,-0.451774 -0.267301,0.322686 c -0.19296,0.232951 -0.245857,0.256537 -0.190196,0.08482 0.04241,-0.130832 0.114091,-0.392209 0.159296,-0.580843 l 0.08219,-0.342976 -0.30868,0.282654 C 10.88938,76.891082 9.950441,77.091389 9.3486797,76.92523 8.7040536,76.747234 8.6570744,76.596822 9.2641961,76.654719 c 0.8307779,0.07926 1.6839689,-0.621335 1.9915959,-1.635331 0.0797,-0.2627 0.06082,-0.285653 -0.14663,-0.178341 -0.376616,0.194826 -1.1175688,0.277862 -1.3998027,0.156882 -0.2164996,-0.09277 -0.1907922,-0.112124 0.1593104,-0.119734 0.2650133,-0.0058 0.5643183,-0.140282 0.8195923,-0.368373 l 0.402125,-0.359298 -1.6727182,0.0048 -1.6727181,0.0048 -1.0830432,-0.552177 C 6.066233,73.304231 5.3064705,72.85606 4.9735463,72.611992 4.2049118,72.048486 3.4183588,70.894668 3.1245397,69.89961 2.9464723,69.29657 2.7652009,69.00462 2.302127,68.575081 1.9754267,68.272042 1.6886241,68.082603 1.6647885,68.15411 c -0.023836,0.0715 0.04794,1.481152 0.1595088,3.132548 0.1115663,1.651384 0.2907033,5.035513 0.3980825,7.520262 0.1073781,2.484749 0.2524101,5.476132 0.3222915,6.647517 0.2822818,4.731728 0.6463867,10.167463 0.7188902,10.732339 0.089947,0.70074 0.257322,0.609605 -2.43946636,1.328344 l -1.60408077,0.427517 -0.0812538,-0.984179 C -1.091128,94.174053 -1.2127471,85.64079 -1.1815691,74.482804 c 0.021296,-7.623676 -0.013686,-12.731443 -0.090177,-13.165957 -0.1225948,-0.69636 -0.1330491,-0.709548 -0.5471081,-0.690312 -1.0279846,0.04773 -0.9680285,-0.0531 -1.424545,2.397055 -1.4935332,8.015999 -2.4028017,17.077411 -2.9243442,29.142895 -0.1058715,2.449259 -0.1934231,5.266385 -0.1945597,6.260282 -0.00115,0.993898 -0.034896,1.929373 -0.075005,2.078813 l -0.072935,0.27172 -1.0547299,-0.29605 c -0.5801022,-0.16284 -1.4821875,-0.39286 -2.0046338,-0.511168 l -0.9499032,-0.215096 0.08643,-2.083962 c 0.337305,-8.132675 1.3216612,-18.615991 2.4681941,-26.286091 0.8904664,-5.957053 1.8622058,-10.414819 3.0935914,-14.19155 0.3876281,-1.188876 0.7047787,-2.1981 0.7047787,-2.242704 0,-0.07648 -0.6907026,-0.474968 -0.8232149,-0.474968 -0.093148,0 -0.8429783,1.966674 -1.2976806,3.403586 l -0.4030843,1.273801 -0.9000668,0.544912 c -1.1172162,0.676387 -1.8400887,0.950913 -2.8362366,1.077126 -1.046289,0.132557 -2.004643,-0.03287 -2.88305,-0.497519 -0.570422,-0.301765 -0.646015,-0.372994 -0.3439,-0.324057 1.226214,0.198649 1.623786,0.200537 2.509748,0.01198 1.2757179,-0.271575 1.3259595,-0.373032 0.129894,-0.262297 -1.121663,0.103834 -2.692048,-0.09593 -3.69037,-0.469448 -2.555259,-0.95604 -4.884771,-3.773003 -6.176281,-7.468662 -0.694121,-1.986301 -0.96517,-3.499953 -1.056673,-5.900937 -0.09,-2.36169 0.05112,-3.802531 0.559889,-5.716224 0.179303,-0.674431 0.335076,-1.235848 0.346166,-1.247588 0.01109,-0.01179 0.0249,0.946658 0.0307,2.129785 0.0065,1.339308 0.06709,2.272921 0.160381,2.473832 0.124784,0.268728 0.137415,0.182366 0.07551,-0.516313 -0.09708,-1.095767 0.155636,-4.258064 0.412604,-5.163117 0.207683,-0.731466 1.163689,-2.65594 1.60303,-3.22695 0.136557,-0.177478 0.01984,0.141988 -0.259364,0.709931 -0.628629,1.278708 -1.137726,3.020126 -1.217894,4.165912 -0.03341,0.477469 -0.03131,0.722917 0.0047,0.54543 0.190213,-0.938511 0.65223,-2.492091 0.973684,-3.274104 0.825498,-2.008209 2.491101,-4.51606 4.163136,-6.268304 1.302054,-1.364514 0.372741,-0.699639 -1.328167,0.950233 -1.323391,1.283682 -1.422598,1.299937 -0.635179,0.104054 2.027089,-3.07862 5.059777,-5.189311 9.0101412,-6.270878 2.235614,-0.612088 3.6389457,-0.781017 5.7738838,-0.695043 1.96808206,0.07925 3.3064289,0.365526 4.6516014,0.994975 l 0.8099237,0.378989 -0.4411513,0.577938 c -0.6432068,0.842648 -0.9059323,1.6195 -0.8234249,2.434783 l 0.068469,0.676583 -0.5217985,0.245834 c -0.71072177,0.334841 -1.46183093,1.13977 -1.93119016,2.069564 -0.30672314,0.607615 -0.40455551,0.997102 -0.45487096,1.810915 -0.0352598,0.570243 -0.002971,1.257115 0.0716985,1.52637 0.13296186,0.479338 0.12365667,0.500768 -0.44529168,1.0252 -1.0672265,0.983738 -1.472106,1.924013 -1.4774146,3.431071 -0.00383,1.086931 0.1562923,1.674349 0.6640876,2.436264 l 0.3605377,0.540964 -0.2604828,0.685281 c -0.2034796,0.535309 -0.2502479,0.911245 -0.2137144,1.717898 0.058693,1.295969 0.475631,2.253572 1.37105525,3.149003 0.61089691,0.610898 1.61354601,1.222248 1.76164783,1.074145 0.15687892,-0.156872 0.0663122,-0.80258 -0.11256693,-0.80258 -0.10104303,0 -0.35832677,-0.146934 -0.57174312,-0.326511 -0.54461054,-0.458253 -0.84888398,-1.43488 -0.84576053,-2.714623 0.0023,-0.939125 0.0491759,-1.133921 0.48155975,-2.000705 0.52136817,-1.045163 0.53380256,-0.981841 -0.28140775,-1.433089 -0.894279,-0.495017 -1.1071682,-1.851779 -0.48885994,-3.115555 0.25420045,-0.519562 0.65987634,-1.007583 1.38297789,-1.66369 0.56279255,-0.51065 1.02325865,-0.971682 1.02325865,-1.02451 0,-0.05281 -0.2310999,-0.259565 -0.51355615,-0.459403 C 0.38234951,35.363428 0.33643123,34.993444 0.75863972,33.86027 1.2564722,32.524115 1.9426463,31.709194 3.473449,30.636071 L 4.2077305,30.121325 3.634796,29.642412 C 3.2571162,29.32671 3.0618617,29.060738 3.0618617,28.861967 c 0,-0.532869 0.6787848,-1.588093 1.9363042,-3.01014 C 6.7169699,23.908144 6.6129798,24.06866 6.3818856,23.715966 6.1607742,23.378508 6.214515,23.227947 6.8435297,22.42262 7.3184419,21.81459 7.423494,21.830699 9.1484894,22.776069 l 1.2462016,0.682972 0.845635,-0.658722 c 0.465099,-0.362298 0.848191,-0.70509 0.851315,-0.761759 0.0032,-0.05667 -0.420565,-0.666564 -0.941534,-1.355319 -1.3514605,-1.786726 -1.3478559,-1.777771 -0.903716,-2.244909 1.153202,-1.212918 5.37672,-4.87781 5.623495,-4.879702 0.05161,-3.96e-4 0.581367,0.502398 1.177227,1.11732 l 1.083385,1.118038 0.436249,-0.265384 c 0.239936,-0.145961 0.681412,-0.305386 0.981059,-0.354279 l 0.544816,-0.08889 -0.456292,-0.906065 c -0.250958,-0.498336 -0.438039,-0.917693 -0.415734,-0.931904 0.758541,-0.483287 0.428232,-0.464017 7.953692,-0.464017 h 7.212299 l 0.774202,0.386873 c 0.85903,0.429263 1.062673,0.732505 0.975448,1.452489 -0.05971,0.493047 -0.140972,0.575885 -0.359556,0.366683 -0.430047,-0.411578 -2.654254,-0.661454 -3.962692,-0.445183 -0.588319,0.09724 -0.584638,0.05159 -0.23204,2.882949 0.136841,1.098742 0.234781,2.011717 0.217664,2.028835 -0.01716,0.01712 -0.353221,0.06898 -0.746897,0.115249 l -0.715777,0.08413 -0.07782,-0.65736 c -0.04284,-0.361547 -0.148208,-1.631847 -0.234187,-2.822889 -0.08597,-1.191042 -0.199617,-2.215262 -0.25254,-2.276045 -0.346321,-0.397806 -6.05802,1.295896 -6.05802,1.796398 0,0.09757 0.349234,1.291851 0.77608,2.653961 0.426837,1.362109 0.746533,2.5061 0.71043,2.542202 -0.03613,0.0361 -0.442315,0.224556 -0.902706,0.418789 l -0.837063,0.353153 -0.244902,-0.406428 c -0.134695,-0.223536 -0.724442,-1.335789 -1.310537,-2.471675 -0.586105,-1.135887 -1.083078,-2.085636 -1.104383,-2.110553 -0.09736,-0.113833 -3.353786,2.552377 -4.89304,4.0062 L 14.878725,21.653613 15.60623,22.543 c 0.400127,0.489163 1.140205,1.391558 1.644617,2.005324 l 0.917112,1.115938 -1.119802,1.102309 -1.119803,1.102308 -1.237841,-0.936755 c -0.680834,-0.515217 -1.533646,-1.148617 -1.89516,-1.407556 l -0.657298,-0.4708 -0.320353,0.351013 c -0.740895,0.811793 -4.4962554,6.215082 -4.4962554,6.4693 0,0.04343 0.159734,0.147705 0.3549646,0.231711 2.8835168,1.240747 3.7379938,1.630397 3.8792908,1.769012 0.137914,0.135298 0.02068,0.465949 -0.649379,1.831555 -0.449724,0.916545 -0.9116571,1.910251 -1.0265203,2.208239 -0.2054252,0.532914 -0.2160175,0.539795 -0.6472522,0.420722 -0.6308624,-0.174181 -4.1078363,-0.766506 -4.507064,-0.767799 -0.3219033,-9.59e-4 -0.3578293,0.07313 -0.7971117,1.644656 -0.2530102,0.905159 -0.581607,2.197554 -0.7302168,2.871986 -0.2890463,1.311772 -0.7890084,4.55215 -0.7140455,4.627902 0.024842,0.02511 0.5280291,0.124746 1.1181994,0.221431 0.5901695,0.09667 1.4718884,0.242362 1.9593741,0.32374 l 0.8863385,0.14795 -0.074564,0.534168 c -0.04101,0.293791 -0.1465253,1.246544 -0.2344832,2.117229 -0.1753474,1.735734 -0.1696257,1.756579 0.5677618,2.068349 0.4120734,0.174229 0.3820647,0.254669 0.6070557,-1.627367 0.4369545,-3.655109 1.7400473,-8.052466 3.4685772,-11.704892 4.629567,-9.782398 12.517488,-16.655431 20.22488,-17.62268 1.119334,-0.140472 3.292267,-0.06657 3.290781,0.111925 -3.93e-4,0.04688 -0.566726,0.09941 -1.258515,0.116757 -3.964809,0.09941 -8.286606,1.870193 -12.16489,4.984358 -2.573156,2.066184 -5.959521,6.035451 -7.723915,9.053458 -0.706871,1.209108 -1.969078,3.70555 -2.458054,4.861629 -1.057924,2.501245 -2.1886327,6.358952 -2.6565716,9.063588 -0.3166857,1.830406 -0.2211056,1.826908 0.2514105,-0.0096 0.5875417,-2.28309 1.8608841,-6.038545 2.7233711,-8.032004 2.209633,-5.107127 6.287114,-10.617011 10.323115,-13.94959 1.162232,-0.959673 3.565478,-2.527529 4.897378,-3.195004 1.411208,-0.707218 3.28318,-1.391684 4.940075,-1.806284 1.244081,-0.311304 1.607662,-0.345452 3.57908,-0.33616 2.379218,0.01121 3.290712,0.145201 5.61489,0.82537 3.128004,0.915408 3.998171,1.350571 5.520813,2.760913 0.70696,0.654823 0.971231,0.804041 2.087,1.178384 1.578959,0.529744 3.063283,1.268347 4.585906,2.28196 1.426763,0.949789 1.620907,1.125754 0.77862,0.705716 -0.868825,-0.433272 -1.707931,-0.778544 -1.54894,-0.637348 0.07102,0.06304 0.680891,0.495453 1.355323,0.960905 1.434315,0.989876 3.906144,3.181615 4.670178,4.140971 1.331381,1.671751 2.469117,5.029782 2.692934,7.948231 0.174842,2.279679 -0.136803,5.167678 -0.802475,7.436671 -0.642641,2.190508 -1.693947,4.276416 -2.479784,4.920178 l -0.402129,0.329424 0.516304,-0.07111 0.516323,-0.07111 -0.451775,0.193436 c -1.008877,0.431964 -1.003568,0.42467 -0.322695,0.443455 0.810717,0.02243 0.429453,0.233957 -0.451775,0.25072 -0.710075,0.01351 -0.488136,0.213198 0.383363,0.344941 0.529588,0.08003 0.550788,0.09693 0.258157,0.205435 -0.293618,0.108875 -0.71134,0.07619 -1.545068,-0.120865 -0.268824,-0.06354 -0.214952,0.02521 0.322695,0.531687 l 0.645392,0.607975 -0.567952,-0.3938 c -0.588012,-0.407726 -0.92517,-0.521767 -0.684227,-0.231446 0.07408,0.08932 0.221076,0.412921 0.326578,0.719151 0.187829,0.545162 0.186688,0.552129 -0.05444,0.333938 -0.235759,-0.213361 -0.24632,-0.209632 -0.248208,0.0876 -0.0019,0.191796 -0.03949,0.251371 -0.100221,0.155904 -0.05837,-0.09182 -0.168172,-0.11131 -0.270463,-0.04811 -0.09469,0.05856 -0.275417,0.07945 -0.401525,0.04648 -0.126117,-0.03297 -0.269533,0.0048 -0.318699,0.08472 -0.05818,0.09412 -0.175925,0.0346 -0.337264,-0.170463 -0.341222,-0.433794 -0.312508,-0.513208 0.151975,-0.420309 0.54104,0.108204 1.021701,-0.02224 0.933077,-0.253154 -0.03834,-0.09998 -0.17627,-0.181782 -0.306451,-0.181782 -0.21705,0 -0.221315,-0.02942 -0.05156,-0.354965 0.228005,-0.437072 0.229769,-1.005218 0.0048,-1.516672 l -0.170386,-0.387225 -0.0966,0.613122 c -0.0531,0.337206 -0.121842,0.613113 -0.152674,0.613113 -0.03086,0 -0.188989,-0.154525 -0.351439,-0.343379 -0.33734,-0.39218 -0.595804,-0.318306 -0.595804,0.17029 0,0.200902 0.170051,0.498038 0.438865,0.766852 0.241375,0.241375 0.366553,0.438864 0.278159,0.438864 -0.191193,0 -0.46155,-0.297748 -0.788856,-0.868768 -0.216831,-0.378284 -0.223645,-0.492085 -0.07351,-1.226235 0.229443,-1.121577 1.092652,-2.691871 1.898913,-3.4544 L 55.816847,50.7532 55.564958,50.355355 C 55.42642,50.136551 55.257252,49.95752 55.189042,49.95752 c -0.06824,0 -0.09277,-0.0506 -0.05453,-0.112383 0.145966,-0.23617 -3.538883,-5.239251 -6.242428,-8.475632 -0.891559,-1.067265 -1.779964,-2.141841 -1.974243,-2.387941 -1.055207,-1.336673 1.136279,2.267977 2.592302,4.2639 2.200467,3.016435 3.423155,4.568385 4.347367,5.518081 0.569975,0.585693 1.015798,1.064897 0.990716,1.064897 -0.02511,0 -0.462317,-0.241538 -0.971653,-0.536747 -3.747365,-2.171973 -8.525988,-5.715293 -11.090956,-8.223887 -1.50909,-1.475911 -1.645749,-1.5794 -1.645749,-1.246372 0,0.199751 0.1514,1.676294 0.336449,3.281196 0.25855,2.242426 0.318048,3.234848 0.257026,4.286518 l -0.07945,1.368501 1.388714,0.08846 c 1.573964,0.100278 3.974048,0.597903 5.14641,1.067034 1.330904,0.532578 1.653437,1.073609 2.179306,3.655636 0.75811,3.722314 2.205737,6.416446 4.870629,9.064546 0.764637,0.759817 1.390247,1.474243 1.390247,1.587613 0,0.419399 -0.402215,0.957976 -1.346726,1.803311 l -0.969496,0.867685 -0.616707,-0.08348 c -0.385846,-0.05223 -0.97911,-0.0067 -1.584795,0.121929 -1.074825,0.228091 -1.729476,0.171986 -2.489819,-0.21338 -0.702399,-0.356001 -0.994224,-0.904805 -0.994809,-1.870841 -4.22e-4,-0.701306 0.07121,-0.928075 0.611523,-1.936166 0.600701,-1.120724 0.612029,-1.163479 0.613122,-2.313616 9.58e-4,-1.277807 0.04706,-1.154958 -1.554567,-4.164263 -0.46065,-0.865511 -0.510046,-1.055736 -0.571442,-2.200669 -0.07025,-1.310354 -0.138672,-1.490247 -0.866458,-2.278557 -0.5399,-0.584801 -1.087371,-0.931362 -2.03446,-1.287842 -1.219162,-0.458895 -2.258393,-0.437915 -3.478973,0.07025 -1.216699,0.506509 -2.335535,1.178372 -2.335535,1.402476 0,0.09729 0.314617,0.354621 0.69914,0.571873 0.682463,0.385558 0.697328,0.388002 0.622543,0.102041 -0.0621,-0.237551 -0.03565,-0.27605 0.139861,-0.203575 0.558713,0.230689 0.674403,0.226481 0.581456,-0.02118 -0.08271,-0.220395 -0.06977,-0.224564 0.148151,-0.04782 0.187896,0.152367 0.250729,0.158099 0.294873,0.02683 0.04303,-0.128091 0.09807,-0.131906 0.237158,-0.01649 0.143503,0.119092 0.181072,0.103949 0.181072,-0.07293 0,-0.147193 0.06594,-0.196541 0.193618,-0.144883 0.106489,0.04313 0.287446,0.116178 0.402129,0.162412 0.170577,0.06881 0.191145,0.0277 0.113044,-0.225887 l -0.09546,-0.309949 0.356931,0.322696 0.35693,0.322695 -0.08606,-0.387235 -0.08606,-0.387235 0.258607,0.322696 c 0.22812,0.284657 0.258943,0.293714 0.261473,0.07677 0.0029,-0.241807 0.0077,-0.241807 0.280727,0 l 0.277862,0.245889 -0.08559,-0.451775 -0.08559,-0.451774 0.267003,0.434964 0.266993,0.434954 0.315202,-0.296109 0.315191,-0.29611 v 0.28065 c 0,0.339545 0.103815,0.355809 0.349522,0.05472 0.167185,-0.204821 0.176932,-0.191269 0.104486,0.145401 -0.08424,0.391567 -0.111291,0.386286 0.56709,0.110868 0.134502,-0.05463 0.162967,-7.28e-4 0.108894,0.206 -0.08817,0.337187 -0.05818,0.341845 0.391212,0.06057 l 0.350423,-0.219341 -0.31292,0.348419 c -0.335788,0.373865 -0.219916,0.470042 0.191442,0.158904 0.428839,-0.324354 0.509949,-0.215958 0.132893,0.177593 -0.323827,0.338011 -0.335846,0.380967 -0.120951,0.432118 0.208012,0.04955 0.19723,0.07629 -0.08405,0.208865 -0.296732,0.139832 -0.28205,0.146991 0.182481,0.08884 0.277843,-0.03479 0.4521,-0.01418 0.387235,0.04562 -0.221325,0.20417 -1.046073,0.405359 -1.292212,0.31522 -0.237675,-0.08702 -0.238068,-0.08137 -0.01236,0.176137 0.128283,0.146339 0.254572,0.499071 0.280641,0.783843 0.02607,0.284781 0.143205,0.70306 0.260313,0.929513 0.117098,0.226462 0.188634,0.436028 0.158962,0.465709 -0.02961,0.02961 -0.268882,-0.09191 -0.531562,-0.270156 -0.262681,-0.178263 -0.556624,-0.324114 -0.653203,-0.324114 -0.128705,0 -0.158099,-0.130506 -0.110064,-0.488655 0.0738,-0.550452 -0.237809,-1.447378 -0.50303,-1.447752 -0.119839,-1.62e-4 -0.167932,0.229185 -0.167932,0.80099 0,0.73968 -0.02722,0.816535 -0.354956,1.000587 -0.317319,0.178227 -0.392621,0.178706 -0.709931,0.0048 -0.293253,-0.160946 -0.782636,-0.894579 -0.968308,-1.451576 -0.04792,-0.143905 -1.154977,0.383267 -1.646756,0.784207 l -0.321459,0.262086 0.843782,0.396158 c 1.020235,0.479014 2.137393,0.704067 3.093089,0.623139 0.836288,-0.07083 0.98994,-0.03019 1.171912,0.309815 0.132433,0.247442 0.124728,0.248735 -0.269053,0.04505 -0.424508,-0.219523 -1.161016,-0.161818 -1.161016,0.09095 0,0.08741 -0.0622,0.083 -0.177248,-0.01246 -0.226059,-0.187609 -0.594107,-0.0506 -0.6074,0.226117 -0.0067,0.135174 -0.03393,0.153278 -0.07552,0.04993 -0.03594,-0.08923 -0.117826,-0.12973 -0.181944,-0.09009 -0.06412,0.03958 -0.08194,-0.01811 -0.03968,-0.128264 0.100269,-0.261281 -0.06335,-0.255243 -0.360084,0.01332 -0.219647,0.198783 -0.236055,0.198783 -0.236055,0 0,-0.282184 -0.339258,-0.273961 -0.505973,0.01227 -0.125292,0.215134 -0.131752,0.215134 -0.13549,0 -0.0048,-0.284168 -0.243493,-0.295419 -0.350518,-0.01658 -0.06853,0.178532 -0.11499,0.16429 -0.315767,-0.09681 -0.220405,-0.286593 -0.235893,-0.289669 -0.24242,-0.04802 -0.0067,0.242103 -0.01763,0.244116 -0.178446,0.0322 -0.187435,-0.246905 -0.594788,-0.307994 -0.594788,-0.08923 0,0.07514 -0.05559,0.102358 -0.123443,0.06038 -0.06786,-0.04198 -0.09076,-0.161559 -0.0507,-0.265776 0.08837,-0.230181 -0.225447,-0.254543 -0.445401,-0.0346 -0.104869,0.104869 -0.154898,0.109028 -0.154898,0.01284 0,-0.07811 -0.286909,-0.210849 -0.637581,-0.294969 -0.495564,-0.118881 -0.794798,-0.117779 -1.343314,0.0048 -0.780134,0.174584 -1.86511,0.719956 -2.0589,1.034918 -0.181407,0.294854 0.159843,0.93255 1.14132,2.132822 2.637088,3.224975 3.640666,4.867955 4.123339,6.750402 0.116342,0.453748 0.355934,1.90588 0.532434,3.22695 0.466802,3.49404 0.714762,4.515329 1.460652,6.016138 1.108313,2.230062 4.172075,5.77504 6.191364,7.163831 0.567723,0.390455 1.016353,0.766851 0.996946,0.836431 -0.01946,0.06958 -0.307266,0.266485 -0.63969,0.437551 -0.469332,0.241529 -0.875104,0.325207 -1.815666,0.374403 -2.146585,0.112277 -4.301584,-0.33645 -11.242384,-2.340969 -4.692624,-1.355237 -5.617766,-1.654299 -7.015872,-2.267929 -1.572623,-0.690226 -1.16391,-0.362997 0.594203,0.475744 2.380522,1.135666 3.405827,1.529888 6.857228,2.636504 2.011123,0.644826 2.099919,0.687293 1.831814,0.87609 -1.707241,1.202189 -6.466781,5.526449 -8.338159,7.575592 -1.43397,1.570179 -2.404147,2.931042 -2.712362,3.804611 -0.249396,0.706874 -0.58229,2.730783 -0.467616,2.843003 0.04744,0.04639 1.14639,0.434484 2.442148,0.862385 l 2.355929,0.777997 0.653423,-0.439718 c 0.359375,-0.241844 0.999266,-0.624058 1.421972,-0.84936 1.229954,-0.655561 1.922193,-1.613029 1.924799,-2.662275 9.59e-4,-0.423329 0.160515,-0.361464 0.7685,0.298132 0.616591,0.668921 1.03231,1.491685 1.03647,2.051328 0.0038,0.490437 -1.205227,4.236488 -1.583644,4.907368 -0.349839,0.62019 -1.024951,1.10097 -1.546027,1.10097 h -0.383689 l 0.487925,0.61312 c 0.268364,0.33722 0.821078,0.96164 1.228248,1.38759 0.906855,0.94869 1.137774,1.39125 1.2275,2.35244 0.09402,1.00758 0.0029,1.115 -0.793706,0.93723 -0.348966,-0.0778 -0.766812,-0.22789 -0.928553,-0.33339 -0.361176,-0.23561 -0.496158,-0.16047 -0.73392,0.40858 -0.101783,0.24361 -0.2316,0.43621 -0.288471,0.42796 -0.05683,-0.009 -0.219562,-0.043 -0.36155,-0.0772 z m -0.270569,-3.28282 c -0.264416,-0.52198 -0.559318,-1.18139 -0.655341,-1.46536 l -0.174593,-0.51631 0.07648,0.51631 c 0.07131,0.48188 1.076772,2.57188 1.18512,2.46352 0.02703,-0.027 -0.167213,-0.47619 -0.431628,-0.99816 z m -0.01208,-2.29283 c 0.16476,-0.16476 1.250684,-3.20198 1.250684,-3.49804 0,-0.2554 -0.15921,-0.32241 -1.000357,-0.42102 -0.378044,-0.0444 -0.419208,-0.0164 -0.416534,0.28343 0.0019,0.18293 -0.245228,1.07511 -0.548584,1.9826 -0.475581,1.42275 -0.524881,1.66766 -0.357927,1.77832 0.208588,0.13825 0.888599,0.0589 1.072718,-0.12529 z m -0.685483,-0.43846 c 0,-0.26921 0.763891,-2.712 0.886375,-2.8345 0.160093,-0.16007 0.533479,0.0368 0.533479,0.28126 0,0.12054 -0.192075,0.76778 -0.426837,1.43831 -0.348151,0.99442 -0.479012,1.22676 -0.709932,1.26041 -0.179941,0.0262 -0.283085,-0.0267 -0.283085,-0.14548 z M 28.761307,75.389755 c -0.27377,-0.423578 -0.771279,-1.396496 -1.105581,-2.162053 -0.609519,-1.395806 -2.500448,-4.876582 -2.596845,-4.780185 -0.02827,0.02827 0.173213,0.719908 0.44772,1.536999 0.794923,2.366147 1.737565,4.07748 3.017212,5.477609 0.350749,0.383775 0.659663,0.697768 0.686488,0.697768 0.02684,0 -0.175225,-0.34656 -0.448994,-0.770138 z M 6.7780426,73.122833 C 6.2222072,72.798939 5.2574469,72.044931 4.5926999,71.414883 3.7007843,70.569528 3.4649719,70.396631 3.6517024,70.724953 c 0.3580037,0.629454 1.4131898,1.761248 1.9531866,2.094975 0.4936328,0.305081 1.8247637,0.880873 2.0392496,0.88209 0.070989,4.03e-4 -0.3187502,-0.260237 -0.866096,-0.579185 z M 3.229401,67.429295 C 2.764853,67.060183 1.1449433,65.185959 0.4837989,64.252661 c -0.23879788,-0.3371 -0.45557153,-0.59151 -0.48172073,-0.565364 -0.07937535,0.07936 0.45323588,1.337947 0.78493616,1.854816 0.40478937,0.630757 1.14695547,1.328219 1.94516177,1.828 0.767701,0.48067 1.0735099,0.517071 0.4972249,0.05913 z M 51.86353,66.043638 c 0.28965,-0.36823 0.958503,-0.701545 1.702324,-0.848344 l 0.546359,-0.107831 -0.681955,-0.01418 c -0.491059,-0.01016 -0.858839,0.07552 -1.31391,0.306106 -0.711742,0.360668 -0.81388,0.472102 -0.701382,0.765269 0.104994,0.273626 0.164367,0.260247 0.448564,-0.101054 z M 19.594003,60.184632 c 1.134743,-1.208936 1.680432,-2.054127 4.186534,-6.484311 0.622477,-1.100386 1.577961,-2.784855 2.123315,-3.743263 1.528411,-2.686053 1.959906,-3.485107 1.882016,-3.485107 -0.07552,0 -1.796795,2.303591 -2.814729,3.766859 -0.894224,1.285436 -1.883023,3.045984 -3.235173,5.760205 -1.47844,2.96773 -1.964027,3.73989 -2.97237,4.726552 -0.598976,0.586095 -0.682547,0.707516 -0.355731,0.51686 0.234941,-0.137053 0.768703,-0.613065 1.186138,-1.057795 z m -16.6425125,0.1567 C 1.9823809,59.612836 0.79272644,58.213676 -0.25566843,56.569364 -1.1567396,55.156114 -1.2816097,54.824869 -0.6234316,55.5938 c 0.40573146,0.47401 2.202065,1.568962 2.3429069,1.428124 0.032154,-0.03211 -0.2626153,-0.300892 -0.6550546,-0.597184 -1.29504497,-0.977768 -2.6346262,-3.097891 -3.8197522,-6.045427 -0.2348828,-0.584178 -0.4496984,-1.039499 -0.4773696,-1.011829 -0.112266,0.112267 0.2651282,2.595253 0.5647074,3.715373 0.3933834,1.47085 1.2923537,3.59358 1.94269962,4.587277 0.77019008,1.17681 2.00260208,2.314018 3.05354248,2.817671 1.3122061,0.628859 1.5730982,0.567541 0.6232421,-0.146473 z M 44.467198,55.693714 c 0.319753,-0.223971 0.360706,-0.528428 0.137081,-1.019238 -0.121574,-0.266821 -0.24057,-0.328763 -0.631581,-0.328763 -0.310726,0 -0.508349,0.0692 -0.556624,0.195026 -0.125906,0.328121 0.06613,0.965299 0.35116,1.164926 0.334648,0.234389 0.348602,0.23415 0.699964,-0.01198 z m -22.732823,-1.00122 c 0.269006,-0.520694 8.302429,-12.582631 9.989284,-14.998615 0.69452,-0.994713 1.497944,-2.272587 1.78537,-2.839715 1.131728,-2.232947 3.702791,-5.266585 5.662208,-6.680909 0.301601,-0.217699 0.525045,-0.419144 0.496522,-0.447655 -0.142831,-0.142835 -2.172356,1.106537 -2.841698,1.749343 -0.64935,0.623608 -0.704756,0.656305 -0.368719,0.217581 0.455014,-0.594045 1.40124,-1.495727 1.483405,-1.413567 0.03057,0.03055 0.225571,-0.130396 0.433382,-0.357671 0.207802,-0.227275 0.290695,-0.350758 0.184206,-0.274404 -0.106488,0.07636 -0.286736,0.13706 -0.400547,0.134904 -0.342631,-0.0065 -2.161593,1.447039 -2.861749,2.286816 -1.138071,1.365033 -2.082995,2.955281 -2.345905,3.948038 -0.04696,0.177478 0.115996,-0.04275 0.36222,-0.489344 0.246215,-0.446608 0.66689,-1.08555 0.934823,-1.419852 0.558455,-0.696792 1.7296,-1.976243 1.7296,-1.889553 0,0.03198 -0.343301,0.56579 -0.762902,1.186244 -0.419591,0.620454 -1.070475,1.707116 -1.44642,2.414795 -0.442315,0.832646 -1.711449,2.654589 -3.596513,5.163117 -4.680385,6.228386 -5.991611,8.180031 -7.474096,11.124528 -0.72192,1.433855 -1.434966,2.975186 -1.434966,3.10182 0,0.157495 0.285826,-0.154591 0.472495,-0.515901 z M 0.0418473,52.377268 c -1.2283388,-1.232666 -2.3913332,-2.922339 -2.857179,-4.151095 -0.3011366,-0.7943 -0.3954046,-0.560247 -0.1948376,0.483766 0.2151779,1.120063 0.9353468,2.516597 1.682788,3.263216 0.52573852,0.52515 2.17469003,1.589059 2.4737813,1.596085 0.046876,9.58e-4 -0.45017565,-0.535281 -1.1045527,-1.191972 z M 56.28985,53.087199 c 0.170309,-0.266217 0.343935,-0.672822 0.385836,-0.903539 0.06814,-0.374939 0.04428,-0.419505 -0.224191,-0.419505 -0.383871,0 -1.058187,0.460189 -1.476657,1.007747 l -0.326252,0.426903 0.687735,-0.09124 c 0.659499,-0.0875 0.684763,-0.07984 0.615183,0.186219 -0.104419,0.399291 -0.0139,0.34403 0.338346,-0.206595 z m -73.60713,-4.701106 c -0.160869,-0.81088 -0.356998,-2.72483 -0.47498,-4.635177 -0.135964,-2.201501 0.279823,-5.509447 0.915364,-7.282502 l 0.09253,-0.258156 -0.190569,0.258156 c -0.104813,0.141979 -0.350982,0.662308 -0.547042,1.156291 -1.513513,3.813304 -1.566716,6.89955 -0.181474,10.527134 0.219588,0.575045 0.427014,1.017772 0.460946,0.983844 0.03393,-0.03393 2.81e-4,-0.371249 -0.07477,-0.74959 z m 73.184156,-0.962682 c -0.212766,-0.842786 -0.713726,-2.345522 -1.113229,-3.33941 -0.94938,-2.361852 -0.945,-2.344956 -0.326443,-1.258504 0.293033,0.514703 0.556164,0.935818 0.584724,0.935818 0.02856,0 -0.06728,-0.421115 -0.212977,-0.935818 -0.414713,-1.464994 -0.415729,-1.485053 -0.04898,-0.965184 0.188951,0.267817 0.547731,1.05098 0.797281,1.740373 0.437053,1.207392 0.694529,1.734737 0.519581,1.064177 -0.04629,-0.177487 -0.205262,-0.988578 -0.353221,-1.802439 -0.147968,-0.813851 -0.380037,-1.69734 -0.515719,-1.963299 -0.386929,-0.758446 -0.290273,-0.747367 0.221651,0.0254 0.43851,0.661963 1.455429,3.136936 1.478018,3.597202 0.0058,0.114214 0.03671,0.143464 0.0691,0.06498 0.09143,-0.221622 -0.545487,-3.011404 -0.898373,-3.934724 -0.17396,-0.455187 -0.358071,-0.943774 -0.409125,-1.085762 -0.137992,-0.383747 0.822563,1.035886 1.247512,1.843709 0.202377,0.384743 0.374047,0.621029 0.381475,0.525073 0.05396,-0.695957 -0.05041,-1.860126 -0.206317,-2.301953 -0.102664,-0.290972 -0.138854,-0.499483 -0.08041,-0.46338 0.156105,0.09648 0.489468,1.228803 0.857746,2.91357 l 0.324498,1.484402 -0.06671,-1.112597 c -0.03671,-0.611924 -0.183142,-1.678373 -0.325428,-2.369875 -0.142285,-0.691511 -0.258693,-1.3206 -0.258693,-1.397982 0,-0.514502 0.849121,1.460403 1.286049,2.991087 0.307093,1.075851 0.308991,0.896303 0.01351,-1.273045 -0.130545,-0.958408 -0.220348,-1.761381 -0.19955,-1.784392 0.03565,-0.03939 0.164673,0.373108 0.64058,2.047217 l 0.20048,0.705264 -0.05875,-1.369307 c -0.09364,-2.182678 -0.571834,-3.587359 -1.821368,-5.349536 -0.847607,-1.195374 -1.035311,-1.243208 -0.434044,-0.11061 0.620396,1.168625 0.579626,1.146687 -0.501487,-0.26984 -0.691769,-0.906385 -1.190237,-1.399131 -2.15521,-2.130456 -0.140033,-0.106121 -0.01534,0.09748 0.27698,0.452438 0.292381,0.354965 0.71825,1.019362 0.946389,1.476446 l 0.414799,0.831045 -1.079033,-1.004728 c -1.413805,-1.316459 -2.082122,-1.795499 -1.267274,-0.90835 0.506327,0.551248 1.124586,1.379993 1.472124,1.973295 0.05588,0.09536 -0.297298,-0.150365 -0.784773,-0.546043 -0.487485,-0.395679 -0.933777,-0.72056 -0.99178,-0.721959 -0.05798,-9.59e-4 0.0921,0.244326 0.333651,0.546043 1.392883,1.740191 1.362837,1.785121 -0.25901,0.387235 -0.980672,-0.845258 -1.345231,-1.055044 -0.785032,-0.451774 0.499465,0.537887 1.26483,1.739443 1.187592,1.864419 -0.03757,0.06076 -0.301323,-0.07974 -0.586153,-0.312249 -1.242125,-1.013957 -2.084843,-1.531996 -1.385474,-0.851708 0.400375,0.389458 1.253588,1.549352 1.597359,2.171522 0.05885,0.106489 -0.06172,0.04169 -0.267942,-0.143915 -0.721681,-0.649695 -1.112491,-0.95903 -2.141994,-1.695442 -1.170311,-0.83716 -1.620734,-1.004067 -0.659844,-0.244529 0.756164,0.597712 1.5494,1.492222 1.93399,2.180886 0.274939,0.492306 0.263629,0.486613 -0.481053,-0.242055 -0.740514,-0.724595 -1.524712,-1.291666 -1.212013,-0.876435 0.07562,0.100364 0.312547,0.414827 0.526588,0.698794 0.214041,0.283976 0.584054,0.864819 0.822256,1.290784 l 0.433086,0.77446 -0.58853,-0.516303 c -0.942402,-0.826761 -1.653512,-1.377098 -1.653512,-1.279686 0,0.04965 0.406595,0.687543 0.903548,1.41761 0.89915,1.320954 1.164917,1.843814 0.612471,1.204987 -0.159383,-0.184302 -0.661397,-0.678026 -1.115596,-1.097157 l -0.825813,-0.762068 0.798728,1.083049 c 1.202534,1.630616 1.18855,1.737096 -0.06853,0.522361 -1.556205,-1.503732 -1.776976,-1.638753 -0.936575,-0.572793 1.226129,1.555219 2.852931,4.005926 3.836966,5.780246 1.007364,1.816384 1.061198,1.828565 0.410218,0.09277 -0.226318,-0.603443 -0.461742,-1.261792 -0.523156,-1.46301 -0.06143,-0.201208 -0.264646,-0.626885 -0.451631,-0.945949 -0.552714,-0.94314 -0.252464,-0.796417 0.384197,0.187743 0.886125,1.369824 1.701289,3.135192 2.292636,4.96509 0.292689,0.905695 0.554593,1.62428 0.582013,1.59686 0.02741,-0.02741 -0.124229,-0.739402 -0.337005,-1.582187 z M 52.147305,44.568055 C 51.90476,43.924982 51.127597,42.802667 50.374777,42.00832 l -0.846418,-0.893102 1.300982,1.839357 c 0.715537,1.011657 1.323973,1.839367 1.352073,1.839367 0.02808,0 0.01275,-0.101649 -0.03412,-0.225887 z m 0.466188,-0.893869 c -0.240589,-0.406825 -0.864963,-1.178065 -1.387506,-1.713863 -0.776272,-0.795968 -0.875783,-0.867925 -0.543963,-0.393331 0.707698,1.012213 2.259513,2.956267 2.315283,2.900497 0.02942,-0.02952 -0.143234,-0.386468 -0.383814,-0.793303 z M 32.201608,40.167342 c 2.853497,-3.605972 5.81723,-6.479374 8.329744,-8.075851 0.765701,-0.486529 1.367361,-0.909408 1.337046,-0.939731 -0.07581,-0.0758 -2.447735,1.041475 -2.910407,1.370918 -0.20623,0.146857 -0.418565,0.267012 -0.471862,0.267012 -0.196637,0 0.411646,-0.550879 1.517389,-1.374177 0.624997,-0.465359 1.136375,-0.870041 1.136375,-0.899292 0,-0.09411 -1.852995,0.874846 -2.429286,1.270297 -0.30671,0.210464 -0.581035,0.359275 -0.609624,0.330691 -0.02856,-0.02858 0.558704,-0.506194 1.305074,-1.061353 0.746379,-0.55516 1.331688,-1.034741 1.300703,-1.065736 -0.118929,-0.118923 -3.143971,1.69379 -3.673443,2.201251 -0.306308,0.293574 -0.768021,0.882286 -1.026014,1.308241 -0.44934,0.741855 -1.282954,1.962522 -1.807059,2.646106 -0.136085,0.177478 -0.497414,0.787371 -0.802955,1.355314 -0.633748,1.177998 -1.356972,2.398588 -2.014411,3.399742 -0.661551,1.007402 -0.308722,0.691338 0.81873,-0.733432 z m 1.964219,-3.110896 c 0.07389,-0.13803 0.198113,-0.290388 0.276089,-0.338587 0.07801,-0.04821 0.04198,0.06479 -0.08012,0.250969 -0.258368,0.394318 -0.392152,0.454122 -0.196014,0.0876 z m 6.619101,-4.442365 c 0.408205,-0.265969 0.7422,-0.509051 0.7422,-0.540178 0,-0.03112 -0.246866,0.04097 -0.548583,0.160219 -1.922796,0.759939 -3.988462,2.672087 -5.897227,5.458965 l -0.772621,1.128056 2.86702,-2.861739 c 1.576849,-1.573955 3.201006,-3.079346 3.609211,-3.345323 z m -8.085705,1.643334 c 1.113575,-1.885894 1.719854,-2.72793 2.702835,-3.753826 0.315249,-0.329004 0.555858,-0.615494 0.534715,-0.636646 -0.02118,-0.02115 -0.309556,0.185558 -0.640877,0.459354 -1.397407,1.154743 -2.67717,3.049268 -3.826004,5.663862 -0.595085,1.354346 -0.680652,1.701816 -0.18135,0.736403 0.183593,-0.354956 0.818394,-1.466077 1.410681,-2.469147 z m 8.445203,-0.866151 c 0.392957,-0.295372 0.857641,-0.640916 1.032627,-0.767886 0.174987,-0.12697 -0.09702,-0.02128 -0.604467,0.234944 -1.366345,0.689804 -2.738584,1.908008 -3.91894,3.47904 -0.105856,0.140905 0.475505,-0.343494 1.291915,-1.076436 0.81642,-0.732943 1.805909,-1.574291 2.198865,-1.869662 z m -7.42216,0.0116 c 0.615452,-0.934304 2.410415,-2.784258 3.383727,-3.487383 0.894654,-0.646307 0.51177,-0.562429 -0.509135,0.111533 -1.109338,0.732351 -2.198051,1.824859 -2.775876,2.785586 -0.691118,1.149074 -0.767436,1.605439 -0.09872,0.590264 z m 6.836774,71.947346 c -0.212977,-0.13121 -0.761589,-0.66827 -1.219142,-1.19349 -0.457544,-0.52523 -0.980308,-1.08355 -1.161696,-1.24073 -0.181388,-0.15719 -0.295468,-0.28787 -0.253499,-0.29042 0.0985,-0.006 3.193559,1.86309 4.117014,2.48624 l 0.708206,0.47791 -0.901824,-4.9e-4 c -0.650721,-3.4e-4 -1.009644,-0.0669 -1.289059,-0.23902 z m 5.852384,-14.152681 c 0.491472,-1.025947 0.8185,-2.645809 0.888885,-4.402868 l 0.06776,-1.692224 1.120426,-0.07255 c 0.96439,-0.06249 1.857674,-0.279223 2.753172,-0.66802 0.194614,-0.08453 0.169264,0.06594 -0.176098,1.045096 -0.221891,0.629089 -0.577412,1.492309 -0.790064,1.918264 -0.424776,0.850855 -1.57478,2.618361 -2.099585,3.22695 -0.319878,0.370961 -0.316658,0.351975 0.07667,-0.451775 0.483143,-0.987198 1.019871,-2.514134 1.017475,-2.894593 -9.58e-4,-0.152684 -0.256307,0.203844 -0.593983,0.829349 -0.682991,1.265156 -1.542347,2.576584 -2.114565,3.22695 l -0.39748,0.451774 z m 2.954638,-14.962742 c -1.055783,-0.434158 -1.553791,-0.857554 -2.287356,-1.944657 -0.481955,-0.714225 -0.75535,-0.992508 -1.096141,-1.11574 -0.36568,-0.132232 -0.454026,-0.231552 -0.454026,-0.510448 0,-0.33297 0.03096,-0.348324 0.80674,-0.400001 0.631025,-0.04207 1.158178,-0.212087 2.42021,-0.78071 2.222635,-1.001432 2.29555,-1.026456 2.416396,-0.829148 0.155358,0.253633 0.867225,0.496848 1.514955,0.517597 0.322131,0.01035 0.585846,0.06048 0.586038,0.111522 1.92e-4,0.05099 0.0875,0.05933 0.193963,0.0184 0.106488,-0.04092 0.193617,-0.01179 0.193617,0.0645 0,0.07639 0.07543,0.10991 0.16754,0.07456 0.0921,-0.03536 0.303892,0.08089 0.47054,0.258234 0.166647,0.177382 0.352636,0.291835 0.413303,0.254342 0.218939,-0.135308 0.102569,0.172647 -0.288116,0.76248 -0.347385,0.524441 -0.431255,0.583958 -0.654545,0.464464 -0.180986,-0.09687 -0.372639,-0.09643 -0.653442,0.0019 -0.218546,0.07619 -0.519371,0.132327 -0.668519,0.124775 -0.234254,-0.01188 -0.22352,-0.03259 0.07888,-0.152262 0.876263,-0.346791 0.265518,-0.818212 -0.863669,-0.66665 -0.893706,0.119964 -1.132829,0.261147 -0.712624,0.420761 0.177478,0.06738 0.438864,0.151888 0.580852,0.187723 0.141979,0.03584 -0.235576,0.07274 -0.839009,0.08214 -0.603442,0.0096 -1.184295,0.07322 -1.290784,0.142074 -0.131608,0.08511 -0.141432,0.125762 -0.03067,0.127104 0.08961,9.58e-4 0.367128,0.321153 0.616678,0.711254 0.697999,1.091147 1.275402,1.367638 2.864001,1.371443 l 0.932991,0.0029 -0.217175,0.331446 c -0.33298,0.508187 -0.915807,0.683834 -2.257779,0.680403 -0.960718,-0.0029 -1.345691,-0.06373 -1.942866,-0.309326 z m -60.050954,-14.91886 c -0.196487,-0.08444 -0.11817,-0.113102 0.327844,-0.120012 0.7968992,-0.01236 2.0107958,-0.343024 2.6639335,-0.725706 0.2966129,-0.173798 0.5664009,-0.315987 0.5995273,-0.315987 0.072829,0 -0.1208754,0.896705 -0.2137652,0.989594 -0.2706822,0.270683 -2.8430996,0.401765 -3.3775396,0.172111 z M 39.494173,22.20127 c -0.289027,-0.116177 -0.366007,-0.423281 -0.208799,-0.832971 0.06287,-0.163881 0.151792,-0.08919 0.387235,0.325313 0.407726,0.717801 0.399877,0.740111 -0.178436,0.507658 z m -3.444662,-1.611762 -0.37906,-0.303973 0.218958,-1.912106 c 0.120424,-1.051659 0.218392,-2.129927 0.217712,-2.396149 -4.89e-4,-0.266224 0.05913,-0.484043 0.132979,-0.484043 0.174143,0 1.122803,0.480784 1.56946,0.79541 0.501046,0.352939 1.652861,2.12564 1.649822,2.539162 -0.0029,0.336859 -0.01198,0.332827 -0.450768,-0.190326 -0.246531,-0.293963 -0.753634,-0.727696 -1.126905,-0.96385 -0.373262,-0.236155 -0.715921,-0.482576 -0.761446,-0.547602 -0.10092,-0.144146 -0.171191,0.19654 -0.43528,2.110467 -0.112651,0.816419 -0.216427,1.523228 -0.230612,1.57069 -0.01418,0.04746 -0.196378,-0.0505 -0.40486,-0.21768 z"
       id="path1" /><text
       xml:space="preserve"
       style="font-style:normal;font-variant:normal;font-weight:normal;font-stretch:normal;font-size:42.8068px;font-family:Fetamont;-inkscape-font-specification:'Fetamont, Normal';font-variant-ligatures:normal;font-variant-caps:normal;font-variant-numeric:normal;font-variant-east-asian:normal;fill:#000000;fill-opacity:1;stroke:none;stroke-width:6.74122;stroke-linecap:round"
       x="109.51942"
       y="62.138851"
       id="text2"><tspan
         sodipodi:role="line"
         id="tspan2"
         style="font-style:normal;font-variant:normal;font-weight:normal;font-stretch:normal;font-size:42.8068px;font-family:Fetamont;-inkscape-font-specification:'Fetamont, Normal';font-variant-ligatures:normal;font-variant-caps:normal;font-variant-numeric:normal;font-variant-east-asian:normal;fill:#000000;fill-opacity:1;stroke:none;stroke-width:6.74123"
         x="109.51942"
         y="62.138851">MAID</tspan></text><text
       xml:space="preserve"
       style="font-style:normal;font-variant:normal;font-weight:normal;font-stretch:normal;font-size:9.87778px;font-family:Fetamont;-inkscape-font-specification:'Fetamont, Normal';font-variant-ligatures:normal;font-variant-caps:normal;font-variant-numeric:normal;font-variant-east-asian:normal;fill:#000000;fill-opacity:1;stroke:none;stroke-width:0.499999;stroke-linecap:round"
       x="101.56329"
       y="124.95459"
       id="text4"><tspan
         sodipodi:role="line"
         id="tspan5"
         style="font-style:normal;font-variant:normal;font-weight:normal;font-stretch:normal;font-size:9.87778px;font-family:Fetamont;-inkscape-font-specification:'Fetamont, Normal';font-variant-ligatures:normal;font-variant-caps:normal;font-variant-numeric:normal;font-variant-east-asian:normal"
         x="101.56329"
         y="124.95459">        Mobile Artificial</tspan><tspan
         sodipodi:role="line"
         id="tspan6"
         style="font-style:normal;font-variant:normal;font-weight:normal;font-stretch:normal;font-size:9.87778px;font-family:Fetamont;-inkscape-font-specification:'Fetamont, Normal';font-variant-ligatures:normal;font-variant-caps:normal;font-variant-numeric:normal;font-variant-east-asian:normal"
         x="101.56329"
         y="137.3018">Intelligence Distribution</tspan></text></g></svg>
