<?xml version="1.0" encoding="UTF-8" standalone="no"?>
<svg
   width="95"
   height="88"
   fill="none"
   version="1.1"
   id="svg9"
   sodipodi:docname="huggingface.svg"
   inkscape:version="1.3.2 (091e20e, 2023-11-25)"
   xmlns:inkscape="http://www.inkscape.org/namespaces/inkscape"
   xmlns:sodipodi="http://sodipodi.sourceforge.net/DTD/sodipodi-0.dtd"
   xmlns="http://www.w3.org/2000/svg"
   xmlns:svg="http://www.w3.org/2000/svg">
  <defs
     id="defs9">
    <inkscape:path-effect
       effect="mirror_symmetry"
       start_point="47.5,0"
       end_point="47.5,88"
       center_point="47.5,44"
       id="path-effect9"
       is_visible="true"
       lpeversion="1.2"
       lpesatellites=""
       mode="vertical"
       discard_orig_path="false"
       fuse_paths="false"
       oposite_fuse="false"
       split_items="false"
       split_open="false"
       link_styles="false" />
  </defs>
  <sodipodi:namedview
     id="namedview9"
     pagecolor="#505050"
     bordercolor="#eeeeee"
     borderopacity="1"
     inkscape:showpageshadow="0"
     inkscape:pageopacity="0"
     inkscape:pagecheckerboard="0"
     inkscape:deskcolor="#505050"
     inkscape:zoom="9.0842105"
     inkscape:cx="47.5"
     inkscape:cy="44.032445"
     inkscape:window-width="3440"
     inkscape:window-height="1387"
     inkscape:window-x="0"
     inkscape:window-y="1105"
     inkscape:window-maximized="1"
     inkscape:current-layer="svg9" />
  <path
     id="path2"
     style="fill:#ffffff;fill-opacity:1;stroke:none;stroke-opacity:1"
     d="M 46.369141 3.0078125 A 38.75 38.75 0 0 0 44.314453 3.1074219 A 38.75 38.75 0 0 0 8.4609375 41.75 A 38.75 38.75 0 0 0 10.400391 53.339844 C 10.326842 53.336468 10.253377 53.331164 10.179688 53.330078 C 8.629689 53.330078 7.2302334 53.920235 6.2402344 54.990234 C 4.4245402 56.875712 4.0959879 59.74371 5.4394531 61.990234 C 4.5544402 62.712736 3.9275188 63.702189 3.6503906 64.810547 C 3.4103909 65.710546 3.16922 67.610783 4.4492188 69.550781 C 3.473953 71.050203 3.3351873 72.944107 4.0800781 74.570312 C 5.1000771 76.89031 7.6496143 78.709924 12.599609 80.669922 C 15.669606 81.889921 18.489766 82.669688 18.509766 82.679688 C 22.072135 83.666647 25.743664 84.203762 29.439453 84.279297 C 34.745568 84.279297 38.678063 82.799658 41.164062 79.892578 A 38.75 38.75 0 0 0 53.703125 79.830078 C 56.186012 82.778403 60.136554 84.279297 65.480469 84.279297 A 44.33 44.33 0 0 0 76.410156 82.679688 C 76.430156 82.669688 79.250081 81.889921 82.330078 80.669922 C 87.270073 78.709924 89.819845 76.89031 90.839844 74.570312 A 5.22 5.22 0 0 0 90.470703 69.550781 C 91.750702 67.610783 91.509531 65.710546 91.269531 64.810547 A 5.3 5.3 0 0 0 89.490234 61.990234 A 5.8 5.8 0 0 0 88.689453 54.990234 C 87.699454 53.920235 86.299998 53.330078 84.75 53.330078 A 7.1 7.1 0 0 0 84.001953 53.392578 A 38.75 38.75 0 0 0 85.960938 41.75 A 38.75 38.75 0 0 0 46.369141 3.0078125 z M 47.210938 7 A 34.75 34.75 0 0 1 81.960938 41.75 A 34.75 34.75 0 0 1 80.980469 49.361328 C 80.021898 48.478958 78.774337 48 77.400391 48 A 7.4 7.4 0 0 0 73.439453 49.269531 C 72.549454 49.839531 71.570312 50.829845 70.570312 52.089844 A 5.7 5.7 0 0 0 65.970703 49.630859 C 62.560707 49.630859 60.510468 52.590003 59.730469 55.25 C 59.350469 56.149999 57.5007 60.239534 54.720703 63.019531 C 50.548239 67.1837 49.467295 71.481091 51.431641 76.072266 A 34.75 34.75 0 0 1 43.458984 76.134766 C 45.460284 71.519928 44.390718 67.202697 40.199219 63.019531 C 37.429222 60.239534 35.579218 56.149999 35.199219 55.25 C 34.41922 52.590003 32.359215 49.630859 28.949219 49.630859 C 27.108612 49.659959 25.395749 50.575159 24.349609 52.089844 C 23.34961 50.829845 22.370233 49.839531 21.490234 49.269531 C 20.315927 48.474549 18.937215 48.034193 17.519531 48 C 15.942137 48 14.538494 48.629361 13.533203 49.779297 A 34.75 34.75 0 0 1 12.460938 41.75 A 34.75 34.75 0 0 1 47.210938 7 z M 17.519531 52 C 18.029531 52 18.659844 52.220391 19.339844 52.650391 C 21.479842 54.010389 25.589611 61.080081 27.099609 63.830078 C 27.599609 64.750077 28.470235 65.140625 29.240234 65.140625 C 30.790233 65.140625 31.990622 63.610154 29.390625 61.660156 C 25.470629 58.730159 26.840939 53.94039 28.710938 53.650391 C 28.790937 53.630391 28.879219 53.630859 28.949219 53.630859 C 30.649217 53.630859 31.400391 56.560547 31.400391 56.560547 C 31.400391 56.560547 33.600863 62.079379 37.380859 65.859375 C 41.150856 69.629371 41.349607 72.659457 38.599609 76.689453 C 36.719611 79.43945 33.129449 80.269531 29.439453 80.269531 C 25.629457 80.269531 21.709529 79.370546 19.519531 78.810547 C 19.409531 78.780547 6.0697673 75.010544 7.7597656 71.810547 C 8.0397653 71.270547 8.50961 71.050781 9.0996094 71.050781 C 11.479607 71.050781 15.799924 74.589844 17.669922 74.589844 C 18.079921 74.589844 18.37 74.420234 18.5 73.990234 C 19.289999 71.140237 6.4395323 69.940308 7.5195312 65.820312 C 7.7195311 65.090313 8.2309382 64.800781 8.9609375 64.800781 C 12.100934 64.800781 19.160626 70.330078 20.640625 70.330078 C 20.750625 70.330078 20.840859 70.300469 20.880859 70.230469 C 21.620859 69.03047 21.210464 68.189294 15.980469 65.029297 C 10.770474 61.8693 7.0996896 59.969216 9.1796875 57.699219 C 9.4196873 57.439219 9.7596879 57.320312 10.179688 57.320312 C 13.349684 57.320312 20.839844 64.140625 20.839844 64.140625 C 20.839844 64.140625 22.859845 66.240234 24.089844 66.240234 C 24.369843 66.240234 24.609531 66.139375 24.769531 65.859375 C 25.62953 64.399376 16.710937 57.639607 16.210938 54.849609 C 15.870938 52.949611 16.449532 52 17.519531 52 z M 77.400391 52 C 78.47039 52 79.050937 52.949611 78.710938 54.849609 C 78.210938 57.639607 69.290157 64.399376 70.160156 65.859375 A 0.74 0.74 0 0 0 70.839844 66.240234 C 72.059843 66.240234 74.080078 64.140625 74.080078 64.140625 C 74.080078 64.140625 81.570003 57.320312 84.75 57.320312 C 85.16 57.320312 85.500469 57.439219 85.730469 57.699219 C 87.830467 59.969216 84.159682 61.8693 78.929688 65.029297 C 73.709693 68.189294 73.310782 69.03047 74.050781 70.230469 C 74.090781 70.300469 74.179297 70.330078 74.279297 70.330078 C 75.759295 70.330078 82.820941 64.800781 85.960938 64.800781 C 86.700937 64.800781 87.210391 65.090313 87.400391 65.820312 C 88.48039 69.940308 75.629688 71.140237 76.429688 73.990234 C 76.549687 74.420234 76.839766 74.589844 77.259766 74.589844 C 79.119764 74.589844 83.450081 71.050781 85.830078 71.050781 C 86.420078 71.050781 86.879922 71.270547 87.169922 71.810547 C 88.85992 75.010544 75.510156 78.780547 75.410156 78.810547 C 73.210158 79.370546 69.300465 80.269531 65.480469 80.269531 C 61.800472 80.269531 58.200076 79.43945 56.330078 76.689453 C 53.570081 72.659457 53.770785 69.629371 57.550781 65.859375 C 61.320777 62.079379 63.519531 56.560547 63.519531 56.560547 C 63.519531 56.560547 64.270705 53.630859 65.970703 53.630859 A 1.54 1.54 0 0 1 66.210938 53.650391 C 68.080936 53.94039 69.449059 58.730159 65.539062 61.660156 C 62.929065 63.610154 64.139689 65.140625 65.679688 65.140625 A 2.43 2.43 0 0 0 67.820312 63.830078 C 69.330311 61.080081 73.45008 54.010389 75.580078 52.650391 C 76.270077 52.220391 76.890391 52 77.400391 52 z "
     inkscape:label="path4" />
  <path
     d="m 70.46,40.585168 c 4.33333,0 4.33333,-6.5 0,-6.5 -4.33333,0 -4.33333,6.5 0,6.5 z m -46.5,0 c 4.33333,0 4.33333,-6.5 0,-6.5 -4.33333,0 -4.33333,6.5 0,6.5 z"
     style="fill:#ffffff;fill-opacity:1"
     id="path1-3"
     inkscape:label="path3" />
  <path
     id="path11"
     style="color:#000000;display:inline;fill:#ffffff;-inkscape-stroke:none;fill-opacity:1"
     d="M 35.003906 40.802734 C 34.526141 40.793834 33.97284 41.000475 33.664062 41.433594 C 33.355286 41.866711 33.269531 42.391484 33.269531 43.029297 C 33.269531 45.443143 34.087743 48.86328 36.214844 51.761719 C 38.340466 54.658142 41.839053 56.985044 46.960938 56.988281 L 46.960938 56.990234 L 46.964844 56.990234 L 46.970703 56.990234 L 46.970703 56.988281 C 52.087803 56.985081 55.584137 54.657956 57.710938 51.761719 C 59.83922 48.863464 60.660156 45.443662 60.660156 43.029297 C 60.660156 42.366022 60.568575 41.820847 60.228516 41.382812 C 59.888455 40.944779 59.305915 40.775467 58.8125 40.808594 C 57.825671 40.874844 56.822721 41.419945 55.560547 42.041016 L 55.560547 42.042969 C 53.224031 43.196185 50.194999 44.710938 46.970703 44.710938 C 43.598983 44.710938 40.450484 43.070266 38.082031 41.904297 C 36.897805 41.321312 35.959438 40.820459 35.003906 40.802734 z M 44.804688 49.496094 C 45.180896 49.475623 45.567579 50.123438 45.970703 50.789062 C 46.370703 51.469062 46.790938 52.160156 47.210938 52.160156 C 47.660937 52.160156 48.109063 51.480546 48.539062 50.810547 C 48.989062 50.110548 49.429375 49.430547 49.859375 49.560547 A 8.61 8.61 0 0 1 54.484375 53.140625 C 52.657001 54.607815 50.219284 55.588994 46.964844 55.589844 C 43.903054 55.588673 41.566956 54.719008 39.779297 53.396484 A 8.7 8.7 0 0 1 44.730469 49.509766 C 44.755469 49.502266 44.779607 49.497458 44.804688 49.496094 z "
     inkscape:label="path2" />
  <path
     fill="#3A3B45"
     d="m 58.5,32.3 c 1.28,0.44 1.78,3.06 3.07,2.38 a 5,5 0 1 0 -6.76,-2.07 c 0.61,1.15 2.55,-0.72 3.7,-0.32 z m -23.55,0 c -1.28,0.44 -1.79,3.06 -3.07,2.38 a 5,5 0 1 1 6.76,-2.07 c -0.61,1.15 -2.56,-0.72 -3.7,-0.32 z"
     id="path3"
     style="fill:#ffffff;fill-opacity:1"
     inkscape:label="path1" />
</svg>
