<?xml version="1.0" encoding="UTF-8" standalone="no"?>
<!-- Created with Inkscape (http://www.inkscape.org/) -->

<svg
   width="210mm"
   height="210mm"
   viewBox="0 0 210 210"
   version="1.1"
   id="svg5"
   xml:space="preserve"
   inkscape:version="1.2.2 (b0a8486541, 2022-12-01)"
   sodipodi:docname="maid.svg"
   inkscape:export-filename="maid.png"
   inkscape:export-xdpi="120.95238"
   inkscape:export-ydpi="120.95238"
   xmlns:inkscape="http://www.inkscape.org/namespaces/inkscape"
   xmlns:sodipodi="http://sodipodi.sourceforge.net/DTD/sodipodi-0.dtd"
   xmlns="http://www.w3.org/2000/svg"
   xmlns:svg="http://www.w3.org/2000/svg"><sodipodi:namedview
     id="namedview7"
     pagecolor="#ffffff"
     bordercolor="#000000"
     borderopacity="0.25"
     inkscape:showpageshadow="2"
     inkscape:pageopacity="0.0"
     inkscape:pagecheckerboard="0"
     inkscape:deskcolor="#d1d1d1"
     inkscape:document-units="mm"
     showgrid="false"
     inkscape:zoom="0.89085297"
     inkscape:cx="320.47937"
     inkscape:cy="397.37197"
     inkscape:window-width="3440"
     inkscape:window-height="1371"
     inkscape:window-x="0"
     inkscape:window-y="1112"
     inkscape:window-maximized="1"
     inkscape:current-layer="layer1" /><defs
     id="defs2" /><g
     inkscape:label="Layer 1"
     inkscape:groupmode="layer"
     id="layer1"
     transform="translate(0,-43.5)"><rect
       style="fill:#93c5cb;fill-opacity:1;stroke-width:0.264583"
       id="rect1682"
       width="210"
       height="210"
       x="0"
       y="43.5" /><path
       style="fill:#100028;fill-opacity:1;stroke-width:0.264583"
       d="m 43.881252,228.5391 c 0,-3.59505 2.916412,-17.37345 5.823961,-27.51492 6.111803,-21.31784 13.863327,-37.03286 25.567884,-51.83493 0.924589,-1.16927 1.680763,-2.24819 1.68039,-2.39759 -2.64e-4,-0.1494 -0.43207,-0.98602 -0.959321,-1.85914 -1.597204,-2.64496 -3.732037,-7.055 -4.448735,-9.19001 l -0.67668,-2.01579 v -11.53636 -11.53635 l -1.454475,-1.35371 c -0.839696,-0.78152 -1.762329,-1.98058 -2.182813,-2.83679 -0.649361,-1.32226 -0.728337,-1.77404 -0.728337,-4.16644 0,-2.662208 0.0092,-2.700798 1.167974,-4.894788 0.642385,-1.21629 1.594885,-3.03785 2.116667,-4.04793 l 0.948692,-1.836497 0.02302,-4.116626 c 0.01267,-2.264145 0.154392,-4.507804 0.314952,-4.985908 0.843931,-2.512981 2.970109,-4.545851 5.45919,-5.219615 1.634056,-0.442318 1.764001,-0.439164 4.302889,0.104423 1.439871,0.308284 3.163954,0.560517 3.831294,0.560517 h 1.213347 l 0.319019,1.653646 c 0.413861,2.14526 1.774224,5.470723 3.057625,7.474478 2.293043,3.580099 5.828485,6.472742 7.919606,6.479702 2.365068,0.008 5.203179,-2.955499 5.825689,-6.082827 0.10138,-0.509322 0.2379,-1.118348 0.30338,-1.353388 0.0881,-0.316262 -0.11663,-0.46559 -0.78761,-0.574474 -3.956886,-0.642115 -8.564634,-5.875149 -9.060214,-10.289722 l -0.168609,-1.50196 1.156203,-0.311336 c 2.31857,-0.624324 3.43364,-1.988169 3.560969,-4.355419 l 0.07128,-1.325158 6.900351,-0.07054 6.90034,-0.07054 v 1.203518 c 0,2.348317 1.33827,4.091275 3.5735,4.654113 1.12993,0.28452 1.14519,0.303453 1.01164,1.254911 -0.22205,1.581943 -0.62262,2.704298 -1.73995,4.875035 -1.51301,2.939481 -3.77302,4.791654 -7.03826,5.768128 l -1.15036,0.344016 0.17058,1.074843 c 0.55713,3.510492 3.48498,6.75177 6.09889,6.75177 3.50179,0 8.96753,-6.623227 10.5714,-12.810116 0.22484,-0.867318 0.40881,-1.849583 0.40881,-2.182813 0,-0.554265 0.11831,-0.606028 1.38906,-0.607724 0.76398,-0.0011 2.37887,-0.239143 3.58863,-0.529166 1.20976,-0.290021 2.52801,-0.527312 2.92943,-0.527312 2.25289,0 5.28042,2.113004 6.59344,4.601739 0.67099,1.271828 0.71482,1.571736 0.74452,5.094281 0.0174,2.058594 0.1152,4.201719 0.2174,4.7625 0.1022,0.560782 0.95294,2.475261 1.89051,4.254391 0.93758,1.77913 1.89302,3.96995 2.12322,4.868488 0.81289,3.17296 -0.13738,6.36699 -2.59512,8.72278 l -1.40298,1.34479 -0.1363,11.81666 -0.1363,11.81666 -0.75721,1.98437 c -0.91709,2.40337 -2.95288,6.50879 -4.39984,8.87285 l -1.06321,1.73708 0.73289,1.02544 c 0.40309,0.564 2.10928,2.84997 3.79153,5.07994 8.52533,11.30103 14.53253,22.91818 19.95098,38.58261 2.4018,6.94346 5.45455,18.28648 7.12075,26.45833 0.75039,3.68027 1.75192,9.8154 1.75192,10.73184 v 0.90983 H 105 43.881252 Z m 89.429168,-40.3328 c 0,-13.04759 -2.28655,-22.99677 -7.745,-33.69992 -1.81153,-3.55212 -4.80058,-8.35203 -7.0214,-11.27518 l -1.09155,-1.43674 -12.47721,0.0594 -12.477222,0.0594 -0.503105,0.58354 c -1.178727,1.36717 -4.223533,5.80496 -5.63653,8.21522 -6.667037,11.37248 -10.17725,25.16441 -10.19562,40.05946 l -0.0024,1.91822 h 28.575007 28.575 z m -6.64977,-49.42535 c 0.2776,-0.5457 0.7675,-1.82562 1.08866,-2.84427 0.73166,-2.32066 0.77703,-6.90413 0.14013,-14.1552 -0.72083,-8.20663 -0.81988,-8.77958 -1.63155,-9.43762 -0.90833,-0.7364 -1.90668,-1.27054 -2.06983,-1.10739 -0.07,0.07 -0.53574,2.08434 -1.03493,4.47626 -0.92918,4.45225 -1.44997,7.98767 -1.55654,10.56666 l -0.0601,1.45521 -16.57377,0.0311 -16.573766,0.0311 -0.177782,-2.54464 c -0.259598,-3.71573 -1.989248,-13.25671 -2.511909,-13.85602 -0.296166,-0.33961 -2.577562,1.28959 -2.739366,1.95624 -0.556884,2.29445 -1.504201,13.01024 -1.506278,17.0386 -0.0016,3.16763 0.377931,5.08547 1.502344,7.591 0.610587,1.36057 1.197829,1.89799 1.450665,1.3276 0.04851,-0.10943 0.772803,-0.77874 1.609548,-1.48735 0.836745,-0.70861 1.521354,-1.5023 1.521354,-1.76377 0,-1.39215 -1.062657,-1.31241 17.49081,-1.31241 h 17.16961 v 0.7681 c 0,0.57225 0.32045,1.07274 1.25677,1.96288 1.17674,1.11871 2.50274,2.26735 2.64045,2.2873 0.0334,0.005 0.2879,-0.43768 0.56551,-0.98339 z"
       id="path1628" /></g></svg>
