<?xml version="1.0" encoding="UTF-8" standalone="no"?>
<svg
   id="svg1"
   width="1024"
   height="500"
   version="1.1"
   viewBox="0 0 270.933 132.292"
   xml:space="preserve"
   sodipodi:docname="feature.svg"
   inkscape:version="1.3.2 (091e20e, 2023-11-25)"
   inkscape:export-filename="feature.png"
   inkscape:export-xdpi="96"
   inkscape:export-ydpi="96"
   xmlns:inkscape="http://www.inkscape.org/namespaces/inkscape"
   xmlns:sodipodi="http://sodipodi.sourceforge.net/DTD/sodipodi-0.dtd"
   xmlns:xlink="http://www.w3.org/1999/xlink"
   xmlns="http://www.w3.org/2000/svg"
   xmlns:svg="http://www.w3.org/2000/svg"><sodipodi:namedview
     id="namedview1"
     pagecolor="#505050"
     bordercolor="#eeeeee"
     borderopacity="1"
     inkscape:showpageshadow="0"
     inkscape:pageopacity="0"
     inkscape:pagecheckerboard="0"
     inkscape:deskcolor="#505050"
     inkscape:zoom="1.2374369"
     inkscape:cx="299.00515"
     inkscape:cy="165.66502"
     inkscape:window-width="3440"
     inkscape:window-height="1387"
     inkscape:window-x="0"
     inkscape:window-y="1105"
     inkscape:window-maximized="1"
     inkscape:current-layer="svg1" /><defs
     id="defs1"><inkscape:path-effect
       effect="tiling"
       id="path-effect1"
       is_visible="true"
       lpeversion="1"
       unit="px"
       seed="1;1"
       lpesatellites=""
       num_rows="8"
       num_cols="9"
       gapx="5"
       gapy="4"
       offset="0"
       offset_type="false"
       scale="0"
       rotate="0"
       mirrorrowsx="false"
       mirrorrowsy="false"
       mirrorcolsx="false"
       mirrorcolsy="false"
       mirrortrans="false"
       shrink_interp="false"
       split_items="false"
       link_styles="false"
       interpolate_scalex="false"
       interpolate_scaley="true"
       interpolate_rotatex="false"
       interpolate_rotatey="true"
       random_scale="false"
       random_rotate="false"
       random_gap_y="false"
       random_gap_x="false"
       transformorigin="matrix(0.50000125,0,0,0.50000125,-26.629786,-48.92813)" /><linearGradient
       id="linearGradient3"><stop
         style="stop-color:#000;stop-opacity:1"
         id="stop3"
         offset="0" /><stop
         style="stop-color:#000;stop-opacity:0"
         id="stop4"
         offset="1" /></linearGradient><linearGradient
       id="linearGradient1"><stop
         style="stop-color:#00e4d2;stop-opacity:1"
         id="stop2"
         offset=".044" /><stop
         style="stop-color:#ff34e0;stop-opacity:1"
         id="stop1"
         offset=".731" /></linearGradient><linearGradient
       id="linearGradient2"
       x1="536.153"
       x2="-30.467"
       y1="13.033"
       y2="283.967"
       gradientTransform="matrix(0.47773166,0,0,0.48739081,-16.041139,6.5516447)"
       gradientUnits="userSpaceOnUse"
       xlink:href="#linearGradient1" /><linearGradient
       id="linearGradient4"
       x1="104.065"
       x2="209.348"
       y1="49.391"
       y2="49.391"
       gradientUnits="userSpaceOnUse"
       xlink:href="#linearGradient3" /><linearGradient
       id="linearGradient1-0"><stop
         style="stop-color:#f700ed;stop-opacity:1"
         id="stop2-4"
         offset="0" /><stop
         style="stop-color:#00fbff;stop-opacity:1"
         id="stop1-8"
         offset="1" /></linearGradient><linearGradient
       id="linearGradient4-5"
       x1="-146.138"
       x2="-22.473"
       y1="13.904"
       y2="137.569"
       gradientTransform="matrix(1.1547905,0,0,1.1547905,202.35525,49.671041)"
       gradientUnits="userSpaceOnUse"
       xlink:href="#linearGradient1-0" /></defs><g
     id="layer1"
     transform="translate(30.716659,-12.783341)"><rect
       style="fill:#ffffff;stroke:#fff;stroke-width:0.241268;stroke-linecap:round;fill-opacity:1"
       id="rect1"
       width="270.692"
       height="132.05"
       x="-30.596"
       y="12.904" /></g><g
     inkscape:label="Layer 1"
     id="layer1-5"
     transform="matrix(0.42708721,0.2599957,-0.2599957,0.42708721,74.06294,-181.04229)"
     inkscape:path-effect="#path-effect1"><path
       style="fill:none;stroke:#b4ceda;stroke-width:8.16302;stroke-linecap:round;stroke-linejoin:round;stroke-dasharray:none;stroke-opacity:1"
       d="m 57.340998,159.77455 17.272038,-57.35729 15.004538,57.35729 21.941976,-41.37715 v 41.37715 m 14.56198,0 17.27204,-57.35729 15.00454,57.35729 21.94197,-41.37715 v 41.37715 m 14.56199,0 17.27203,-57.35729 15.00454,57.35729 21.94198,-41.37715 v 41.37715 m 14.56198,0 17.27204,-57.35729 15.00454,57.35729 21.94197,-41.37715 v 41.37715 m 14.56198,0 17.27204,-57.35729 15.00454,57.35729 21.94198,-41.37715 v 41.37715 m 14.56198,0 17.27204,-57.35729 15.00454,57.35729 21.94197,-41.37715 v 41.37715 m 14.56198,0 17.27204,-57.35729 15.00454,57.35729 21.94198,-41.37715 v 41.37715 m 14.56198,0 17.27204,-57.35729 15.00453,57.35729 21.94198,-41.37715 v 41.37715 m 14.56198,0 17.27204,-57.35729 15.00454,57.35729 21.94197,-41.37715 v 41.37715 m -604.462822,69.91846 17.272038,-57.35729 15.004538,57.35729 21.941976,-41.37715 v 41.37715 m 14.56198,0 17.27204,-57.35729 15.00454,57.35729 21.94197,-41.37715 v 41.37715 m 14.56199,0 17.27203,-57.35729 15.00454,57.35729 21.94198,-41.37715 v 41.37715 m 14.56198,0 17.27204,-57.35729 15.00454,57.35729 21.94197,-41.37715 v 41.37715 m 14.56198,0 17.27204,-57.35729 15.00454,57.35729 21.94198,-41.37715 v 41.37715 m 14.56198,0 17.27204,-57.35729 15.00454,57.35729 21.94197,-41.37715 v 41.37715 m 14.56198,0 17.27204,-57.35729 15.00454,57.35729 21.94198,-41.37715 v 41.37715 m 14.56198,0 17.27204,-57.35729 15.00453,57.35729 21.94198,-41.37715 v 41.37715 m 14.56198,0 17.27204,-57.35729 15.00454,57.35729 21.94197,-41.37715 v 41.37715 m -604.462822,69.91847 17.272038,-57.35729 15.004538,57.35729 21.941976,-41.37715 v 41.37715 m 14.56198,0 17.27204,-57.35729 15.00454,57.35729 21.94197,-41.37715 v 41.37715 m 14.56199,0 17.27203,-57.35729 15.00454,57.35729 21.94198,-41.37715 v 41.37715 m 14.56198,0 17.27204,-57.35729 15.00454,57.35729 21.94197,-41.37715 v 41.37715 m 14.56198,0 17.27204,-57.35729 15.00454,57.35729 21.94198,-41.37715 v 41.37715 m 14.56198,0 17.27204,-57.35729 15.00454,57.35729 21.94197,-41.37715 v 41.37715 m 14.56198,0 17.27204,-57.35729 15.00454,57.35729 21.94198,-41.37715 v 41.37715 m 14.56198,0 17.27204,-57.35729 15.00453,57.35729 21.94198,-41.37715 v 41.37715 m 14.56198,0 17.27204,-57.35729 15.00454,57.35729 21.94197,-41.37715 v 41.37715 m -604.462822,69.91846 17.272038,-57.35729 15.004538,57.35729 21.941976,-41.37715 v 41.37715 m 14.56198,0 17.27204,-57.35729 15.00454,57.35729 21.94197,-41.37715 v 41.37715 m 14.56199,0 17.27203,-57.35729 15.00454,57.35729 21.94198,-41.37715 v 41.37715 m 14.56198,0 17.27204,-57.35729 15.00454,57.35729 21.94197,-41.37715 v 41.37715 m 14.56198,0 17.27204,-57.35729 15.00454,57.35729 21.94198,-41.37715 v 41.37715 m 14.56198,0 17.27204,-57.35729 15.00454,57.35729 21.94197,-41.37715 v 41.37715 m 14.56198,0 17.27204,-57.35729 15.00454,57.35729 21.94198,-41.37715 v 41.37715 m 14.56198,0 17.27204,-57.35729 15.00453,57.35729 21.94198,-41.37715 v 41.37715 m 14.56198,0 17.27204,-57.35729 15.00454,57.35729 21.94197,-41.37715 v 41.37715 m -604.462822,69.91847 17.272038,-57.35729 15.004538,57.35729 21.941976,-41.37715 v 41.37715 m 14.56198,0 17.27204,-57.35729 15.00454,57.35729 21.94197,-41.37715 v 41.37715 m 14.56199,0 17.27203,-57.35729 15.00454,57.35729 21.94198,-41.37715 v 41.37715 m 14.56198,0 17.27204,-57.35729 15.00454,57.35729 21.94197,-41.37715 v 41.37715 m 14.56198,0 17.27204,-57.35729 15.00454,57.35729 21.94198,-41.37715 v 41.37715 m 14.56198,0 17.27204,-57.35729 15.00454,57.35729 21.94197,-41.37715 v 41.37715 m 14.56198,0 17.27204,-57.35729 15.00454,57.35729 21.94198,-41.37715 v 41.37715 m 14.56198,0 17.27204,-57.35729 15.00453,57.35729 21.94198,-41.37715 v 41.37715 m 14.56198,0 17.27204,-57.35729 15.00454,57.35729 21.94197,-41.37715 v 41.37715 m -604.462822,69.91846 17.272038,-57.35729 15.004538,57.35729 21.941976,-41.37715 v 41.37715 m 14.56198,0 17.27204,-57.35729 15.00454,57.35729 21.94197,-41.37715 v 41.37715 m 14.56199,0 17.27203,-57.35729 15.00454,57.35729 21.94198,-41.37715 v 41.37715 m 14.56198,0 17.27204,-57.35729 15.00454,57.35729 21.94197,-41.37715 v 41.37715 m 14.56198,0 17.27204,-57.35729 15.00454,57.35729 21.94198,-41.37715 v 41.37715 m 14.56198,0 17.27204,-57.35729 15.00454,57.35729 21.94197,-41.37715 v 41.37715 m 14.56198,0 17.27204,-57.35729 15.00454,57.35729 21.94198,-41.37715 v 41.37715 m 14.56198,0 17.27204,-57.35729 15.00453,57.35729 21.94198,-41.37715 v 41.37715 m 14.56198,0 17.27204,-57.35729 15.00454,57.35729 21.94197,-41.37715 v 41.37715 m -604.462822,69.91847 17.272038,-57.35729 15.004538,57.35729 21.941976,-41.37715 v 41.37715 m 14.56198,0 17.27204,-57.35729 15.00454,57.35729 21.94197,-41.37715 v 41.37715 m 14.56199,0 17.27203,-57.35729 15.00454,57.35729 21.94198,-41.37715 v 41.37715 m 14.56198,0 17.27204,-57.35729 15.00454,57.35729 21.94197,-41.37715 v 41.37715 m 14.56198,0 17.27204,-57.35729 15.00454,57.35729 21.94198,-41.37715 v 41.37715 m 14.56198,0 17.27204,-57.35729 15.00454,57.35729 21.94197,-41.37715 v 41.37715 m 14.56198,0 17.27204,-57.35729 15.00454,57.35729 21.94198,-41.37715 v 41.37715 m 14.56198,0 17.27204,-57.35729 15.00453,57.35729 21.94198,-41.37715 v 41.37715 m 14.56198,0 17.27204,-57.35729 15.00454,57.35729 21.94197,-41.37715 v 41.37715 M 57.340998,649.2038 74.613036,591.84651 89.617574,649.2038 111.55955,607.82665 v 41.37715 m 14.56198,0 17.27204,-57.35729 15.00454,57.35729 21.94197,-41.37715 v 41.37715 m 14.56199,0 17.27203,-57.35729 15.00454,57.35729 21.94198,-41.37715 v 41.37715 m 14.56198,0 17.27204,-57.35729 15.00454,57.35729 21.94197,-41.37715 v 41.37715 m 14.56198,0 17.27204,-57.35729 15.00454,57.35729 21.94198,-41.37715 v 41.37715 m 14.56198,0 17.27204,-57.35729 15.00454,57.35729 21.94197,-41.37715 v 41.37715 m 14.56198,0 17.27204,-57.35729 15.00454,57.35729 21.94198,-41.37715 v 41.37715 m 14.56198,0 17.27204,-57.35729 15.00453,57.35729 21.94198,-41.37715 v 41.37715 m 14.56198,0 17.27204,-57.35729 15.00454,57.35729 21.94197,-41.37715 v 41.37715"
       id="path1"
       sodipodi:nodetypes="ccccc"
       inkscape:original-d="m 57.340998,159.77455 17.272038,-57.35729 15.004538,57.35729 21.941976,-41.37715 v 41.37715" /><path
       style="fill:#58beff;fill-opacity:1;stroke:none;stroke-width:5.89066;stroke-linecap:round;stroke-linejoin:round;stroke-dasharray:none;stroke-opacity:1"
       id="path2"
       d="m 116.12156,102.41806 c 0,2.51952 -2.04248,4.56199 -4.562,4.56199 -2.51952,0 -4.56199,-2.04247 -4.56199,-4.56199 0,-2.51952 2.04247,-4.561994 4.56199,-4.561994 2.51952,0 4.562,2.042474 4.562,4.561994 z m 68.78053,0 c 0,2.51952 -2.04247,4.56199 -4.56199,4.56199 -2.51952,0 -4.562,-2.04247 -4.562,-4.56199 0,-2.51952 2.04248,-4.561994 4.562,-4.561994 2.51952,0 4.56199,2.042474 4.56199,4.561994 z m 68.78054,0 c 0,2.51952 -2.04248,4.56199 -4.562,4.56199 -2.51952,0 -4.56199,-2.04247 -4.56199,-4.56199 0,-2.51952 2.04247,-4.561994 4.56199,-4.561994 2.51952,0 4.562,2.042474 4.562,4.561994 z m 68.78053,0 c 0,2.51952 -2.04247,4.56199 -4.56199,4.56199 -2.51952,0 -4.562,-2.04247 -4.562,-4.56199 0,-2.51952 2.04248,-4.561994 4.562,-4.561994 2.51952,0 4.56199,2.042474 4.56199,4.561994 z m 68.78053,0 c 0,2.51952 -2.04247,4.56199 -4.56199,4.56199 -2.51952,0 -4.56199,-2.04247 -4.56199,-4.56199 0,-2.51952 2.04247,-4.561994 4.56199,-4.561994 2.51952,0 4.56199,2.042474 4.56199,4.561994 z m 68.78054,0 c 0,2.51952 -2.04248,4.56199 -4.562,4.56199 -2.51952,0 -4.56199,-2.04247 -4.56199,-4.56199 0,-2.51952 2.04247,-4.561994 4.56199,-4.561994 2.51952,0 4.562,2.042474 4.562,4.561994 z m 68.78053,0 c 0,2.51952 -2.04247,4.56199 -4.56199,4.56199 -2.51952,0 -4.562,-2.04247 -4.562,-4.56199 0,-2.51952 2.04248,-4.561994 4.562,-4.561994 2.51952,0 4.56199,2.042474 4.56199,4.561994 z m 68.78054,0 c 0,2.51952 -2.04248,4.56199 -4.562,4.56199 -2.51952,0 -4.56199,-2.04247 -4.56199,-4.56199 0,-2.51952 2.04247,-4.561994 4.56199,-4.561994 2.51952,0 4.562,2.042474 4.562,4.561994 z m 68.78053,0 c 0,2.51952 -2.04247,4.56199 -4.56199,4.56199 -2.51952,0 -4.562,-2.04247 -4.562,-4.56199 0,-2.51952 2.04248,-4.561994 4.562,-4.561994 2.51952,0 4.56199,2.042474 4.56199,4.561994 z m -550.24427,69.91846 c 0,2.51952 -2.04248,4.562 -4.562,4.562 -2.51952,0 -4.56199,-2.04248 -4.56199,-4.562 0,-2.51952 2.04247,-4.56199 4.56199,-4.56199 2.51952,0 4.562,2.04247 4.562,4.56199 z m 68.78053,0 c 0,2.51952 -2.04247,4.562 -4.56199,4.562 -2.51952,0 -4.562,-2.04248 -4.562,-4.562 0,-2.51952 2.04248,-4.56199 4.562,-4.56199 2.51952,0 4.56199,2.04247 4.56199,4.56199 z m 68.78054,0 c 0,2.51952 -2.04248,4.562 -4.562,4.562 -2.51952,0 -4.56199,-2.04248 -4.56199,-4.562 0,-2.51952 2.04247,-4.56199 4.56199,-4.56199 2.51952,0 4.562,2.04247 4.562,4.56199 z m 68.78053,0 c 0,2.51952 -2.04247,4.562 -4.56199,4.562 -2.51952,0 -4.562,-2.04248 -4.562,-4.562 0,-2.51952 2.04248,-4.56199 4.562,-4.56199 2.51952,0 4.56199,2.04247 4.56199,4.56199 z m 68.78053,0 c 0,2.51952 -2.04247,4.562 -4.56199,4.562 -2.51952,0 -4.56199,-2.04248 -4.56199,-4.562 0,-2.51952 2.04247,-4.56199 4.56199,-4.56199 2.51952,0 4.56199,2.04247 4.56199,4.56199 z m 68.78054,0 c 0,2.51952 -2.04248,4.562 -4.562,4.562 -2.51952,0 -4.56199,-2.04248 -4.56199,-4.562 0,-2.51952 2.04247,-4.56199 4.56199,-4.56199 2.51952,0 4.562,2.04247 4.562,4.56199 z m 68.78053,0 c 0,2.51952 -2.04247,4.562 -4.56199,4.562 -2.51952,0 -4.562,-2.04248 -4.562,-4.562 0,-2.51952 2.04248,-4.56199 4.562,-4.56199 2.51952,0 4.56199,2.04247 4.56199,4.56199 z m 68.78054,0 c 0,2.51952 -2.04248,4.562 -4.562,4.562 -2.51952,0 -4.56199,-2.04248 -4.56199,-4.562 0,-2.51952 2.04247,-4.56199 4.56199,-4.56199 2.51952,0 4.562,2.04247 4.562,4.56199 z m 68.78053,0 c 0,2.51952 -2.04247,4.562 -4.56199,4.562 -2.51952,0 -4.562,-2.04248 -4.562,-4.562 0,-2.51952 2.04248,-4.56199 4.562,-4.56199 2.51952,0 4.56199,2.04247 4.56199,4.56199 z m -550.24427,69.91847 c 0,2.51952 -2.04248,4.56199 -4.562,4.56199 -2.51952,0 -4.56199,-2.04247 -4.56199,-4.56199 0,-2.51952 2.04247,-4.562 4.56199,-4.562 2.51952,0 4.562,2.04248 4.562,4.562 z m 68.78053,0 c 0,2.51952 -2.04247,4.56199 -4.56199,4.56199 -2.51952,0 -4.562,-2.04247 -4.562,-4.56199 0,-2.51952 2.04248,-4.562 4.562,-4.562 2.51952,0 4.56199,2.04248 4.56199,4.562 z m 68.78054,0 c 0,2.51952 -2.04248,4.56199 -4.562,4.56199 -2.51952,0 -4.56199,-2.04247 -4.56199,-4.56199 0,-2.51952 2.04247,-4.562 4.56199,-4.562 2.51952,0 4.562,2.04248 4.562,4.562 z m 68.78053,0 c 0,2.51952 -2.04247,4.56199 -4.56199,4.56199 -2.51952,0 -4.562,-2.04247 -4.562,-4.56199 0,-2.51952 2.04248,-4.562 4.562,-4.562 2.51952,0 4.56199,2.04248 4.56199,4.562 z m 68.78053,0 c 0,2.51952 -2.04247,4.56199 -4.56199,4.56199 -2.51952,0 -4.56199,-2.04247 -4.56199,-4.56199 0,-2.51952 2.04247,-4.562 4.56199,-4.562 2.51952,0 4.56199,2.04248 4.56199,4.562 z m 68.78054,0 c 0,2.51952 -2.04248,4.56199 -4.562,4.56199 -2.51952,0 -4.56199,-2.04247 -4.56199,-4.56199 0,-2.51952 2.04247,-4.562 4.56199,-4.562 2.51952,0 4.562,2.04248 4.562,4.562 z m 68.78053,0 c 0,2.51952 -2.04247,4.56199 -4.56199,4.56199 -2.51952,0 -4.562,-2.04247 -4.562,-4.56199 0,-2.51952 2.04248,-4.562 4.562,-4.562 2.51952,0 4.56199,2.04248 4.56199,4.562 z m 68.78054,0 c 0,2.51952 -2.04248,4.56199 -4.562,4.56199 -2.51952,0 -4.56199,-2.04247 -4.56199,-4.56199 0,-2.51952 2.04247,-4.562 4.56199,-4.562 2.51952,0 4.562,2.04248 4.562,4.562 z m 68.78053,0 c 0,2.51952 -2.04247,4.56199 -4.56199,4.56199 -2.51952,0 -4.562,-2.04247 -4.562,-4.56199 0,-2.51952 2.04248,-4.562 4.562,-4.562 2.51952,0 4.56199,2.04248 4.56199,4.562 z m -550.24427,69.91846 c 0,2.51952 -2.04248,4.562 -4.562,4.562 -2.51952,0 -4.56199,-2.04248 -4.56199,-4.562 0,-2.51952 2.04247,-4.56199 4.56199,-4.56199 2.51952,0 4.562,2.04247 4.562,4.56199 z m 68.78053,0 c 0,2.51952 -2.04247,4.562 -4.56199,4.562 -2.51952,0 -4.562,-2.04248 -4.562,-4.562 0,-2.51952 2.04248,-4.56199 4.562,-4.56199 2.51952,0 4.56199,2.04247 4.56199,4.56199 z m 68.78054,0 c 0,2.51952 -2.04248,4.562 -4.562,4.562 -2.51952,0 -4.56199,-2.04248 -4.56199,-4.562 0,-2.51952 2.04247,-4.56199 4.56199,-4.56199 2.51952,0 4.562,2.04247 4.562,4.56199 z m 68.78053,0 c 0,2.51952 -2.04247,4.562 -4.56199,4.562 -2.51952,0 -4.562,-2.04248 -4.562,-4.562 0,-2.51952 2.04248,-4.56199 4.562,-4.56199 2.51952,0 4.56199,2.04247 4.56199,4.56199 z m 68.78053,0 c 0,2.51952 -2.04247,4.562 -4.56199,4.562 -2.51952,0 -4.56199,-2.04248 -4.56199,-4.562 0,-2.51952 2.04247,-4.56199 4.56199,-4.56199 2.51952,0 4.56199,2.04247 4.56199,4.56199 z m 68.78054,0 c 0,2.51952 -2.04248,4.562 -4.562,4.562 -2.51952,0 -4.56199,-2.04248 -4.56199,-4.562 0,-2.51952 2.04247,-4.56199 4.56199,-4.56199 2.51952,0 4.562,2.04247 4.562,4.56199 z m 68.78053,0 c 0,2.51952 -2.04247,4.562 -4.56199,4.562 -2.51952,0 -4.562,-2.04248 -4.562,-4.562 0,-2.51952 2.04248,-4.56199 4.562,-4.56199 2.51952,0 4.56199,2.04247 4.56199,4.56199 z m 68.78054,0 c 0,2.51952 -2.04248,4.562 -4.562,4.562 -2.51952,0 -4.56199,-2.04248 -4.56199,-4.562 0,-2.51952 2.04247,-4.56199 4.56199,-4.56199 2.51952,0 4.562,2.04247 4.562,4.56199 z m 68.78053,0 c 0,2.51952 -2.04247,4.562 -4.56199,4.562 -2.51952,0 -4.562,-2.04248 -4.562,-4.562 0,-2.51952 2.04248,-4.56199 4.562,-4.56199 2.51952,0 4.56199,2.04247 4.56199,4.56199 z m -550.24427,69.91847 c 0,2.51952 -2.04248,4.56199 -4.562,4.56199 -2.51952,0 -4.56199,-2.04247 -4.56199,-4.56199 0,-2.51952 2.04247,-4.562 4.56199,-4.562 2.51952,0 4.562,2.04248 4.562,4.562 z m 68.78053,0 c 0,2.51952 -2.04247,4.56199 -4.56199,4.56199 -2.51952,0 -4.562,-2.04247 -4.562,-4.56199 0,-2.51952 2.04248,-4.562 4.562,-4.562 2.51952,0 4.56199,2.04248 4.56199,4.562 z m 68.78054,0 c 0,2.51952 -2.04248,4.56199 -4.562,4.56199 -2.51952,0 -4.56199,-2.04247 -4.56199,-4.56199 0,-2.51952 2.04247,-4.562 4.56199,-4.562 2.51952,0 4.562,2.04248 4.562,4.562 z m 68.78053,0 c 0,2.51952 -2.04247,4.56199 -4.56199,4.56199 -2.51952,0 -4.562,-2.04247 -4.562,-4.56199 0,-2.51952 2.04248,-4.562 4.562,-4.562 2.51952,0 4.56199,2.04248 4.56199,4.562 z m 68.78053,0 c 0,2.51952 -2.04247,4.56199 -4.56199,4.56199 -2.51952,0 -4.56199,-2.04247 -4.56199,-4.56199 0,-2.51952 2.04247,-4.562 4.56199,-4.562 2.51952,0 4.56199,2.04248 4.56199,4.562 z m 68.78054,0 c 0,2.51952 -2.04248,4.56199 -4.562,4.56199 -2.51952,0 -4.56199,-2.04247 -4.56199,-4.56199 0,-2.51952 2.04247,-4.562 4.56199,-4.562 2.51952,0 4.562,2.04248 4.562,4.562 z m 68.78053,0 c 0,2.51952 -2.04247,4.56199 -4.56199,4.56199 -2.51952,0 -4.562,-2.04247 -4.562,-4.56199 0,-2.51952 2.04248,-4.562 4.562,-4.562 2.51952,0 4.56199,2.04248 4.56199,4.562 z m 68.78054,0 c 0,2.51952 -2.04248,4.56199 -4.562,4.56199 -2.51952,0 -4.56199,-2.04247 -4.56199,-4.56199 0,-2.51952 2.04247,-4.562 4.56199,-4.562 2.51952,0 4.562,2.04248 4.562,4.562 z m 68.78053,0 c 0,2.51952 -2.04247,4.56199 -4.56199,4.56199 -2.51952,0 -4.562,-2.04247 -4.562,-4.56199 0,-2.51952 2.04248,-4.562 4.562,-4.562 2.51952,0 4.56199,2.04248 4.56199,4.562 z m -550.24427,69.91846 c 0,2.51952 -2.04248,4.562 -4.562,4.562 -2.51952,0 -4.56199,-2.04248 -4.56199,-4.562 0,-2.51952 2.04247,-4.56199 4.56199,-4.56199 2.51952,0 4.562,2.04247 4.562,4.56199 z m 68.78053,0 c 0,2.51952 -2.04247,4.562 -4.56199,4.562 -2.51952,0 -4.562,-2.04248 -4.562,-4.562 0,-2.51952 2.04248,-4.56199 4.562,-4.56199 2.51952,0 4.56199,2.04247 4.56199,4.56199 z m 68.78054,0 c 0,2.51952 -2.04248,4.562 -4.562,4.562 -2.51952,0 -4.56199,-2.04248 -4.56199,-4.562 0,-2.51952 2.04247,-4.56199 4.56199,-4.56199 2.51952,0 4.562,2.04247 4.562,4.56199 z m 68.78053,0 c 0,2.51952 -2.04247,4.562 -4.56199,4.562 -2.51952,0 -4.562,-2.04248 -4.562,-4.562 0,-2.51952 2.04248,-4.56199 4.562,-4.56199 2.51952,0 4.56199,2.04247 4.56199,4.56199 z m 68.78053,0 c 0,2.51952 -2.04247,4.562 -4.56199,4.562 -2.51952,0 -4.56199,-2.04248 -4.56199,-4.562 0,-2.51952 2.04247,-4.56199 4.56199,-4.56199 2.51952,0 4.56199,2.04247 4.56199,4.56199 z m 68.78054,0 c 0,2.51952 -2.04248,4.562 -4.562,4.562 -2.51952,0 -4.56199,-2.04248 -4.56199,-4.562 0,-2.51952 2.04247,-4.56199 4.56199,-4.56199 2.51952,0 4.562,2.04247 4.562,4.56199 z m 68.78053,0 c 0,2.51952 -2.04247,4.562 -4.56199,4.562 -2.51952,0 -4.562,-2.04248 -4.562,-4.562 0,-2.51952 2.04248,-4.56199 4.562,-4.56199 2.51952,0 4.56199,2.04247 4.56199,4.56199 z m 68.78054,0 c 0,2.51952 -2.04248,4.562 -4.562,4.562 -2.51952,0 -4.56199,-2.04248 -4.56199,-4.562 0,-2.51952 2.04247,-4.56199 4.56199,-4.56199 2.51952,0 4.562,2.04247 4.562,4.56199 z m 68.78053,0 c 0,2.51952 -2.04247,4.562 -4.56199,4.562 -2.51952,0 -4.562,-2.04248 -4.562,-4.562 0,-2.51952 2.04248,-4.56199 4.562,-4.56199 2.51952,0 4.56199,2.04247 4.56199,4.56199 z m -550.24427,69.91847 c 0,2.51952 -2.04248,4.56199 -4.562,4.56199 -2.51952,0 -4.56199,-2.04247 -4.56199,-4.56199 0,-2.51952 2.04247,-4.562 4.56199,-4.562 2.51952,0 4.562,2.04248 4.562,4.562 z m 68.78053,0 c 0,2.51952 -2.04247,4.56199 -4.56199,4.56199 -2.51952,0 -4.562,-2.04247 -4.562,-4.56199 0,-2.51952 2.04248,-4.562 4.562,-4.562 2.51952,0 4.56199,2.04248 4.56199,4.562 z m 68.78054,0 c 0,2.51952 -2.04248,4.56199 -4.562,4.56199 -2.51952,0 -4.56199,-2.04247 -4.56199,-4.56199 0,-2.51952 2.04247,-4.562 4.56199,-4.562 2.51952,0 4.562,2.04248 4.562,4.562 z m 68.78053,0 c 0,2.51952 -2.04247,4.56199 -4.56199,4.56199 -2.51952,0 -4.562,-2.04247 -4.562,-4.56199 0,-2.51952 2.04248,-4.562 4.562,-4.562 2.51952,0 4.56199,2.04248 4.56199,4.562 z m 68.78053,0 c 0,2.51952 -2.04247,4.56199 -4.56199,4.56199 -2.51952,0 -4.56199,-2.04247 -4.56199,-4.56199 0,-2.51952 2.04247,-4.562 4.56199,-4.562 2.51952,0 4.56199,2.04248 4.56199,4.562 z m 68.78054,0 c 0,2.51952 -2.04248,4.56199 -4.562,4.56199 -2.51952,0 -4.56199,-2.04247 -4.56199,-4.56199 0,-2.51952 2.04247,-4.562 4.56199,-4.562 2.51952,0 4.562,2.04248 4.562,4.562 z m 68.78053,0 c 0,2.51952 -2.04247,4.56199 -4.56199,4.56199 -2.51952,0 -4.562,-2.04247 -4.562,-4.56199 0,-2.51952 2.04248,-4.562 4.562,-4.562 2.51952,0 4.56199,2.04248 4.56199,4.562 z m 68.78054,0 c 0,2.51952 -2.04248,4.56199 -4.562,4.56199 -2.51952,0 -4.56199,-2.04247 -4.56199,-4.56199 0,-2.51952 2.04247,-4.562 4.56199,-4.562 2.51952,0 4.562,2.04248 4.562,4.562 z m 68.78053,0 c 0,2.51952 -2.04247,4.56199 -4.56199,4.56199 -2.51952,0 -4.562,-2.04247 -4.562,-4.56199 0,-2.51952 2.04248,-4.562 4.562,-4.562 2.51952,0 4.56199,2.04248 4.56199,4.562 z m -550.24427,69.91846 c 0,2.51952 -2.04248,4.56199 -4.562,4.56199 -2.51952,0 -4.56199,-2.04247 -4.56199,-4.56199 0,-2.51952 2.04247,-4.56199 4.56199,-4.56199 2.51952,0 4.562,2.04247 4.562,4.56199 z m 68.78053,0 c 0,2.51952 -2.04247,4.56199 -4.56199,4.56199 -2.51952,0 -4.562,-2.04247 -4.562,-4.56199 0,-2.51952 2.04248,-4.56199 4.562,-4.56199 2.51952,0 4.56199,2.04247 4.56199,4.56199 z m 68.78054,0 c 0,2.51952 -2.04248,4.56199 -4.562,4.56199 -2.51952,0 -4.56199,-2.04247 -4.56199,-4.56199 0,-2.51952 2.04247,-4.56199 4.56199,-4.56199 2.51952,0 4.562,2.04247 4.562,4.56199 z m 68.78053,0 c 0,2.51952 -2.04247,4.56199 -4.56199,4.56199 -2.51952,0 -4.562,-2.04247 -4.562,-4.56199 0,-2.51952 2.04248,-4.56199 4.562,-4.56199 2.51952,0 4.56199,2.04247 4.56199,4.56199 z m 68.78053,0 c 0,2.51952 -2.04247,4.56199 -4.56199,4.56199 -2.51952,0 -4.56199,-2.04247 -4.56199,-4.56199 0,-2.51952 2.04247,-4.56199 4.56199,-4.56199 2.51952,0 4.56199,2.04247 4.56199,4.56199 z m 68.78054,0 c 0,2.51952 -2.04248,4.56199 -4.562,4.56199 -2.51952,0 -4.56199,-2.04247 -4.56199,-4.56199 0,-2.51952 2.04247,-4.56199 4.56199,-4.56199 2.51952,0 4.562,2.04247 4.562,4.56199 z m 68.78053,0 c 0,2.51952 -2.04247,4.56199 -4.56199,4.56199 -2.51952,0 -4.562,-2.04247 -4.562,-4.56199 0,-2.51952 2.04248,-4.56199 4.562,-4.56199 2.51952,0 4.56199,2.04247 4.56199,4.56199 z m 68.78054,0 c 0,2.51952 -2.04248,4.56199 -4.562,4.56199 -2.51952,0 -4.56199,-2.04247 -4.56199,-4.56199 0,-2.51952 2.04247,-4.56199 4.56199,-4.56199 2.51952,0 4.562,2.04247 4.562,4.56199 z m 68.78053,0 c 0,2.51952 -2.04247,4.56199 -4.56199,4.56199 -2.51952,0 -4.562,-2.04247 -4.562,-4.56199 0,-2.51952 2.04248,-4.56199 4.562,-4.56199 2.51952,0 4.56199,2.04247 4.56199,4.56199 z"
       sodipodi:type="arc"
       sodipodi:cx="111.55956"
       sodipodi:cy="102.41806"
       sodipodi:rx="4.5619946"
       sodipodi:ry="4.5619946" /></g></svg>
